<svg version="1.0" xmlns="http://www.w3.org/2000/svg"
 width="1118px" style="transform:scale(1,1.001);" height="628.875px" viewBox="0 0 320.000000 180.000000"
 preserveAspectRatio="xMidYMid meet">
<g transform="translate(0.000000,180.000000) scale(0.100000,-0.100000)"
fill="#000000" stroke="none">
<path d="M0 905 l0 -895 120 0 120 0 0 148 c0 125 3 155 21 202 11 30 24 60 28 65 5 6
27 62 50 125 24 63 47 120 51 125 5 6 14 31 20 57 8 30 21 53 36 62 12 9 40
34 61 57 47 51 100 79 150 79 21 0 47 6 58 13 11 8 53 24 93 36 39 12 72 26
72 31 0 6 -20 36 -44 67 -25 32 -53 78 -62 103 -10 25 -26 56 -36 70 -26 36
-58 137 -58 182 0 27 8 50 25 72 14 18 25 37 25 43 0 5 8 19 18 31 9 11 25 34
34 51 10 18 25 31 37 31 11 0 26 6 33 13 22 22 135 46 224 46 47 1 81 -7 140
-30 44 -18 84 -36 90 -41 11 -8 35 -107 39 -159 2 -14 8 -36 15 -48 7 -15 9
-39 5 -67 -6 -44 8 -87 43 -126 13 -16 13 -20 0 -35 -33 -40 -45 -171 -17
-189 5 -3 9 -18 9 -33 0 -33 9 -44 24 -32 33 28 173 -95 206 -179 7 -19 25
-60 40 -90 15 -30 32 -68 39 -83 7 -18 26 -35 52 -46 22 -10 53 -34 69 -52
l28 -34 40 23 c62 34 72 31 72 -27 0 -45 -3 -52 -30 -68 -34 -20 -36 -27 -15
-78 10 -22 15 -58 13 -93 -3 -47 -7 -59 -25 -67 -12 -5 -24 -17 -26 -27 -7
-24 -33 -23 -40 2 -3 11 -12 20 -21 20 -9 0 -16 6 -16 13 -1 19 -30 -25 -30
-45 0 -21 20 -24 38 -6 9 9 12 4 12 -25 0 -20 -4 -37 -10 -37 -5 0 -10 -11
-10 -25 l0 -25 695 0 695 0 0 895 0 895 -1600 0 -1600 0 0 -895z"/>
<path d="M1018 77 c-37 -16 -48 -26 -48 -44 0 -22 4 -23 61 -23 l60 0 -3 42 c-2 23 -7
42 -13 44 -5 1 -31 -7 -57 -19z"/>
<path d="M1662 68 c-20 -20 -15 -58 8 -58 15 0 20 7 20 29 0 34 -12 45 -28 29z"/>
<path d="M1247 63 c-4 -3 -7 -17 -7 -30 0 -19 5 -23 30 -23 27 0 30 3 30 30 0 25 -4 30
-23 30 -13 0 -27 -3 -30 -7z"/>
<path d="M1453 63 c-7 -2 -13 -16 -13 -29 0 -19 5 -24 25 -24 21 0 25 5 25 30 0 29 -9
35 -37 23z"/>
<path d="M1170 35 c0 -16 6 -25 15 -25 9 0 15 9 15 25 0 16 -6 25 -15 25 -9 0 -15 -9
-15 -25z"/>
</g>
</svg>
