<svg width="434" height="476" viewBox="0 0 434 476" fill="none" xmlns="http://www.w3.org/2000/svg">
<path d="M95.1493 285C95.7016 285 96.1493 284.552 96.1493 284C96.1493 283.448 95.7016 283 95.1493 283V285ZM101.448 283C100.896 283 100.448 283.448 100.448 284C100.448 284.552 100.896 285 101.448 285V283ZM107.747 285C108.299 285 108.747 284.552 108.747 284C108.747 283.448 108.299 283 107.747 283V285ZM114.045 283C113.493 283 113.045 283.448 113.045 284C113.045 284.552 113.493 285 114.045 285V283ZM120.344 285C120.896 285 121.344 284.552 121.344 284C121.344 283.448 120.896 283 120.344 283V285ZM126.643 283C126.09 283 125.643 283.448 125.643 284C125.643 284.552 126.09 285 126.643 285V283ZM132.941 285C133.494 285 133.941 284.552 133.941 284C133.941 283.448 133.494 283 132.941 283V285ZM139.24 283C138.688 283 138.24 283.448 138.24 284C138.24 284.552 138.688 285 139.24 285V283ZM144.304 284.62C144.814 284.409 145.056 283.824 144.844 283.313C144.633 282.803 144.048 282.561 143.538 282.773L144.304 284.62ZM145.162 281.148C144.951 281.658 145.193 282.243 145.703 282.455C146.213 282.666 146.798 282.424 147.01 281.914L145.162 281.148ZM147.389 277C147.389 276.448 146.942 276 146.389 276C145.837 276 145.389 276.448 145.389 277H147.389ZM145.389 271C145.389 271.552 145.837 272 146.389 272C146.942 272 147.389 271.552 147.389 271H145.389ZM147.389 265C147.389 264.448 146.942 264 146.389 264C145.837 264 145.389 264.448 145.389 265H147.389ZM145.389 259C145.389 259.552 145.837 260 146.389 260C146.942 260 147.389 259.552 147.389 259H145.389ZM147.389 253C147.389 252.448 146.942 252 146.389 252C145.837 252 145.389 252.448 145.389 253H147.389ZM145.389 247C145.389 247.552 145.837 248 146.389 248C146.942 248 147.389 247.552 147.389 247H145.389ZM147.389 241C147.389 240.448 146.942 240 146.389 240C145.837 240 145.389 240.448 145.389 241H147.389ZM145.389 235C145.389 235.552 145.837 236 146.389 236C146.942 236 147.389 235.552 147.389 235H145.389ZM147.389 229C147.389 228.448 146.942 228 146.389 228C145.837 228 145.389 228.448 145.389 229H147.389ZM145.389 223C145.389 223.552 145.837 224 146.389 224C146.942 224 147.389 223.552 147.389 223H145.389ZM147.389 217C147.389 216.448 146.942 216 146.389 216C145.837 216 145.389 216.448 145.389 217H147.389ZM145.389 211C145.389 211.552 145.837 212 146.389 212C146.942 212 147.389 211.552 147.389 211H145.389ZM147.617 206.852C147.828 206.342 147.586 205.757 147.076 205.545C146.566 205.334 145.981 205.576 145.769 206.086L147.617 206.852ZM148.475 203.38C147.965 203.591 147.723 204.176 147.935 204.687C148.146 205.197 148.731 205.439 149.241 205.227L148.475 203.38ZM153.57 205C154.122 205 154.57 204.552 154.57 204C154.57 203.448 154.122 203 153.57 203V205ZM159.931 203C159.379 203 158.931 203.448 158.931 204C158.931 204.552 159.379 205 159.931 205V203ZM166.292 205C166.844 205 167.292 204.552 167.292 204C167.292 203.448 166.844 203 166.292 203V205ZM172.653 203C172.101 203 171.653 203.448 171.653 204C171.653 204.552 172.101 205 172.653 205V203ZM179.014 205C179.566 205 180.014 204.552 180.014 204C180.014 203.448 179.566 203 179.014 203V205ZM185.375 203C184.823 203 184.375 203.448 184.375 204C184.375 204.552 184.823 205 185.375 205V203ZM191.736 205C192.289 205 192.736 204.552 192.736 204C192.736 203.448 192.289 203 191.736 203V205ZM198.097 203C197.545 203 197.097 203.448 197.097 204C197.097 204.552 197.545 205 198.097 205V203ZM204.458 205C205.011 205 205.458 204.552 205.458 204C205.458 203.448 205.011 203 204.458 203V205ZM210.819 203C210.267 203 209.819 203.448 209.819 204C209.819 204.552 210.267 205 210.819 205V203ZM92 285H95.1493V283H92V285ZM101.448 285H107.747V283H101.448V285ZM114.045 285H120.344V283H114.045V285ZM126.643 285H132.941V283H126.643V285ZM139.24 285H142.389V283H139.24V285ZM142.389 285C143.066 285 143.713 284.865 144.304 284.62L143.538 282.773C143.185 282.919 142.798 283 142.389 283V285ZM147.01 281.914C147.255 281.323 147.389 280.676 147.389 280H145.389C145.389 280.409 145.308 280.796 145.162 281.148L147.01 281.914ZM147.389 280V277H145.389V280H147.389ZM147.389 271V265H145.389V271H147.389ZM147.389 259V253H145.389V259H147.389ZM147.389 247V241H145.389V247H147.389ZM147.389 235V229H145.389V235H147.389ZM147.389 223V217H145.389V223H147.389ZM147.389 211V208H145.389V211H147.389ZM147.389 208C147.389 207.591 147.471 207.204 147.617 206.852L145.769 206.086C145.524 206.677 145.389 207.324 145.389 208H147.389ZM149.241 205.227C149.594 205.081 149.981 205 150.389 205V203C149.713 203 149.066 203.135 148.475 203.38L149.241 205.227ZM150.389 205H153.57V203H150.389V205ZM159.931 205H166.292V203H159.931V205ZM172.653 205H179.014V203H172.653V205ZM185.375 205H191.736V203H185.375V205ZM198.097 205H204.458V203H198.097V205ZM210.819 205H214V203H210.819V205Z" fill="#FF85C0"/>
<path d="M80 32H142.389C144.599 32 146.389 33.7909 146.389 36V108C146.389 110.209 148.18 112 150.389 112L214 112" stroke="#FF85C0" stroke-width="2" stroke-linecap="round" stroke-dasharray="6 6"/>
<path d="M230 156C230 151.582 233.582 148 238 148H302C306.418 148 310 151.582 310 156V220C310 224.418 306.418 228 302 228H238C233.582 228 230 224.418 230 220V156Z" fill="url(#paint0_linear_1146_36381)"/>
<path fill-rule="evenodd" clip-rule="evenodd" d="M270 162.5C263.096 162.5 257.5 168.096 257.5 175V177H256C252.686 177 250 179.686 250 183V207C250 210.314 252.686 213 256 213H284C287.314 213 290 210.314 290 207V183C290 179.686 287.314 177 284 177H282.5V175C282.5 168.096 276.904 162.5 270 162.5ZM281.5 178V183H282.5V178H284C286.761 178 289 180.239 289 183C289 185.761 286.761 188 284 188H256C253.239 188 251 185.761 251 183C251 180.239 253.239 178 256 178H257.5V183H258.5V178H281.5ZM281.5 177V175C281.5 168.649 276.351 163.5 270 163.5C263.649 163.5 258.5 168.649 258.5 175V177H281.5ZM289 207V186.318C287.925 187.934 286.087 189 284 189H256C253.913 189 252.075 187.934 251 186.318V207C251 209.761 253.239 212 256 212H284C286.761 212 289 209.761 289 207Z" fill="#000C17"/>
<path d="M4 252C4 247.582 7.58172 244 12 244H76C80.4183 244 84 247.582 84 252V316C84 320.418 80.4183 324 76 324H12C7.58172 324 4 320.418 4 316V252Z" fill="black"/>
<circle cx="44" cy="284" r="24" fill="url(#paint1_linear_1146_36381)"/>
<mask id="mask0_1146_36381" style="mask-type:alpha" maskUnits="userSpaceOnUse" x="20" y="260" width="48" height="48">
<path d="M20 284C20 270.745 30.7452 260 44 260C57.2548 260 68 270.745 68 284C68 297.255 57.2548 308 44 308C30.7452 308 20 297.255 20 284Z" fill="white"/>
</mask>
<g mask="url(#mask0_1146_36381)">
<path fill-rule="evenodd" clip-rule="evenodd" d="M4.86127 247.008C2.88753 242.125 1.80078 236.79 1.80078 231.2C1.80078 207.894 20.6944 189 44.0008 189C67.3072 189 86.2008 207.894 86.2008 231.2C86.2008 236.79 85.114 242.126 83.1403 247.008C79.8505 246.09 76.3828 245.6 72.8004 245.6C61.3315 245.6 51.0368 250.628 44.0006 258.599C36.9643 250.628 26.6697 245.6 15.2008 245.6C11.6185 245.6 8.15087 246.09 4.86127 247.008ZM87.2008 231.2C87.2008 236.887 86.1018 242.318 84.1047 247.291C99.7953 252.117 111.2 266.726 111.2 284C111.2 301.273 99.7952 315.883 84.1046 320.709C86.1018 325.682 87.2008 331.112 87.2008 336.8C87.2008 360.658 67.8595 380 44.0008 380C20.1421 380 0.800781 360.658 0.800781 336.8C0.800781 331.112 1.89976 325.682 3.89693 320.709C-11.7939 315.883 -23.1992 301.273 -23.1992 284C-23.1992 266.726 -11.7939 252.116 3.8968 247.29C1.89971 242.317 0.800781 236.887 0.800781 231.2C0.800781 207.341 20.1421 188 44.0008 188C67.8595 188 87.2008 207.341 87.2008 231.2ZM4.86141 320.992C2.88758 325.874 1.80078 331.21 1.80078 336.8C1.80078 360.106 20.6944 379 44.0008 379C67.3072 379 86.2008 360.106 86.2008 336.8C86.2008 331.21 85.114 325.874 83.1401 320.992C79.8504 321.909 76.3827 322.4 72.8004 322.4C61.3314 322.4 51.0368 317.372 44.0006 309.4C36.9643 317.372 26.6697 322.4 15.2008 322.4C11.6186 322.4 8.15097 321.909 4.86141 320.992ZM83.7192 319.781C99.0481 315.109 110.2 300.857 110.2 284C110.2 267.143 99.0482 252.89 83.7193 248.219C79.6955 257.597 72.4471 265.264 63.369 269.825C66.2806 273.797 68 278.698 68 284C68 289.302 66.2807 294.202 63.3692 298.174C72.4471 302.735 79.6954 310.402 83.7192 319.781ZM62.7498 298.983C71.6609 303.409 78.7853 310.893 82.751 320.061C79.5827 320.934 76.2459 321.4 72.8004 321.4C61.5802 321.4 51.514 316.459 44.6589 308.634C44.8423 308.415 45.0233 308.194 45.2019 307.97C52.2991 307.62 58.5854 304.187 62.7498 298.983ZM62.4552 297.728C65.2175 294.021 66.889 289.453 66.9947 284.5H53.5976C53.5539 287.917 53.0639 291.227 52.1831 294.373C55.7863 295.064 59.2303 296.203 62.4552 297.728ZM51.8995 295.338C55.3776 295.996 58.7047 297.082 61.8242 298.537C58.0057 303.214 52.3833 306.359 46.0186 306.913C48.5927 303.456 50.599 299.552 51.8995 295.338ZM51.194 294.196C52.0671 291.108 52.5535 287.857 52.5975 284.5H35.4037C35.4477 287.857 35.9341 291.108 36.8071 294.196C39.1466 293.804 41.5499 293.6 44.0008 293.6C46.4516 293.6 48.8547 293.804 51.194 294.196ZM37.0945 295.162C39.3417 294.792 41.6488 294.6 44.0008 294.6C46.3526 294.6 48.6596 294.792 50.9067 295.162C49.5531 299.496 47.432 303.492 44.7025 306.989C44.4692 306.996 44.235 307 44 307C43.7654 307 43.5316 306.996 43.2987 306.99C40.5692 303.492 38.4481 299.496 37.0945 295.162ZM35.8181 294.374C34.9373 291.227 34.4472 287.917 34.4036 284.5H21.0053C21.111 289.454 22.7827 294.022 25.5452 297.729C28.7703 296.203 32.2146 295.064 35.8181 294.374ZM26.1762 298.538C29.296 297.082 32.6233 295.996 36.1017 295.338C37.4022 299.552 39.4085 303.456 41.9827 306.913C35.6177 306.36 29.995 303.214 26.1762 298.538ZM25.2506 298.983C29.4153 304.188 35.7019 307.621 42.7993 307.97C42.9779 308.194 43.1589 308.415 43.3423 308.634C36.4872 316.459 26.421 321.4 15.2008 321.4C11.7554 321.4 8.41875 320.934 5.25051 320.061C9.21605 310.893 16.34 303.41 25.2506 298.983ZM24.6312 298.175C15.5538 302.736 8.30596 310.403 4.28234 319.781C-11.0468 315.109 -22.1992 300.857 -22.1992 284C-22.1992 267.143 -11.0468 252.89 4.28219 248.219C8.30582 257.597 15.5538 265.264 24.6314 269.825C21.7195 273.797 20 278.698 20 284C20 289.302 21.7194 294.203 24.6312 298.175ZM72.8004 246.6C76.246 246.6 79.5828 247.066 82.7512 247.938C78.7854 257.107 71.6609 264.59 62.7496 269.017C58.5853 263.813 52.2993 260.38 45.2026 260.03C45.0238 259.806 44.8425 259.585 44.6589 259.365C51.514 251.541 61.5802 246.6 72.8004 246.6ZM43.2981 261.011C43.5312 261.004 43.7652 261 44 261C44.2352 261 44.4696 261.004 44.7031 261.011C47.4324 264.508 49.5533 268.503 50.9068 272.838C48.6596 273.208 46.3527 273.4 44.0008 273.4C41.6488 273.4 39.3417 273.208 37.0944 272.838C38.4479 268.503 40.5688 264.508 43.2981 261.011ZM42.7986 260.03C42.9774 259.806 43.1587 259.585 43.3423 259.365C36.4872 251.541 26.421 246.6 15.2008 246.6C11.7553 246.6 8.41864 247.066 5.25037 247.938C9.21591 257.106 16.34 264.59 25.2509 269.016C29.4154 263.812 35.7017 260.379 42.7986 260.03ZM26.1764 269.462C29.9951 264.786 35.6175 261.641 41.9821 261.087C39.4081 264.544 37.4019 268.448 36.1016 272.662C32.6234 272.003 29.2961 270.918 26.1764 269.462ZM34.4036 283.5H21.0053C21.111 278.546 22.7828 273.978 25.5454 270.271C28.7705 271.797 32.2147 272.935 35.8179 273.626C34.9372 276.773 34.4472 280.083 34.4036 283.5ZM36.807 273.804C35.934 276.892 35.4476 280.143 35.4037 283.5H52.5975C52.5536 280.143 52.0672 276.892 51.1941 273.804C48.8547 274.196 46.4516 274.4 44.0008 274.4C41.5498 274.4 39.1466 274.196 36.807 273.804ZM53.5976 283.5H66.9947C66.889 278.547 65.2174 273.979 62.455 270.271C59.2302 271.797 55.7862 272.935 52.1832 273.626C53.064 276.773 53.554 280.083 53.5976 283.5ZM61.824 269.463C58.7045 270.918 55.3775 272.003 51.8996 272.662C50.5993 268.448 48.5931 264.544 46.0192 261.087C52.3835 261.641 58.0055 264.786 61.824 269.463Z" fill="url(#paint2_linear_1146_36381)"/>
</g>
<rect x="0.5" y="240.5" width="87" height="87" rx="11.5" stroke="#FF85C0"/>
<rect x="226.5" y="144.5" width="87" height="87" rx="11.5" stroke="#FF85C0"/>
<path d="M234.08 381L240.28 366.8H242.32L248.52 381H246.08L244.46 377.28H238.1L236.5 381H234.08ZM241.28 369.96L239 375.2H243.56L241.28 369.96ZM258.516 371V381H256.316V379.96C255.676 380.787 254.756 381.2 253.556 381.2C252.383 381.2 251.443 380.82 250.736 380.06C250.029 379.287 249.676 378.26 249.676 376.98V371H251.876V376.62C251.876 377.42 252.063 378.053 252.436 378.52C252.823 378.973 253.356 379.2 254.036 379.2C254.543 379.2 254.996 379.06 255.396 378.78C255.796 378.487 256.103 378.1 256.316 377.62V371H258.516ZM266.216 381.1C265.189 381.1 264.349 380.82 263.696 380.26C263.056 379.687 262.736 378.86 262.736 377.78V372.96H260.256V371H262.736V368.1H264.936V371H267.996V372.96H264.936V377.42C264.936 378.553 265.456 379.12 266.496 379.12C267.043 379.12 267.516 379 267.916 378.76L268.576 380.6C267.883 380.933 267.096 381.1 266.216 381.1ZM272.446 381H270.246V366.4H272.446V372.06C273.126 371.22 274.106 370.8 275.386 370.8C276.572 370.8 277.519 371.187 278.226 371.96C278.946 372.72 279.306 373.74 279.306 375.02V381H277.106V375.38C277.106 374.567 276.912 373.933 276.526 373.48C276.152 373.027 275.612 372.8 274.906 372.8C273.732 372.8 272.912 373.327 272.446 374.38V381ZM286.641 381.2C285.121 381.2 283.867 380.713 282.881 379.74C281.907 378.767 281.421 377.52 281.421 376C281.421 374.52 281.914 373.287 282.901 372.3C283.887 371.3 285.134 370.8 286.641 370.8C288.027 370.8 289.174 371.24 290.081 372.12C291.001 373 291.461 374.213 291.461 375.76C291.461 376.027 291.454 376.267 291.441 376.48H283.581C283.634 377.293 283.947 377.953 284.521 378.46C285.094 378.953 285.807 379.2 286.661 379.2C287.941 379.2 288.894 378.693 289.521 377.68L291.201 378.88C290.241 380.427 288.721 381.2 286.641 381.2ZM283.681 374.88H289.241C289.121 374.187 288.807 373.647 288.301 373.26C287.807 372.86 287.227 372.66 286.561 372.66C285.867 372.66 285.247 372.853 284.701 373.24C284.167 373.627 283.827 374.173 283.681 374.88ZM293.722 381V371H295.922V372.06C296.602 371.22 297.582 370.8 298.862 370.8C300.049 370.8 300.996 371.187 301.702 371.96C302.422 372.72 302.782 373.74 302.782 375.02V381H300.582V375.38C300.582 374.567 300.389 373.933 300.002 373.48C299.629 373.027 299.089 372.8 298.382 372.8C297.209 372.8 296.389 373.327 295.922 374.38V381H293.722ZM310.181 381.1C309.154 381.1 308.314 380.82 307.661 380.26C307.021 379.687 306.701 378.86 306.701 377.78V372.96H304.221V371H306.701V368.1H308.901V371H311.961V372.96H308.901V377.42C308.901 378.553 309.421 379.12 310.461 379.12C311.008 379.12 311.481 379 311.881 378.76L312.541 380.6C311.848 380.933 311.061 381.1 310.181 381.1ZM315.31 369.22C314.91 369.22 314.564 369.08 314.27 368.8C313.99 368.507 313.85 368.153 313.85 367.74C313.85 367.34 313.99 367 314.27 366.72C314.564 366.427 314.91 366.28 315.31 366.28C315.724 366.28 316.07 366.427 316.35 366.72C316.644 367 316.79 367.34 316.79 367.74C316.79 368.153 316.644 368.507 316.35 368.8C316.07 369.08 315.724 369.22 315.31 369.22ZM314.21 381V371H316.41V381H314.21ZM323.927 381.2C322.42 381.2 321.16 380.707 320.147 379.72C319.147 378.72 318.647 377.48 318.647 376C318.647 374.52 319.147 373.287 320.147 372.3C321.16 371.3 322.42 370.8 323.927 370.8C324.953 370.8 325.873 371.047 326.687 371.54C327.513 372.033 328.147 372.707 328.587 373.56L326.667 374.6C326.413 374.067 326.047 373.64 325.567 373.32C325.087 373 324.54 372.84 323.927 372.84C323.047 372.84 322.32 373.147 321.747 373.76C321.173 374.36 320.887 375.107 320.887 376C320.887 376.893 321.173 377.647 321.747 378.26C322.32 378.86 323.047 379.16 323.927 379.16C324.54 379.16 325.087 379 325.567 378.68C326.047 378.36 326.413 377.933 326.667 377.4L328.587 378.44C328.147 379.293 327.513 379.967 326.687 380.46C325.873 380.953 324.953 381.2 323.927 381.2ZM334.877 381.2C333.424 381.2 332.231 380.693 331.297 379.68C330.364 378.667 329.897 377.44 329.897 376C329.897 374.56 330.364 373.333 331.297 372.32C332.231 371.307 333.424 370.8 334.877 370.8C336.104 370.8 337.077 371.173 337.797 371.92V371H339.997V381H337.797V380.06C337.077 380.82 336.104 381.2 334.877 381.2ZM335.137 379.2C336.284 379.2 337.171 378.733 337.797 377.8V374.18C337.157 373.26 336.271 372.8 335.137 372.8C334.271 372.8 333.557 373.113 332.997 373.74C332.437 374.353 332.157 375.107 332.157 376C332.157 376.893 332.437 377.653 332.997 378.28C333.557 378.893 334.271 379.2 335.137 379.2ZM347.72 381.1C346.693 381.1 345.853 380.82 345.2 380.26C344.56 379.687 344.24 378.86 344.24 377.78V372.96H341.76V371H344.24V368.1H346.44V371H349.5V372.96H346.44V377.42C346.44 378.553 346.96 379.12 348 379.12C348.547 379.12 349.02 379 349.42 378.76L350.08 380.6C349.387 380.933 348.6 381.1 347.72 381.1ZM352.85 369.22C352.45 369.22 352.103 369.08 351.81 368.8C351.53 368.507 351.39 368.153 351.39 367.74C351.39 367.34 351.53 367 351.81 366.72C352.103 366.427 352.45 366.28 352.85 366.28C353.263 366.28 353.61 366.427 353.89 366.72C354.183 367 354.33 367.34 354.33 367.74C354.33 368.153 354.183 368.507 353.89 368.8C353.61 369.08 353.263 369.22 352.85 369.22ZM351.75 381V371H353.95V381H351.75ZM365.146 379.7C364.146 380.7 362.906 381.2 361.426 381.2C359.946 381.2 358.699 380.7 357.686 379.7C356.686 378.687 356.186 377.453 356.186 376C356.186 374.547 356.686 373.32 357.686 372.32C358.699 371.307 359.946 370.8 361.426 370.8C362.906 370.8 364.146 371.307 365.146 372.32C366.159 373.32 366.666 374.547 366.666 376C366.666 377.453 366.159 378.687 365.146 379.7ZM361.426 379.16C362.292 379.16 363.006 378.86 363.566 378.26C364.139 377.647 364.426 376.893 364.426 376C364.426 375.107 364.139 374.36 363.566 373.76C363.006 373.147 362.292 372.84 361.426 372.84C360.546 372.84 359.819 373.147 359.246 373.76C358.686 374.36 358.406 375.107 358.406 376C358.406 376.893 358.686 377.647 359.246 378.26C359.819 378.86 360.546 379.16 361.426 379.16ZM368.878 381V371H371.078V372.06C371.758 371.22 372.738 370.8 374.018 370.8C375.205 370.8 376.152 371.187 376.858 371.96C377.578 372.72 377.938 373.74 377.938 375.02V381H375.738V375.38C375.738 374.567 375.545 373.933 375.158 373.48C374.785 373.027 374.245 372.8 373.538 372.8C372.365 372.8 371.545 373.327 371.078 374.38V381H368.878Z" fill="white"/>
<path d="M239.68 413.24C238.547 413.24 237.527 413 236.62 412.52C235.713 412.04 235.08 411.427 234.72 410.68L236.2 409.56C237.04 410.853 238.213 411.5 239.72 411.5C240.493 411.5 241.127 411.307 241.62 410.92C242.113 410.533 242.36 410.02 242.36 409.38C242.36 408.287 241.68 407.487 240.32 406.98L238.44 406.26C237.307 405.847 236.48 405.333 235.96 404.72C235.453 404.093 235.2 403.3 235.2 402.34C235.2 401.193 235.62 400.28 236.46 399.6C237.3 398.907 238.367 398.56 239.66 398.56C240.527 398.56 241.32 398.74 242.04 399.1C242.76 399.447 243.34 399.913 243.78 400.5L242.44 401.7C241.64 400.767 240.7 400.3 239.62 400.3C238.9 400.3 238.293 400.487 237.8 400.86C237.307 401.22 237.06 401.687 237.06 402.26C237.06 402.833 237.22 403.287 237.54 403.62C237.873 403.953 238.427 404.26 239.2 404.54L240.9 405.2C242.007 405.613 242.833 406.147 243.38 406.8C243.94 407.453 244.22 408.287 244.22 409.3C244.22 410.487 243.793 411.44 242.94 412.16C242.1 412.88 241.013 413.24 239.68 413.24ZM251.094 413.2C249.561 413.2 248.314 412.707 247.354 411.72C246.394 410.733 245.914 409.493 245.914 408C245.914 406.52 246.401 405.287 247.374 404.3C248.348 403.3 249.594 402.8 251.114 402.8C252.461 402.8 253.588 403.253 254.494 404.16C255.414 405.053 255.874 406.273 255.874 407.82C255.874 408.02 255.868 408.193 255.854 408.34H247.654C247.681 409.273 248.014 410.053 248.654 410.68C249.308 411.307 250.128 411.62 251.114 411.62C252.514 411.62 253.554 411.04 254.234 409.88L255.594 410.82C254.621 412.407 253.121 413.2 251.094 413.2ZM247.774 406.94H254.114C253.981 406.14 253.628 405.507 253.054 405.04C252.494 404.56 251.828 404.32 251.054 404.32C250.268 404.32 249.561 404.56 248.934 405.04C248.321 405.507 247.934 406.14 247.774 406.94ZM262.775 413.2C261.269 413.2 260.015 412.7 259.015 411.7C258.029 410.7 257.535 409.467 257.535 408C257.535 406.533 258.029 405.3 259.015 404.3C260.015 403.3 261.269 402.8 262.775 402.8C263.789 402.8 264.695 403.04 265.495 403.52C266.309 404 266.942 404.653 267.395 405.48L265.895 406.32C265.602 405.733 265.182 405.267 264.635 404.92C264.102 404.573 263.482 404.4 262.775 404.4C261.749 404.4 260.909 404.747 260.255 405.44C259.602 406.133 259.275 406.987 259.275 408C259.275 409.013 259.602 409.867 260.255 410.56C260.909 411.253 261.749 411.6 262.775 411.6C263.482 411.6 264.102 411.427 264.635 411.08C265.182 410.733 265.602 410.267 265.895 409.68L267.395 410.52C266.942 411.347 266.309 412 265.495 412.48C264.695 412.96 263.789 413.2 262.775 413.2ZM277.964 403V413H276.244V411.74C275.577 412.713 274.571 413.2 273.224 413.2C272.117 413.2 271.217 412.833 270.524 412.1C269.831 411.367 269.484 410.38 269.484 409.14V403H271.204V408.88C271.204 409.76 271.411 410.44 271.824 410.92C272.251 411.387 272.844 411.62 273.604 411.62C274.231 411.62 274.771 411.44 275.224 411.08C275.691 410.72 276.031 410.24 276.244 409.64V403H277.964ZM281.206 413V403H282.926V404.48C283.126 404.053 283.479 403.687 283.986 403.38C284.506 403.06 285.053 402.9 285.626 402.9C285.919 402.9 286.213 402.933 286.506 403L286.286 404.72C286.046 404.64 285.759 404.6 285.426 404.6C284.893 404.6 284.386 404.773 283.906 405.12C283.439 405.453 283.113 405.92 282.926 406.52V413H281.206ZM292.422 413.2C290.889 413.2 289.642 412.707 288.682 411.72C287.722 410.733 287.242 409.493 287.242 408C287.242 406.52 287.729 405.287 288.702 404.3C289.676 403.3 290.922 402.8 292.442 402.8C293.789 402.8 294.916 403.253 295.822 404.16C296.742 405.053 297.202 406.273 297.202 407.82C297.202 408.02 297.196 408.193 297.182 408.34H288.982C289.009 409.273 289.342 410.053 289.982 410.68C290.636 411.307 291.456 411.62 292.442 411.62C293.842 411.62 294.882 411.04 295.562 409.88L296.922 410.82C295.949 412.407 294.449 413.2 292.422 413.2ZM289.102 406.94H295.442C295.309 406.14 294.956 405.507 294.382 405.04C293.822 404.56 293.156 404.32 292.382 404.32C291.596 404.32 290.889 404.56 290.262 405.04C289.649 405.507 289.262 406.14 289.102 406.94ZM306.799 416.88H304.879L306.919 412.48L302.539 403H304.439L307.879 410.6L311.299 403H313.219L306.799 416.88ZM319.162 413.2C317.655 413.2 316.402 412.7 315.402 411.7C314.415 410.687 313.922 409.453 313.922 408C313.922 406.547 314.415 405.32 315.402 404.32C316.402 403.307 317.655 402.8 319.162 402.8C320.655 402.8 321.895 403.307 322.882 404.32C323.882 405.32 324.382 406.547 324.382 408C324.382 409.453 323.882 410.687 322.882 411.7C321.895 412.7 320.655 413.2 319.162 413.2ZM316.642 410.56C317.295 411.253 318.135 411.6 319.162 411.6C320.188 411.6 321.022 411.253 321.662 410.56C322.302 409.867 322.622 409.013 322.622 408C322.622 406.987 322.302 406.133 321.662 405.44C321.022 404.747 320.188 404.4 319.162 404.4C318.135 404.4 317.295 404.747 316.642 405.44C316.002 406.133 315.682 406.987 315.682 408C315.682 409.013 316.002 409.867 316.642 410.56ZM335.19 403V413H333.47V411.74C332.804 412.713 331.797 413.2 330.45 413.2C329.344 413.2 328.444 412.833 327.75 412.1C327.057 411.367 326.71 410.38 326.71 409.14V403H328.43V408.88C328.43 409.76 328.637 410.44 329.05 410.92C329.477 411.387 330.07 411.62 330.83 411.62C331.457 411.62 331.997 411.44 332.45 411.08C332.917 410.72 333.257 410.24 333.47 409.64V403H335.19ZM338.433 413V403H340.153V404.48C340.353 404.053 340.706 403.687 341.213 403.38C341.733 403.06 342.279 402.9 342.853 402.9C343.146 402.9 343.439 402.933 343.733 403L343.513 404.72C343.273 404.64 342.986 404.6 342.653 404.6C342.119 404.6 341.613 404.773 341.133 405.12C340.666 405.453 340.339 405.92 340.153 406.52V413H338.433ZM354.177 413.2C352.71 413.2 351.504 412.7 350.557 411.7C349.61 410.687 349.137 409.453 349.137 408C349.137 406.547 349.61 405.32 350.557 404.32C351.504 403.307 352.71 402.8 354.177 402.8C355.55 402.8 356.637 403.233 357.437 404.1V403H359.157V413H357.437V411.9C356.637 412.767 355.55 413.2 354.177 413.2ZM354.317 411.62C355.717 411.62 356.757 411.067 357.437 409.96V406.02C356.757 404.927 355.717 404.38 354.317 404.38C353.33 404.38 352.517 404.733 351.877 405.44C351.237 406.133 350.917 406.987 350.917 408C350.917 409.013 351.237 409.873 351.877 410.58C352.517 411.273 353.33 411.62 354.317 411.62ZM362.397 416.88V403H364.117V404.1C364.944 403.233 366.031 402.8 367.377 402.8C368.844 402.8 370.051 403.307 370.997 404.32C371.944 405.32 372.417 406.547 372.417 408C372.417 409.453 371.944 410.687 370.997 411.7C370.051 412.7 368.844 413.2 367.377 413.2C366.031 413.2 364.944 412.767 364.117 411.9V416.88H362.397ZM367.237 411.62C368.224 411.62 369.037 411.273 369.677 410.58C370.317 409.873 370.637 409.013 370.637 408C370.637 406.987 370.317 406.133 369.677 405.44C369.037 404.733 368.224 404.38 367.237 404.38C365.837 404.38 364.797 404.927 364.117 406.02V409.96C364.797 411.067 365.837 411.62 367.237 411.62ZM374.878 416.88V403H376.598V404.1C377.424 403.233 378.511 402.8 379.858 402.8C381.324 402.8 382.531 403.307 383.478 404.32C384.424 405.32 384.898 406.547 384.898 408C384.898 409.453 384.424 410.687 383.478 411.7C382.531 412.7 381.324 413.2 379.858 413.2C378.511 413.2 377.424 412.767 376.598 411.9V416.88H374.878ZM379.718 411.62C380.704 411.62 381.518 411.273 382.158 410.58C382.798 409.873 383.118 409.013 383.118 408C383.118 406.987 382.798 406.133 382.158 405.44C381.518 404.733 380.704 404.38 379.718 404.38C378.318 404.38 377.278 404.927 376.598 406.02V409.96C377.278 411.067 378.318 411.62 379.718 411.62ZM390.359 413.2C389.439 413.2 388.632 413.007 387.939 412.62C387.245 412.22 386.745 411.64 386.439 410.88L387.839 410.1C388.025 410.593 388.352 410.98 388.819 411.26C389.285 411.54 389.805 411.68 390.379 411.68C390.872 411.68 391.285 411.56 391.619 411.32C391.952 411.08 392.119 410.753 392.119 410.34C392.119 409.98 391.985 409.68 391.719 409.44C391.465 409.2 391.019 408.98 390.379 408.78L389.379 408.46C387.712 407.98 386.879 407.007 386.879 405.54C386.879 404.713 387.205 404.053 387.859 403.56C388.525 403.053 389.345 402.8 390.319 402.8C391.839 402.8 392.939 403.38 393.619 404.54L392.339 405.42C391.792 404.66 391.099 404.28 390.259 404.28C389.805 404.28 389.412 404.393 389.079 404.62C388.759 404.833 388.599 405.12 388.599 405.48C388.599 405.813 388.699 406.1 388.899 406.34C389.112 406.567 389.485 406.76 390.019 406.92L391.119 407.26C392.932 407.82 393.839 408.8 393.839 410.2C393.839 411.133 393.512 411.867 392.859 412.4C392.219 412.933 391.385 413.2 390.359 413.2ZM405.427 413.2C403.96 413.2 402.754 412.7 401.807 411.7C400.86 410.687 400.387 409.453 400.387 408C400.387 406.547 400.86 405.32 401.807 404.32C402.754 403.307 403.96 402.8 405.427 402.8C406.8 402.8 407.887 403.233 408.687 404.1V403H410.407V413H408.687V411.9C407.887 412.767 406.8 413.2 405.427 413.2ZM405.567 411.62C406.967 411.62 408.007 411.067 408.687 409.96V406.02C408.007 404.927 406.967 404.38 405.567 404.38C404.58 404.38 403.767 404.733 403.127 405.44C402.487 406.133 402.167 406.987 402.167 408C402.167 409.013 402.487 409.873 403.127 410.58C403.767 411.273 404.58 411.62 405.567 411.62ZM417.927 413.1C417.034 413.1 416.287 412.84 415.687 412.32C415.101 411.787 414.807 411.027 414.807 410.04V404.58H412.287V403H414.807V400.16H416.527V403H419.627V404.58H416.527V409.82C416.527 410.98 417.061 411.56 418.127 411.56C418.661 411.56 419.141 411.433 419.567 411.18L420.087 412.64C419.501 412.947 418.781 413.1 417.927 413.1ZM239.9 441.1C239.007 441.1 238.26 440.84 237.66 440.32C237.073 439.787 236.78 439.027 236.78 438.04V432.58H234.26V431H236.78V428.16H238.5V431H241.6V432.58H238.5V437.82C238.5 438.98 239.033 439.56 240.1 439.56C240.633 439.56 241.113 439.433 241.54 439.18L242.06 440.64C241.473 440.947 240.753 441.1 239.9 441.1ZM245.641 441H243.921V426.4H245.641V432.26C246.307 431.287 247.361 430.8 248.801 430.8C249.934 430.8 250.847 431.167 251.541 431.9C252.247 432.633 252.601 433.62 252.601 434.86V441H250.901V435.12C250.901 434.253 250.674 433.58 250.221 433.1C249.781 432.62 249.174 432.38 248.401 432.38C247.014 432.38 246.094 433.04 245.641 434.36V441ZM260.098 441.2C258.565 441.2 257.318 440.707 256.358 439.72C255.398 438.733 254.918 437.493 254.918 436C254.918 434.52 255.405 433.287 256.378 432.3C257.351 431.3 258.598 430.8 260.118 430.8C261.465 430.8 262.591 431.253 263.498 432.16C264.418 433.053 264.878 434.273 264.878 435.82C264.878 436.02 264.871 436.193 264.858 436.34H256.658C256.685 437.273 257.018 438.053 257.658 438.68C258.311 439.307 259.131 439.62 260.118 439.62C261.518 439.62 262.558 439.04 263.238 437.88L264.598 438.82C263.625 440.407 262.125 441.2 260.098 441.2ZM256.778 434.94H263.118C262.985 434.14 262.631 433.507 262.058 433.04C261.498 432.56 260.831 432.32 260.058 432.32C259.271 432.32 258.565 432.56 257.938 433.04C257.325 433.507 256.938 434.14 256.778 434.94ZM272.143 441V431H273.863V432.26C274.53 431.287 275.583 430.8 277.023 430.8C278.157 430.8 279.07 431.167 279.763 431.9C280.47 432.633 280.823 433.62 280.823 434.86V441H279.123V435.12C279.123 434.253 278.897 433.58 278.443 433.1C278.003 432.62 277.397 432.38 276.623 432.38C275.237 432.38 274.317 433.04 273.863 434.36V441H272.143ZM288.181 445.08C287.194 445.08 286.307 444.913 285.521 444.58C284.747 444.247 284.134 443.8 283.681 443.24L284.861 442.04C285.701 443.027 286.807 443.52 288.181 443.52C289.061 443.52 289.827 443.247 290.481 442.7C291.134 442.167 291.461 441.38 291.461 440.34V439.58C290.661 440.46 289.574 440.9 288.201 440.9C286.734 440.9 285.521 440.413 284.561 439.44C283.614 438.453 283.141 437.253 283.141 435.84C283.141 434.427 283.621 433.233 284.581 432.26C285.541 431.287 286.747 430.8 288.201 430.8C289.574 430.8 290.661 431.233 291.461 432.1V431H293.181V440.4C293.181 441.92 292.707 443.08 291.761 443.88C290.814 444.68 289.621 445.08 288.181 445.08ZM288.341 439.3C289.741 439.3 290.781 438.753 291.461 437.66V434.02C290.781 432.927 289.741 432.38 288.341 432.38C287.354 432.38 286.534 432.713 285.881 433.38C285.241 434.047 284.921 434.867 284.921 435.84C284.921 436.827 285.241 437.653 285.881 438.32C286.534 438.973 287.354 439.3 288.341 439.3ZM296.421 441V431H298.141V432.48C298.341 432.053 298.694 431.687 299.201 431.38C299.721 431.06 300.267 430.9 300.841 430.9C301.134 430.9 301.427 430.933 301.721 431L301.501 432.72C301.261 432.64 300.974 432.6 300.641 432.6C300.107 432.6 299.601 432.773 299.121 433.12C298.654 433.453 298.327 433.92 298.141 434.52V441H296.421ZM307.677 441.2C306.171 441.2 304.917 440.7 303.917 439.7C302.931 438.687 302.437 437.453 302.437 436C302.437 434.547 302.931 433.32 303.917 432.32C304.917 431.307 306.171 430.8 307.677 430.8C309.171 430.8 310.411 431.307 311.397 432.32C312.397 433.32 312.897 434.547 312.897 436C312.897 437.453 312.397 438.687 311.397 439.7C310.411 440.7 309.171 441.2 307.677 441.2ZM305.157 438.56C305.811 439.253 306.651 439.6 307.677 439.6C308.704 439.6 309.537 439.253 310.177 438.56C310.817 437.867 311.137 437.013 311.137 436C311.137 434.987 310.817 434.133 310.177 433.44C309.537 432.747 308.704 432.4 307.677 432.4C306.651 432.4 305.811 432.747 305.157 433.44C304.517 434.133 304.197 434.987 304.197 436C304.197 437.013 304.517 437.867 305.157 438.56ZM322.506 441L317.086 436V441H315.366V426.4H317.086V434.9L321.446 431H323.726L318.806 435.42L324.826 441H322.506ZM334.981 441.2C333.448 441.2 332.201 440.707 331.241 439.72C330.281 438.733 329.801 437.493 329.801 436C329.801 434.52 330.288 433.287 331.261 432.3C332.234 431.3 333.481 430.8 335.001 430.8C336.348 430.8 337.474 431.253 338.381 432.16C339.301 433.053 339.761 434.273 339.761 435.82C339.761 436.02 339.754 436.193 339.741 436.34H331.541C331.568 437.273 331.901 438.053 332.541 438.68C333.194 439.307 334.014 439.62 335.001 439.62C336.401 439.62 337.441 439.04 338.121 437.88L339.481 438.82C338.508 440.407 337.008 441.2 334.981 441.2ZM331.661 434.94H338.001C337.868 434.14 337.514 433.507 336.941 433.04C336.381 432.56 335.714 432.32 334.941 432.32C334.154 432.32 333.448 432.56 332.821 433.04C332.208 433.507 331.821 434.14 331.661 434.94ZM346.462 441.2C344.995 441.2 343.789 440.7 342.842 439.7C341.895 438.687 341.422 437.453 341.422 436C341.422 434.547 341.895 433.32 342.842 432.32C343.789 431.307 344.995 430.8 346.462 430.8C347.835 430.8 348.922 431.233 349.722 432.1V426.4H351.442V441H349.722V439.9C348.922 440.767 347.835 441.2 346.462 441.2ZM346.602 439.62C348.002 439.62 349.042 439.067 349.722 437.96V434.02C349.042 432.927 348.002 432.38 346.602 432.38C345.615 432.38 344.802 432.733 344.162 433.44C343.522 434.133 343.202 434.987 343.202 436C343.202 437.013 343.522 437.873 344.162 438.58C344.802 439.273 345.615 439.62 346.602 439.62ZM358.942 445.08C357.956 445.08 357.069 444.913 356.283 444.58C355.509 444.247 354.896 443.8 354.443 443.24L355.623 442.04C356.463 443.027 357.569 443.52 358.942 443.52C359.823 443.52 360.589 443.247 361.243 442.7C361.896 442.167 362.223 441.38 362.223 440.34V439.58C361.423 440.46 360.336 440.9 358.963 440.9C357.496 440.9 356.283 440.413 355.323 439.44C354.376 438.453 353.903 437.253 353.903 435.84C353.903 434.427 354.383 433.233 355.343 432.26C356.303 431.287 357.509 430.8 358.963 430.8C360.336 430.8 361.423 431.233 362.223 432.1V431H363.943V440.4C363.943 441.92 363.469 443.08 362.523 443.88C361.576 444.68 360.383 445.08 358.942 445.08ZM359.103 439.3C360.503 439.3 361.543 438.753 362.223 437.66V434.02C361.543 432.927 360.503 432.38 359.103 432.38C358.116 432.38 357.296 432.713 356.643 433.38C356.003 434.047 355.683 434.867 355.683 435.84C355.683 436.827 356.003 437.653 356.643 438.32C357.296 438.973 358.116 439.3 359.103 439.3ZM371.583 441.2C370.049 441.2 368.803 440.707 367.843 439.72C366.883 438.733 366.403 437.493 366.403 436C366.403 434.52 366.889 433.287 367.863 432.3C368.836 431.3 370.083 430.8 371.603 430.8C372.949 430.8 374.076 431.253 374.983 432.16C375.903 433.053 376.363 434.273 376.363 435.82C376.363 436.02 376.356 436.193 376.343 436.34H368.143C368.169 437.273 368.503 438.053 369.143 438.68C369.796 439.307 370.616 439.62 371.603 439.62C373.003 439.62 374.043 439.04 374.723 437.88L376.083 438.82C375.109 440.407 373.609 441.2 371.583 441.2ZM368.263 434.94H374.603C374.469 434.14 374.116 433.507 373.543 433.04C372.983 432.56 372.316 432.32 371.543 432.32C370.756 432.32 370.049 432.56 369.423 433.04C368.809 433.507 368.423 434.14 368.263 434.94Z" fill="#8C8C8C"/>
<rect x="269.5" y="232" width="1" height="112" fill="#FF85C0"/>
<path d="M12 134C12 129.582 15.5817 126 20 126H68C72.4183 126 76 129.582 76 134V182C76 186.418 72.4183 190 68 190H20C15.5817 190 12 186.418 12 182V134Z" fill="url(#paint3_linear_1146_36381)"/>
<path d="M25.1998 145.2C25.1998 144.979 25.3789 144.8 25.5998 144.8H62.3998C62.6207 144.8 62.7998 144.979 62.7998 145.2V166.4H25.1998V145.2Z" stroke="black" stroke-width="0.8"/>
<path d="M20.4 174.347C20.4 174.192 20.442 174.041 20.5216 173.908L25.0265 166.4H62.9735L67.4784 173.908C67.558 174.041 67.6 174.192 67.6 174.347C67.6 174.818 67.2181 175.2 66.747 175.2H21.253C20.7819 175.2 20.4 174.818 20.4 174.347Z" stroke="black" stroke-width="0.8"/>
<rect x="26.3999" y="146.8" width="35.2" height="17.6" rx="0.8" fill="#FF85C0"/>
<path d="M38.3089 170.274C38.3634 170.11 38.5162 170 38.6884 170H49.3118C49.484 170 49.6368 170.11 49.6913 170.274L50.2246 171.874C50.3109 172.133 50.1182 172.4 49.8451 172.4H38.1551C37.882 172.4 37.6893 172.133 37.7756 171.874L38.3089 170.274Z" fill="#FF85C0"/>
<path d="M20.4 174.4C20.4 173.958 20.7582 173.6 21.2 173.6H66.8C67.2418 173.6 67.6 173.958 67.6 174.4C67.6 174.842 67.2418 175.2 66.8 175.2H21.2C20.7582 175.2 20.4 174.842 20.4 174.4Z" stroke="black" stroke-width="0.8"/>
<path d="M12 8C12 3.58172 15.5817 0 20 0H68C72.4183 0 76 3.58172 76 8V56C76 60.4183 72.4183 64 68 64H20C15.5817 64 12 60.4183 12 56V8Z" fill="url(#paint4_linear_1146_36381)"/>
<rect x="34.0006" y="13.1998" width="20" height="37.6" rx="2.8" stroke="black" stroke-width="0.8"/>
<path d="M34.0001 45.1998H54.0001V47.9998C54.0001 49.5462 52.7465 50.7998 51.2001 50.7998H36.8001C35.2537 50.7998 34.0001 49.5462 34.0001 47.9998V45.1998Z" stroke="black" stroke-width="0.8"/>
<path d="M53.9999 17.1996L33.9999 17.1996L33.9999 15.9996C33.9999 14.4532 35.2535 13.1996 36.7999 13.1996L51.1999 13.1996C52.7463 13.1996 53.9999 14.4532 53.9999 15.9996L53.9999 17.1996Z" stroke="black" stroke-width="0.8"/>
<circle cx="43.9999" cy="48.0004" r="1.2" stroke="black" stroke-width="0.8"/>
<rect x="35" y="18.2002" width="18" height="26" rx="0.8" fill="#FF85C0"/>
<path d="M77 157H76V159H77V157ZM164 159C164.552 159 165 158.552 165 158C165 157.448 164.552 157 164 157V159ZM80.1071 159C80.6594 159 81.1071 158.552 81.1071 158C81.1071 157.448 80.6594 157 80.1071 157V159ZM86.3214 157C85.7691 157 85.3214 157.448 85.3214 158C85.3214 158.552 85.7691 159 86.3214 159V157ZM92.5357 159C93.088 159 93.5357 158.552 93.5357 158C93.5357 157.448 93.088 157 92.5357 157V159ZM98.75 157C98.1977 157 97.75 157.448 97.75 158C97.75 158.552 98.1977 159 98.75 159V157ZM104.964 159C105.517 159 105.964 158.552 105.964 158C105.964 157.448 105.517 157 104.964 157V159ZM111.179 157C110.626 157 110.179 157.448 110.179 158C110.179 158.552 110.626 159 111.179 159V157ZM117.393 159C117.945 159 118.393 158.552 118.393 158C118.393 157.448 117.945 157 117.393 157V159ZM123.607 157C123.055 157 122.607 157.448 122.607 158C122.607 158.552 123.055 159 123.607 159V157ZM129.821 159C130.374 159 130.821 158.552 130.821 158C130.821 157.448 130.374 157 129.821 157V159ZM136.036 157C135.483 157 135.036 157.448 135.036 158C135.036 158.552 135.483 159 136.036 159V157ZM142.25 159C142.802 159 143.25 158.552 143.25 158C143.25 157.448 142.802 157 142.25 157V159ZM148.464 157C147.912 157 147.464 157.448 147.464 158C147.464 158.552 147.912 159 148.464 159V157ZM154.679 159C155.231 159 155.679 158.552 155.679 158C155.679 157.448 155.231 157 154.679 157V159ZM160.893 157C160.341 157 159.893 157.448 159.893 158C159.893 158.552 160.341 159 160.893 159V157ZM77 159H80.1071V157H77V159ZM86.3214 159H92.5357V157H86.3214V159ZM98.75 159H104.964V157H98.75V159ZM111.179 159H117.393V157H111.179V159ZM123.607 159H129.821V157H123.607V159ZM136.036 159H142.25V157H136.036V159ZM148.464 159H154.679V157H148.464V159ZM160.893 159H164V157H160.893V159Z" fill="#FF85C0"/>
<path d="M126 157H125V159H126V157ZM213 159H214V157H213V159ZM129.107 159C129.659 159 130.107 158.552 130.107 158C130.107 157.448 129.659 157 129.107 157V159ZM135.321 157C134.769 157 134.321 157.448 134.321 158C134.321 158.552 134.769 159 135.321 159V157ZM141.536 159C142.088 159 142.536 158.552 142.536 158C142.536 157.448 142.088 157 141.536 157V159ZM147.75 157C147.198 157 146.75 157.448 146.75 158C146.75 158.552 147.198 159 147.75 159V157ZM153.964 159C154.517 159 154.964 158.552 154.964 158C154.964 157.448 154.517 157 153.964 157V159ZM160.179 157C159.626 157 159.179 157.448 159.179 158C159.179 158.552 159.626 159 160.179 159V157ZM166.393 159C166.945 159 167.393 158.552 167.393 158C167.393 157.448 166.945 157 166.393 157V159ZM172.607 157C172.055 157 171.607 157.448 171.607 158C171.607 158.552 172.055 159 172.607 159V157ZM178.821 159C179.374 159 179.821 158.552 179.821 158C179.821 157.448 179.374 157 178.821 157V159ZM185.036 157C184.483 157 184.036 157.448 184.036 158C184.036 158.552 184.483 159 185.036 159V157ZM191.25 159C191.802 159 192.25 158.552 192.25 158C192.25 157.448 191.802 157 191.25 157V159ZM197.464 157C196.912 157 196.464 157.448 196.464 158C196.464 158.552 196.912 159 197.464 159V157ZM203.679 159C204.231 159 204.679 158.552 204.679 158C204.679 157.448 204.231 157 203.679 157V159ZM209.893 157C209.341 157 208.893 157.448 208.893 158C208.893 158.552 209.341 159 209.893 159V157ZM126 159H129.107V157H126V159ZM135.321 159H141.536V157H135.321V159ZM147.75 159H153.964V157H147.75V159ZM160.179 159H166.393V157H160.179V159ZM172.607 159H178.821V157H172.607V159ZM185.036 159H191.25V157H185.036V159ZM197.464 159H203.679V157H197.464V159ZM209.893 159H213V157H209.893V159Z" fill="#262626"/>
<path d="M166 158C166 146.954 157.046 138 146 138C134.954 138 126 146.954 126 158C126 169.046 134.954 178 146 178C157.046 178 166 169.046 166 158Z" fill="#262626"/>
<path fill-rule="evenodd" clip-rule="evenodd" d="M153.636 151.779C153.831 151.974 153.831 152.29 153.636 152.486L148.121 158.001C148.043 158.079 148.043 158.206 148.121 158.284L153.636 163.799C153.831 163.995 153.831 164.311 153.636 164.507L152.222 165.921C152.027 166.116 151.71 166.116 151.515 165.921L145.999 160.405C145.921 160.327 145.795 160.327 145.716 160.405L140.201 165.921C140.006 166.116 139.689 166.116 139.494 165.921L138.08 164.507C137.884 164.311 137.884 163.995 138.08 163.799L143.595 158.284C143.673 158.206 143.673 158.079 143.595 158.001L138.08 152.486C137.884 152.29 137.884 151.974 138.08 151.779L139.494 150.364C139.689 150.169 140.006 150.169 140.201 150.364L145.716 155.88C145.795 155.958 145.921 155.958 145.999 155.88L151.515 150.364C151.71 150.169 152.027 150.169 152.222 150.364L153.636 151.779Z" fill="#FF4D4F"/>
<path d="M146 177C156.493 177 165 168.493 165 158H167C167 169.598 157.598 179 146 179V177ZM127 158C127 168.493 135.507 177 146 177V179C134.402 179 125 169.598 125 158H127ZM146 139C135.507 139 127 147.507 127 158H125C125 146.402 134.402 137 146 137V139ZM146 137C157.598 137 167 146.402 167 158H165C165 147.507 156.493 139 146 139V137Z" fill="#FF85C0"/>
<path d="M126 244C126 232.954 134.954 224 146 224C157.046 224 166 232.954 166 244C166 255.046 157.046 264 146 264C134.954 264 126 255.046 126 244Z" fill="#262626"/>
<path fill-rule="evenodd" clip-rule="evenodd" d="M137.475 243.374C137.28 243.179 136.964 243.179 136.768 243.374L135.354 244.789C135.159 244.984 135.159 245.3 135.354 245.496L141.364 251.505C141.364 251.506 141.364 251.506 141.364 251.506C141.364 251.506 141.364 251.506 141.364 251.506L143.485 253.627C143.485 253.627 143.485 253.627 143.485 253.627L143.485 253.627C143.485 253.627 143.485 253.627 143.486 253.627C143.486 253.627 143.486 253.627 143.486 253.627L145.607 251.506C145.607 251.506 145.607 251.506 145.607 251.506C145.607 251.506 145.607 251.506 145.607 251.505L157.273 239.839C157.469 239.644 157.469 239.327 157.273 239.132L155.859 237.718C155.664 237.522 155.347 237.522 155.152 237.718L143.839 249.031C143.644 249.226 143.327 249.226 143.132 249.031L137.475 243.374Z" fill="#5CDBD3"/>
<path d="M146 263C135.507 263 127 254.493 127 244H125C125 255.598 134.402 265 146 265V263ZM165 244C165 254.493 156.493 263 146 263V265C157.598 265 167 255.598 167 244H165ZM146 225C156.493 225 165 233.507 165 244H167C167 232.402 157.598 223 146 223V225ZM146 223C134.402 223 125 232.402 125 244H127C127 233.507 135.507 225 146 225V223Z" fill="#FF85C0"/>
<path d="M126 72C126 60.9543 134.954 52 146 52C157.046 52 166 60.9543 166 72C166 83.0457 157.046 92 146 92C134.954 92 126 83.0457 126 72Z" fill="#262626"/>
<path fill-rule="evenodd" clip-rule="evenodd" d="M137.475 71.3743C137.28 71.1791 136.964 71.1791 136.768 71.3743L135.354 72.7885C135.159 72.9838 135.159 73.3004 135.354 73.4956L141.364 79.5054C141.364 79.5055 141.364 79.5057 141.364 79.5059C141.364 79.506 141.364 79.5062 141.364 79.5064L143.485 81.6272C143.485 81.6273 143.485 81.6273 143.485 81.6272L143.485 81.6272C143.485 81.627 143.485 81.627 143.486 81.6272C143.486 81.6273 143.486 81.6273 143.486 81.6272L145.607 79.5063C145.607 79.5061 145.607 79.506 145.607 79.5058C145.607 79.5057 145.607 79.5055 145.607 79.5054L157.273 67.8389C157.469 67.6436 157.469 67.327 157.273 67.1318L155.859 65.7175C155.664 65.5223 155.347 65.5223 155.152 65.7175L143.839 77.0308C143.644 77.226 143.327 77.226 143.132 77.0308L137.475 71.3743Z" fill="#36CFC9"/>
<path d="M146 91C135.507 91 127 82.4934 127 72H125C125 83.598 134.402 93 146 93V91ZM165 72C165 82.4934 156.493 91 146 91V93C157.598 93 167 83.598 167 72H165ZM146 53C156.493 53 165 61.5066 165 72H167C167 60.402 157.598 51 146 51V53ZM146 51C134.402 51 125 60.402 125 72H127C127 61.5066 135.507 53 146 53V51Z" fill="#FF85C0"/>
<defs>
<linearGradient id="paint0_linear_1146_36381" x1="270" y1="148" x2="270" y2="228" gradientUnits="userSpaceOnUse">
<stop stop-color="#FFD6E7"/>
<stop offset="1" stop-color="#F759AB"/>
</linearGradient>
<linearGradient id="paint1_linear_1146_36381" x1="44" y1="260" x2="44" y2="308" gradientUnits="userSpaceOnUse">
<stop stop-color="#577C7D"/>
<stop offset="1" stop-color="#1A6A6C"/>
</linearGradient>
<linearGradient id="paint2_linear_1146_36381" x1="44.0006" y1="260" x2="44.0006" y2="308" gradientUnits="userSpaceOnUse">
<stop stop-color="#E6FFFB"/>
<stop offset="1" stop-color="#B5F5EC"/>
</linearGradient>
<linearGradient id="paint3_linear_1146_36381" x1="44" y1="126" x2="44" y2="190" gradientUnits="userSpaceOnUse">
<stop stop-color="#FFD6E7"/>
<stop offset="1" stop-color="#FF85C0"/>
</linearGradient>
<linearGradient id="paint4_linear_1146_36381" x1="44" y1="0" x2="44" y2="64" gradientUnits="userSpaceOnUse">
<stop stop-color="#FFD6E7"/>
<stop offset="1" stop-color="#FF85C0"/>
</linearGradient>
</defs>
</svg>

