<svg width="904" height="268" viewBox="0 0 904 268" fill="none" xmlns="http://www.w3.org/2000/svg">
<path d="M95.1493 212.5C95.4255 212.5 95.6493 212.276 95.6493 212C95.6493 211.724 95.4255 211.5 95.1493 211.5V212.5ZM101.448 211.5C101.172 211.5 100.948 211.724 100.948 212C100.948 212.276 101.172 212.5 101.448 212.5V211.5ZM107.747 212.5C108.023 212.5 108.247 212.276 108.247 212C108.247 211.724 108.023 211.5 107.747 211.5V212.5ZM114.045 211.5C113.769 211.5 113.545 211.724 113.545 212C113.545 212.276 113.769 212.5 114.045 212.5V211.5ZM120.344 212.5C120.62 212.5 120.844 212.276 120.844 212C120.844 211.724 120.62 211.5 120.344 211.5V212.5ZM126.643 211.5C126.367 211.5 126.143 211.724 126.143 212C126.143 212.276 126.367 212.5 126.643 212.5V211.5ZM132.941 212.5C133.218 212.5 133.441 212.276 133.441 212C133.441 211.724 133.218 211.5 132.941 211.5V212.5ZM139.24 211.5C138.964 211.5 138.74 211.724 138.74 212C138.74 212.276 138.964 212.5 139.24 212.5V211.5ZM144.112 212.158C144.367 212.053 144.488 211.76 144.382 211.505C144.277 211.25 143.984 211.129 143.729 211.235L144.112 212.158ZM145.624 209.34C145.518 209.595 145.639 209.887 145.894 209.993C146.149 210.099 146.442 209.978 146.548 209.723L145.624 209.34ZM146.889 205C146.889 204.724 146.666 204.5 146.389 204.5C146.113 204.5 145.889 204.724 145.889 205H146.889ZM145.889 199C145.889 199.276 146.113 199.5 146.389 199.5C146.666 199.5 146.889 199.276 146.889 199H145.889ZM146.889 193C146.889 192.724 146.666 192.5 146.389 192.5C146.113 192.5 145.889 192.724 145.889 193H146.889ZM145.889 187C145.889 187.276 146.113 187.5 146.389 187.5C146.666 187.5 146.889 187.276 146.889 187H145.889ZM146.889 181C146.889 180.724 146.666 180.5 146.389 180.5C146.113 180.5 145.889 180.724 145.889 181H146.889ZM145.889 175C145.889 175.276 146.113 175.5 146.389 175.5C146.666 175.5 146.889 175.276 146.889 175H145.889ZM146.889 169C146.889 168.724 146.666 168.5 146.389 168.5C146.113 168.5 145.889 168.724 145.889 169H146.889ZM145.889 163C145.889 163.276 146.113 163.5 146.389 163.5C146.666 163.5 146.889 163.276 146.889 163H145.889ZM146.889 157C146.889 156.724 146.666 156.5 146.389 156.5C146.113 156.5 145.889 156.724 145.889 157H146.889ZM145.889 151C145.889 151.276 146.113 151.5 146.389 151.5C146.666 151.5 146.889 151.276 146.889 151H145.889ZM146.889 145C146.889 144.724 146.666 144.5 146.389 144.5C146.113 144.5 145.889 144.724 145.889 145H146.889ZM145.889 139C145.889 139.276 146.113 139.5 146.389 139.5C146.666 139.5 146.889 139.276 146.889 139H145.889ZM147.155 134.66C147.261 134.405 147.14 134.113 146.884 134.007C146.629 133.901 146.337 134.022 146.231 134.277L147.155 134.66ZM148.667 131.842C148.412 131.947 148.291 132.24 148.396 132.495C148.502 132.75 148.795 132.871 149.05 132.765L148.667 131.842ZM153.57 132.5C153.846 132.5 154.07 132.276 154.07 132C154.07 131.724 153.846 131.5 153.57 131.5V132.5ZM159.931 131.5C159.655 131.5 159.431 131.724 159.431 132C159.431 132.276 159.655 132.5 159.931 132.5V131.5ZM166.292 132.5C166.568 132.5 166.792 132.276 166.792 132C166.792 131.724 166.568 131.5 166.292 131.5V132.5ZM172.653 131.5C172.377 131.5 172.153 131.724 172.153 132C172.153 132.276 172.377 132.5 172.653 132.5V131.5ZM179.014 132.5C179.29 132.5 179.514 132.276 179.514 132C179.514 131.724 179.29 131.5 179.014 131.5V132.5ZM185.375 131.5C185.099 131.5 184.875 131.724 184.875 132C184.875 132.276 185.099 132.5 185.375 132.5V131.5ZM191.736 132.5C192.012 132.5 192.236 132.276 192.236 132C192.236 131.724 192.012 131.5 191.736 131.5V132.5ZM198.097 131.5C197.821 131.5 197.597 131.724 197.597 132C197.597 132.276 197.821 132.5 198.097 132.5V131.5ZM204.458 132.5C204.735 132.5 204.958 132.276 204.958 132C204.958 131.724 204.735 131.5 204.458 131.5V132.5ZM210.819 131.5C210.543 131.5 210.319 131.724 210.319 132C210.319 132.276 210.543 132.5 210.819 132.5V131.5ZM92 212.5H95.1493V211.5H92V212.5ZM101.448 212.5H107.747V211.5H101.448V212.5ZM114.045 212.5H120.344V211.5H114.045V212.5ZM126.643 212.5H132.941V211.5H126.643V212.5ZM139.24 212.5H142.389V211.5H139.24V212.5ZM142.389 212.5C142.999 212.5 143.581 212.379 144.112 212.158L143.729 211.235C143.317 211.405 142.865 211.5 142.389 211.5V212.5ZM146.548 209.723C146.768 209.191 146.889 208.609 146.889 208H145.889C145.889 208.475 145.795 208.928 145.624 209.34L146.548 209.723ZM146.889 208V205H145.889V208H146.889ZM146.889 199V193H145.889V199H146.889ZM146.889 187V181H145.889V187H146.889ZM146.889 175V169H145.889V175H146.889ZM146.889 163V157H145.889V163H146.889ZM146.889 151V145H145.889V151H146.889ZM146.889 139V136H145.889V139H146.889ZM146.889 136C146.889 135.525 146.984 135.072 147.155 134.66L146.231 134.277C146.011 134.809 145.889 135.391 145.889 136H146.889ZM149.05 132.765C149.462 132.595 149.914 132.5 150.389 132.5V131.5C149.78 131.5 149.198 131.621 148.667 131.842L149.05 132.765ZM150.389 132.5H153.57V131.5H150.389V132.5ZM159.931 132.5H166.292V131.5H159.931V132.5ZM172.653 132.5H179.014V131.5H172.653V132.5ZM185.375 132.5H191.736V131.5H185.375V132.5ZM198.097 132.5H204.458V131.5H198.097V132.5ZM210.819 132.5H214V131.5H210.819V132.5Z" fill="#F0F0F0"/>
<path d="M653.351 212.5C653.075 212.5 652.851 212.276 652.851 212C652.851 211.724 653.075 211.5 653.351 211.5V212.5ZM648.052 211.5C648.328 211.5 648.552 211.724 648.552 212C648.552 212.276 648.328 212.5 648.052 212.5V211.5ZM642.753 212.5C642.477 212.5 642.253 212.276 642.253 212C642.253 211.724 642.477 211.5 642.753 211.5V212.5ZM637.455 211.5C637.731 211.5 637.955 211.724 637.955 212C637.955 212.276 637.731 212.5 637.455 212.5V211.5ZM632.156 212.5C631.88 212.5 631.656 212.276 631.656 212C631.656 211.724 631.88 211.5 632.156 211.5V212.5ZM626.857 211.5C627.133 211.5 627.357 211.724 627.357 212C627.357 212.276 627.133 212.5 626.857 212.5V211.5ZM621.559 212.5C621.282 212.5 621.059 212.276 621.059 212C621.059 211.724 621.282 211.5 621.559 211.5V212.5ZM616.26 211.5C616.536 211.5 616.76 211.724 616.76 212C616.76 212.276 616.536 212.5 616.26 212.5V211.5ZM611.172 212.262C610.901 212.208 610.725 211.945 610.778 211.675C610.832 211.404 611.095 211.228 611.366 211.281L611.172 212.262ZM607.221 209.563C607.451 209.717 607.512 210.027 607.359 210.257C607.205 210.486 606.894 210.548 606.665 210.394L607.221 209.563ZM603.216 206.946C603.063 206.716 603.124 206.406 603.354 206.252C603.583 206.098 603.894 206.16 604.047 206.389L603.216 206.946ZM602.329 202.245C602.383 202.516 602.207 202.779 601.936 202.832C601.665 202.886 601.402 202.71 601.348 202.439L602.329 202.245ZM601.111 197.2C601.111 196.924 601.334 196.7 601.611 196.7C601.887 196.7 602.111 196.924 602.111 197.2H601.111ZM602.111 191.6C602.111 191.876 601.887 192.1 601.611 192.1C601.334 192.1 601.111 191.876 601.111 191.6H602.111ZM601.111 186C601.111 185.724 601.334 185.5 601.611 185.5C601.887 185.5 602.111 185.724 602.111 186H601.111ZM602.111 180.4C602.111 180.676 601.887 180.9 601.611 180.9C601.334 180.9 601.111 180.676 601.111 180.4H602.111ZM601.111 174.8C601.111 174.524 601.334 174.3 601.611 174.3C601.887 174.3 602.111 174.524 602.111 174.8H601.111ZM602.111 169.2C602.111 169.476 601.887 169.7 601.611 169.7C601.334 169.7 601.111 169.476 601.111 169.2H602.111ZM601.111 163.6C601.111 163.324 601.334 163.1 601.611 163.1C601.887 163.1 602.111 163.324 602.111 163.6H601.111ZM602.111 158C602.111 158.276 601.887 158.5 601.611 158.5C601.334 158.5 601.111 158.276 601.111 158H602.111ZM601.111 152.4C601.111 152.124 601.334 151.9 601.611 151.9C601.887 151.9 602.111 152.124 602.111 152.4H601.111ZM602.111 146.8C602.111 147.076 601.887 147.3 601.611 147.3C601.334 147.3 601.111 147.076 601.111 146.8H602.111ZM600.892 141.755C600.838 141.484 601.014 141.221 601.285 141.168C601.556 141.114 601.819 141.29 601.873 141.561L600.892 141.755ZM600.005 137.054C600.158 137.284 600.097 137.594 599.868 137.748C599.638 137.902 599.327 137.84 599.174 137.611L600.005 137.054ZM596 134.437C595.77 134.283 595.709 133.973 595.862 133.743C596.016 133.514 596.327 133.452 596.556 133.606L596 134.437ZM592.05 131.738C592.32 131.792 592.497 132.055 592.443 132.325C592.389 132.596 592.126 132.772 591.855 132.719L592.05 131.738ZM586.83 132.5C586.554 132.5 586.33 132.276 586.33 132C586.33 131.724 586.554 131.5 586.83 131.5V132.5ZM581.269 131.5C581.545 131.5 581.769 131.724 581.769 132C581.769 132.276 581.545 132.5 581.269 132.5V131.5ZM575.708 132.5C575.432 132.5 575.208 132.276 575.208 132C575.208 131.724 575.432 131.5 575.708 131.5V132.5ZM570.147 131.5C570.423 131.5 570.647 131.724 570.647 132C570.647 132.276 570.423 132.5 570.147 132.5V131.5ZM564.586 132.5C564.31 132.5 564.086 132.276 564.086 132C564.086 131.724 564.31 131.5 564.586 131.5V132.5ZM559.025 131.5C559.301 131.5 559.525 131.724 559.525 132C559.525 132.276 559.301 132.5 559.025 132.5V131.5ZM553.464 132.5C553.188 132.5 552.964 132.276 552.964 132C552.964 131.724 553.188 131.5 553.464 131.5V132.5ZM547.903 131.5C548.179 131.5 548.403 131.724 548.403 132C548.403 132.276 548.179 132.5 547.903 132.5V131.5ZM542.342 132.5C542.065 132.5 541.842 132.276 541.842 132C541.842 131.724 542.065 131.5 542.342 131.5V132.5ZM536.781 131.5C537.057 131.5 537.281 131.724 537.281 132C537.281 132.276 537.057 132.5 536.781 132.5V131.5ZM656 212.5H653.351V211.5H656V212.5ZM648.052 212.5H642.753V211.5H648.052V212.5ZM637.455 212.5H632.156V211.5H637.455V212.5ZM626.857 212.5H621.559V211.5H626.857V212.5ZM616.26 212.5H613.611V211.5H616.26V212.5ZM613.611 212.5C612.776 212.5 611.961 212.418 611.172 212.262L611.366 211.281C612.091 211.425 612.842 211.5 613.611 211.5V212.5ZM606.665 210.394C605.302 209.482 604.129 208.308 603.216 206.946L604.047 206.389C604.887 207.644 605.967 208.724 607.221 209.563L606.665 210.394ZM601.348 202.439C601.192 201.65 601.111 200.834 601.111 200H602.111C602.111 200.769 602.186 201.519 602.329 202.245L601.348 202.439ZM601.111 200V197.2H602.111V200H601.111ZM601.111 191.6V186H602.111V191.6H601.111ZM601.111 180.4V174.8H602.111V180.4H601.111ZM601.111 169.2V163.6H602.111V169.2H601.111ZM601.111 158V152.4H602.111V158H601.111ZM601.111 146.8V144H602.111V146.8H601.111ZM601.111 144C601.111 143.231 601.035 142.481 600.892 141.755L601.873 141.561C602.029 142.35 602.111 143.166 602.111 144H601.111ZM599.174 137.611C598.334 136.356 597.254 135.276 596 134.437L596.556 133.606C597.919 134.518 599.092 135.692 600.005 137.054L599.174 137.611ZM591.855 132.719C591.13 132.575 590.379 132.5 589.611 132.5V131.5C590.445 131.5 591.26 131.582 592.05 131.738L591.855 132.719ZM589.611 132.5H586.83V131.5H589.611V132.5ZM581.269 132.5H575.708V131.5H581.269V132.5ZM570.147 132.5H564.586V131.5H570.147V132.5ZM559.025 132.5H553.464V131.5H559.025V132.5ZM547.903 132.5H542.342V131.5H547.903V132.5ZM536.781 132.5H534V131.5H536.781V132.5Z" fill="#F0F0F0"/>
<path d="M534 123H535.938C537.308 123 538.672 123.168 540 123.5V123.5C541.328 123.832 542.692 124 544.062 124H590C601.046 124 610 132.954 610 144V172" stroke="#262626" stroke-width="2"/>
<path d="M656 220L653.582 220C652.529 220 651.478 219.913 650.439 219.74V219.74C649.481 219.58 648.512 219.494 647.541 219.481L610 219V219C601.163 219 594 211.837 594 203L594 164" stroke="#262626" stroke-width="2"/>
<path d="M534 141H536.769C537.587 141 538.401 140.9 539.194 140.701L540.806 140.299C541.599 140.1 542.413 140 543.231 140H584C589.523 140 594 144.477 594 150V170" stroke="#262626" stroke-width="2"/>
<path d="M656 203L653.231 203C652.413 203 651.599 203.1 650.806 203.299L649.194 203.701C648.401 203.9 647.587 204 646.769 204L620 204C614.477 204 610 199.523 610 194L610 157" stroke="#262626" stroke-width="2"/>
<rect x="214.5" y="0.5" width="319" height="171" rx="15.5" fill="black" stroke="#262626"/>
<rect x="218" y="4" width="312" height="164" rx="12" fill="#262626" fill-opacity="0.48"/>
<rect x="656.5" y="96.5" width="247" height="171" rx="15.5" fill="black" stroke="#262626"/>
<rect x="660" y="100" width="240" height="164" rx="12" fill="#262626" fill-opacity="0.48"/>
<path fill-rule="evenodd" clip-rule="evenodd" d="M376.941 118.941C383.19 112.692 383.19 102.562 376.941 96.3132C370.693 90.0649 360.562 90.0649 354.314 96.3132C348.065 102.562 348.065 112.692 354.314 118.941C360.562 125.189 370.693 125.189 376.941 118.941ZM380.477 123.89C379.696 124.671 379.696 125.938 380.477 126.719L391.083 137.325C391.474 137.716 392.107 137.716 392.497 137.325L395.326 134.497C395.716 134.106 395.716 133.473 395.326 133.083L384.719 122.476C383.938 121.695 382.672 121.695 381.891 122.476L380.477 123.89Z" fill="url(#paint0_linear_1146_36381)"/>
<path fill-rule="evenodd" clip-rule="evenodd" d="M376.234 97.0204C382.092 102.878 382.092 112.376 376.234 118.234C370.376 124.091 360.879 124.091 355.021 118.234C349.163 112.376 349.163 102.878 355.021 97.0204C360.879 91.1625 370.376 91.1625 376.234 97.0204ZM377.289 118.582C383.187 112.31 383.071 102.443 376.941 96.3132C370.693 90.0649 360.562 90.0649 354.314 96.3132C348.065 102.562 348.065 112.692 354.314 118.941C360.444 125.071 370.311 125.187 376.582 119.289L380.83 123.537L380.477 123.89C379.696 124.671 379.696 125.938 380.477 126.719L391.083 137.325C391.474 137.716 392.107 137.716 392.497 137.325L395.326 134.497C395.716 134.106 395.716 133.473 395.326 133.083L384.719 122.476C383.938 121.695 382.672 121.695 381.891 122.476L381.537 122.83L377.289 118.582ZM358.91 99.4952C362.62 95.7852 368.635 95.7852 372.345 99.4952C372.54 99.6905 372.857 99.6905 373.052 99.4952C373.247 99.3 373.247 98.9834 373.052 98.7881C368.952 94.6876 362.303 94.6876 358.203 98.7881C358.008 98.9834 358.008 99.3 358.203 99.4952C358.398 99.6905 358.715 99.6905 358.91 99.4952ZM381.184 124.598C380.793 124.988 380.793 125.621 381.184 126.012L391.79 136.618L394.619 133.79L384.012 123.183C383.622 122.793 382.989 122.793 382.598 123.183L381.184 124.598Z" fill="url(#paint1_linear_1146_36381)"/>
<path fill-rule="evenodd" clip-rule="evenodd" d="M492 95C492 94.4477 492.448 94 493 94H503C503.552 94 504 94.4477 504 95V105C504 105.552 503.552 106 503 106H493C492.448 106 492 105.552 492 105V95ZM451 108C450.448 108 450 108.448 450 109V123C450 123.552 450.448 124 451 124H465C465.552 124 466 123.552 466 123V109C466 108.448 465.552 108 465 108H451ZM493 126C492.448 126 492 126.448 492 127V137C492 137.552 492.448 138 493 138H503C503.552 138 504 137.552 504 137V127C504 126.448 503.552 126 503 126H493ZM493 110C492.448 110 492 110.448 492 111V121C492 121.552 492.448 122 493 122H503C503.552 122 504 121.552 504 121V111C504 110.448 503.552 110 503 110H493Z" fill="url(#paint2_linear_1146_36381)"/>
<path fill-rule="evenodd" clip-rule="evenodd" d="M503 95H493V105H503V95ZM493 94C492.448 94 492 94.4477 492 95V105C492 105.552 492.448 106 493 106H503C503.552 106 504 105.552 504 105V95C504 94.4477 503.552 94 503 94H493ZM489.85 99.6463L486.668 96.4643C486.473 96.2691 486.156 96.2691 485.961 96.4643C485.766 96.6596 485.766 96.9762 485.961 97.1714L488.289 99.4999H475C474.172 99.4999 473.5 100.171 473.5 101V115.5H466V109C466 108.448 465.552 108 465 108H451C450.448 108 450 108.448 450 109V123C450 123.552 450.448 124 451 124H465C465.552 124 466 123.552 466 123V116.5H473.5V131C473.5 131.828 474.172 132.5 475 132.5H488.793L486.464 134.828C486.269 135.024 486.269 135.34 486.464 135.535C486.66 135.731 486.976 135.731 487.172 135.535L490.354 132.353C490.549 132.158 490.549 131.842 490.354 131.646L487.172 128.464C486.976 128.269 486.66 128.269 486.464 128.464C486.269 128.66 486.269 128.976 486.464 129.171L488.793 131.5H475C474.724 131.5 474.5 131.276 474.5 131V116.5H488.793L486.464 118.828C486.269 119.024 486.269 119.34 486.464 119.535C486.66 119.731 486.976 119.731 487.172 119.535L490.354 116.353C490.549 116.158 490.549 115.842 490.354 115.646L487.172 112.464C486.976 112.269 486.66 112.269 486.464 112.464C486.269 112.66 486.269 112.976 486.464 113.171L488.793 115.5H474.5V101C474.5 100.724 474.724 100.5 475 100.5H488.289L485.961 102.828C485.766 103.024 485.766 103.34 485.961 103.535C486.156 103.731 486.473 103.731 486.668 103.535L489.85 100.353C490.045 100.158 490.045 99.8416 489.85 99.6463ZM465 109H451V123H465V109ZM493 127H503V137H493V127ZM492 127C492 126.448 492.448 126 493 126H503C503.552 126 504 126.448 504 127V137C504 137.552 503.552 138 503 138H493C492.448 138 492 137.552 492 137V127ZM493 111H503V121H493V111ZM492 111C492 110.448 492.448 110 493 110H503C503.552 110 504 110.448 504 111V121C504 121.552 503.552 122 503 122H493C492.448 122 492 121.552 492 121V111Z" fill="url(#paint3_linear_1146_36381)"/>
<path fill-rule="evenodd" clip-rule="evenodd" d="M250 111C250 107.686 252.686 105 256 105H284C287.314 105 290 107.686 290 111V135C290 138.314 287.314 141 284 141H256C252.686 141 250 138.314 250 135V111Z" fill="url(#paint4_linear_1146_36381)"/>
<path fill-rule="evenodd" clip-rule="evenodd" d="M270 90.5C263.096 90.5 257.5 96.0964 257.5 103V105H256C252.686 105 250 107.686 250 111V135C250 138.314 252.686 141 256 141H284C287.314 141 290 138.314 290 135V111C290 107.686 287.314 105 284 105H282.5V103C282.5 96.0964 276.904 90.5 270 90.5ZM281.5 106V111H282.5V106H284C286.761 106 289 108.239 289 111C289 113.761 286.761 116 284 116H256C253.239 116 251 113.761 251 111C251 108.239 253.239 106 256 106H257.5V111H258.5V106H281.5ZM281.5 105V103C281.5 96.6487 276.351 91.5 270 91.5C263.649 91.5 258.5 96.6487 258.5 103V105H281.5ZM289 135V114.318C287.925 115.934 286.087 117 284 117H256C253.913 117 252.075 115.934 251 114.318V135C251 137.761 253.239 140 256 140H284C286.761 140 289 137.761 289 135Z" fill="url(#paint5_linear_1146_36381)"/>
<path d="M4 180C4 175.582 7.58172 172 12 172H76C80.4183 172 84 175.582 84 180V244C84 248.418 80.4183 252 76 252H12C7.58172 252 4 248.418 4 244V180Z" fill="black"/>
<circle cx="44" cy="212" r="24" fill="url(#paint6_linear_1146_36381)"/>
<mask id="mask0_1146_36381" style="mask-type:alpha" maskUnits="userSpaceOnUse" x="20" y="188" width="48" height="48">
<path d="M20 212C20 198.745 30.7452 188 44 188C57.2548 188 68 198.745 68 212C68 225.255 57.2548 236 44 236C30.7452 236 20 225.255 20 212Z" fill="white"/>
</mask>
<g mask="url(#mask0_1146_36381)">
<path fill-rule="evenodd" clip-rule="evenodd" d="M4.86127 175.008C2.88753 170.125 1.80078 164.79 1.80078 159.2C1.80078 135.894 20.6944 117 44.0008 117C67.3072 117 86.2008 135.894 86.2008 159.2C86.2008 164.79 85.114 170.126 83.1403 175.008C79.8505 174.09 76.3828 173.6 72.8004 173.6C61.3315 173.6 51.0368 178.628 44.0006 186.599C36.9643 178.628 26.6697 173.6 15.2008 173.6C11.6185 173.6 8.15087 174.09 4.86127 175.008ZM87.2008 159.2C87.2008 164.887 86.1018 170.318 84.1047 175.291C99.7953 180.117 111.2 194.726 111.2 212C111.2 229.273 99.7952 243.883 84.1046 248.709C86.1018 253.682 87.2008 259.112 87.2008 264.8C87.2008 288.658 67.8595 308 44.0008 308C20.1421 308 0.800781 288.658 0.800781 264.8C0.800781 259.112 1.89976 253.682 3.89693 248.709C-11.7939 243.883 -23.1992 229.273 -23.1992 212C-23.1992 194.726 -11.7939 180.116 3.8968 175.29C1.89971 170.317 0.800781 164.887 0.800781 159.2C0.800781 135.341 20.1421 116 44.0008 116C67.8595 116 87.2008 135.341 87.2008 159.2ZM4.86141 248.992C2.88758 253.874 1.80078 259.21 1.80078 264.8C1.80078 288.106 20.6944 307 44.0008 307C67.3072 307 86.2008 288.106 86.2008 264.8C86.2008 259.21 85.114 253.874 83.1401 248.992C79.8504 249.909 76.3827 250.4 72.8004 250.4C61.3314 250.4 51.0368 245.372 44.0006 237.4C36.9643 245.372 26.6697 250.4 15.2008 250.4C11.6186 250.4 8.15097 249.909 4.86141 248.992ZM83.7192 247.781C99.0481 243.109 110.2 228.857 110.2 212C110.2 195.143 99.0482 180.89 83.7193 176.219C79.6955 185.597 72.4471 193.264 63.369 197.825C66.2806 201.797 68 206.698 68 212C68 217.302 66.2807 222.202 63.3692 226.174C72.4471 230.735 79.6954 238.402 83.7192 247.781ZM62.7498 226.983C71.6609 231.409 78.7853 238.893 82.751 248.061C79.5827 248.934 76.2459 249.4 72.8004 249.4C61.5802 249.4 51.514 244.459 44.6589 236.634C44.8423 236.415 45.0233 236.194 45.2019 235.97C52.2991 235.62 58.5854 232.187 62.7498 226.983ZM62.4552 225.728C65.2175 222.021 66.889 217.453 66.9947 212.5H53.5976C53.5539 215.917 53.0639 219.227 52.1831 222.373C55.7863 223.064 59.2303 224.203 62.4552 225.728ZM51.8995 223.338C55.3776 223.996 58.7047 225.082 61.8242 226.537C58.0057 231.214 52.3833 234.359 46.0186 234.913C48.5927 231.456 50.599 227.552 51.8995 223.338ZM51.194 222.196C52.0671 219.108 52.5535 215.857 52.5975 212.5H35.4037C35.4477 215.857 35.9341 219.108 36.8071 222.196C39.1466 221.804 41.5499 221.6 44.0008 221.6C46.4516 221.6 48.8547 221.804 51.194 222.196ZM37.0945 223.162C39.3417 222.792 41.6488 222.6 44.0008 222.6C46.3526 222.6 48.6596 222.792 50.9067 223.162C49.5531 227.496 47.432 231.492 44.7025 234.989C44.4692 234.996 44.235 235 44 235C43.7654 235 43.5316 234.996 43.2987 234.99C40.5692 231.492 38.4481 227.496 37.0945 223.162ZM35.8181 222.374C34.9373 219.227 34.4472 215.917 34.4036 212.5H21.0053C21.111 217.454 22.7827 222.022 25.5452 225.729C28.7703 224.203 32.2146 223.064 35.8181 222.374ZM26.1762 226.538C29.296 225.082 32.6233 223.996 36.1017 223.338C37.4022 227.552 39.4085 231.456 41.9827 234.913C35.6177 234.36 29.995 231.214 26.1762 226.538ZM25.2506 226.983C29.4153 232.188 35.7019 235.621 42.7993 235.97C42.9779 236.194 43.1589 236.415 43.3423 236.634C36.4872 244.459 26.421 249.4 15.2008 249.4C11.7554 249.4 8.41875 248.934 5.25051 248.061C9.21605 238.893 16.34 231.41 25.2506 226.983ZM24.6312 226.175C15.5538 230.736 8.30596 238.403 4.28234 247.781C-11.0468 243.109 -22.1992 228.857 -22.1992 212C-22.1992 195.143 -11.0468 180.89 4.28219 176.219C8.30582 185.597 15.5538 193.264 24.6314 197.825C21.7195 201.797 20 206.698 20 212C20 217.302 21.7194 222.203 24.6312 226.175ZM72.8004 174.6C76.246 174.6 79.5828 175.066 82.7512 175.938C78.7854 185.107 71.6609 192.59 62.7496 197.017C58.5853 191.813 52.2993 188.38 45.2026 188.03C45.0238 187.806 44.8425 187.585 44.6589 187.365C51.514 179.541 61.5802 174.6 72.8004 174.6ZM43.2981 189.011C43.5312 189.004 43.7652 189 44 189C44.2352 189 44.4696 189.004 44.7031 189.011C47.4324 192.508 49.5533 196.503 50.9068 200.838C48.6596 201.208 46.3527 201.4 44.0008 201.4C41.6488 201.4 39.3417 201.208 37.0944 200.838C38.4479 196.503 40.5688 192.508 43.2981 189.011ZM42.7986 188.03C42.9774 187.806 43.1587 187.585 43.3423 187.365C36.4872 179.541 26.421 174.6 15.2008 174.6C11.7553 174.6 8.41864 175.066 5.25037 175.938C9.21591 185.106 16.34 192.59 25.2509 197.016C29.4154 191.812 35.7017 188.379 42.7986 188.03ZM26.1764 197.462C29.9951 192.786 35.6175 189.641 41.9821 189.087C39.4081 192.544 37.4019 196.448 36.1016 200.662C32.6234 200.003 29.2961 198.918 26.1764 197.462ZM34.4036 211.5H21.0053C21.111 206.546 22.7828 201.978 25.5454 198.271C28.7705 199.797 32.2147 200.935 35.8179 201.626C34.9372 204.773 34.4472 208.083 34.4036 211.5ZM36.807 201.804C35.934 204.892 35.4476 208.143 35.4037 211.5H52.5975C52.5536 208.143 52.0672 204.892 51.1941 201.804C48.8547 202.196 46.4516 202.4 44.0008 202.4C41.5498 202.4 39.1466 202.196 36.807 201.804ZM53.5976 211.5H66.9947C66.889 206.547 65.2174 201.979 62.455 198.271C59.2302 199.797 55.7862 200.935 52.1832 201.626C53.064 204.773 53.554 208.083 53.5976 211.5ZM61.824 197.463C58.7045 198.918 55.3775 200.003 51.8996 200.662C50.5993 196.448 48.5931 192.544 46.0192 189.087C52.3835 189.641 58.0055 192.786 61.824 197.463Z" fill="url(#paint7_linear_1146_36381)"/>
</g>
<path d="M700 192.5H699.5V193V230.143V230.643H700H713.333H713.833V230.143V206.042H726.167V230.143V230.643H726.667H740H740.5V230.143V204.577C740.5 198.39 735.747 193.304 729.636 192.587V192.5H729.136H728.148H726.667H719.259H719.038L718.889 192.664L713.833 198.247V193V192.5H713.333H700Z" fill="url(#paint8_linear_1146_36381)" stroke="url(#paint9_linear_1146_36381)"/>
<path d="M816 196.001C816 194.896 816.895 194.001 818 194.001H862C863.104 194.001 864 194.896 864 196.001V228.001C864 229.106 863.104 230.001 862 230.001H818C816.895 230.001 816 229.106 816 228.001V196.001Z" fill="url(#paint10_linear_1146_36381)"/>
<path fill-rule="evenodd" clip-rule="evenodd" d="M817.999 195H861.999C862.551 195 862.999 195.448 862.999 196V201H816.999V196C816.999 195.448 817.447 195 817.999 195ZM816.999 202V228C816.999 228.552 817.447 229 817.999 229H861.999C862.551 229 862.999 228.552 862.999 228V202H816.999ZM863.999 202V228C863.999 229.105 863.104 230 861.999 230H817.999C816.894 230 815.999 229.105 815.999 228V196C815.999 194.895 816.894 194 817.999 194H861.999C863.104 194 863.999 194.895 863.999 196V201H864V202H863.999ZM820.5 199.5C821.328 199.5 822 198.828 822 198C822 197.172 821.328 196.5 820.5 196.5C819.672 196.5 819 197.172 819 198C819 198.828 819.672 199.5 820.5 199.5ZM827.001 198C827.001 198.828 826.329 199.5 825.501 199.5C824.673 199.5 824.001 198.828 824.001 198C824.001 197.172 824.673 196.5 825.501 196.5C826.329 196.5 827.001 197.172 827.001 198ZM830.501 199.5C831.329 199.5 832.001 198.828 832.001 198C832.001 197.172 831.329 196.5 830.501 196.5C829.673 196.5 829.001 197.172 829.001 198C829.001 198.828 829.673 199.5 830.501 199.5ZM832.889 224.418H832.459C830.32 224.418 829.354 223.422 829.354 221.205V218.529C829.354 216.938 828.807 216.4 827.225 216.4V214.877C828.807 214.877 829.354 214.33 829.354 212.738V210.102C829.354 207.895 830.281 206.908 832.459 206.908H832.889V207.973H832.566C831.17 207.973 830.584 208.588 830.584 210.238V213.256C830.584 214.682 829.9 215.375 828.445 215.521V215.746C829.9 215.893 830.584 216.586 830.584 218.012V221.049C830.584 222.709 831.189 223.354 832.566 223.354H832.889V224.418ZM841.297 206.908H842.537L838.455 224.418H837.215L841.297 206.908ZM847.283 224.418C849.422 224.418 850.389 223.422 850.389 221.205V218.529C850.389 216.938 850.936 216.4 852.518 216.4V214.877C850.936 214.877 850.389 214.33 850.389 212.738V210.102C850.389 207.895 849.461 206.908 847.283 206.908H846.854V207.973H847.176C848.572 207.973 849.158 208.588 849.158 210.238V213.256C849.158 214.682 849.832 215.375 851.297 215.521V215.746C849.832 215.893 849.158 216.586 849.158 218.012V221.049C849.158 222.709 848.553 223.354 847.176 223.354H846.854V224.418H847.283Z" fill="url(#paint11_linear_1146_36381)"/>
<rect x="0.5" y="168.5" width="87" height="87" rx="11.5" stroke="#262626"/>
<path d="M322.118 37V27H323.838V28.26C324.505 27.2867 325.558 26.8 326.998 26.8C328.131 26.8 329.045 27.1667 329.738 27.9C330.445 28.6333 330.798 29.62 330.798 30.86V37H329.098V31.12C329.098 30.2533 328.871 29.58 328.418 29.1C327.978 28.62 327.371 28.38 326.598 28.38C325.211 28.38 324.291 29.04 323.838 30.36V37H322.118ZM338.155 41.08C337.169 41.08 336.282 40.9133 335.495 40.58C334.722 40.2467 334.109 39.8 333.655 39.24L334.835 38.04C335.675 39.0267 336.782 39.52 338.155 39.52C339.035 39.52 339.802 39.2467 340.455 38.7C341.109 38.1667 341.435 37.38 341.435 36.34V35.58C340.635 36.46 339.549 36.9 338.175 36.9C336.709 36.9 335.495 36.4133 334.535 35.44C333.589 34.4533 333.115 33.2533 333.115 31.84C333.115 30.4267 333.595 29.2333 334.555 28.26C335.515 27.2867 336.722 26.8 338.175 26.8C339.549 26.8 340.635 27.2333 341.435 28.1V27H343.155V36.4C343.155 37.92 342.682 39.08 341.735 39.88C340.789 40.68 339.595 41.08 338.155 41.08ZM338.315 35.3C339.715 35.3 340.755 34.7533 341.435 33.66V30.02C340.755 28.9267 339.715 28.38 338.315 28.38C337.329 28.38 336.509 28.7133 335.855 29.38C335.215 30.0467 334.895 30.8667 334.895 31.84C334.895 32.8267 335.215 33.6533 335.855 34.32C336.509 34.9733 337.329 35.3 338.315 35.3ZM346.395 37V27H348.115V28.48C348.315 28.0533 348.669 27.6867 349.175 27.38C349.695 27.06 350.242 26.9 350.815 26.9C351.109 26.9 351.402 26.9333 351.695 27L351.475 28.72C351.235 28.64 350.949 28.6 350.615 28.6C350.082 28.6 349.575 28.7733 349.095 29.12C348.629 29.4533 348.302 29.92 348.115 30.52V37H346.395ZM357.652 37.2C356.145 37.2 354.892 36.7 353.892 35.7C352.905 34.6867 352.412 33.4533 352.412 32C352.412 30.5467 352.905 29.32 353.892 28.32C354.892 27.3067 356.145 26.8 357.652 26.8C359.145 26.8 360.385 27.3067 361.372 28.32C362.372 29.32 362.872 30.5467 362.872 32C362.872 33.4533 362.372 34.6867 361.372 35.7C360.385 36.7 359.145 37.2 357.652 37.2ZM355.132 34.56C355.785 35.2533 356.625 35.6 357.652 35.6C358.678 35.6 359.512 35.2533 360.152 34.56C360.792 33.8667 361.112 33.0133 361.112 32C361.112 30.9867 360.792 30.1333 360.152 29.44C359.512 28.7467 358.678 28.4 357.652 28.4C356.625 28.4 355.785 28.7467 355.132 29.44C354.492 30.1333 354.172 30.9867 354.172 32C354.172 33.0133 354.492 33.8667 355.132 34.56ZM372.481 37L367.061 32V37H365.341V22.4H367.061V30.9L371.421 27H373.701L368.781 31.42L374.801 37H372.481Z" fill="white"/>
<path d="M385.496 37.2C383.976 37.2 382.723 36.7133 381.736 35.74C380.763 34.7667 380.276 33.52 380.276 32C380.276 30.52 380.769 29.2867 381.756 28.3C382.743 27.3 383.989 26.8 385.496 26.8C386.883 26.8 388.029 27.24 388.936 28.12C389.856 29 390.316 30.2133 390.316 31.76C390.316 32.0267 390.309 32.2667 390.296 32.48H382.436C382.489 33.2933 382.803 33.9533 383.376 34.46C383.949 34.9533 384.663 35.2 385.516 35.2C386.796 35.2 387.749 34.6933 388.376 33.68L390.056 34.88C389.096 36.4267 387.576 37.2 385.496 37.2ZM382.536 30.88H388.096C387.976 30.1867 387.663 29.6467 387.156 29.26C386.663 28.86 386.083 28.66 385.416 28.66C384.723 28.66 384.103 28.8533 383.556 29.24C383.023 29.6267 382.683 30.1733 382.536 30.88ZM396.858 37.2C395.404 37.2 394.211 36.6933 393.278 35.68C392.344 34.6667 391.878 33.44 391.878 32C391.878 30.56 392.344 29.3333 393.278 28.32C394.211 27.3067 395.404 26.8 396.858 26.8C398.084 26.8 399.058 27.1733 399.778 27.92V22.4H401.978V37H399.778V36.06C399.058 36.82 398.084 37.2 396.858 37.2ZM397.118 35.2C398.264 35.2 399.151 34.7333 399.778 33.8V30.18C399.138 29.26 398.251 28.8 397.118 28.8C396.251 28.8 395.538 29.1133 394.978 29.74C394.418 30.3533 394.138 31.1067 394.138 32C394.138 32.8933 394.418 33.6533 394.978 34.28C395.538 34.8933 396.251 35.2 397.118 35.2ZM409.3 41.08C408.38 41.08 407.527 40.9333 406.74 40.64C405.954 40.3467 405.32 39.9467 404.84 39.44L406.18 37.86C406.994 38.7 408.027 39.12 409.28 39.12C410.067 39.12 410.754 38.8867 411.34 38.42C411.927 37.9533 412.22 37.28 412.22 36.4V35.7C411.487 36.4733 410.507 36.86 409.28 36.86C407.84 36.86 406.64 36.3733 405.68 35.4C404.734 34.4267 404.26 33.2333 404.26 31.82C404.26 30.4067 404.74 29.22 405.7 28.26C406.66 27.2867 407.854 26.8 409.28 26.8C410.52 26.8 411.5 27.1733 412.22 27.92V27H414.42V36.42C414.42 37.98 413.927 39.1467 412.94 39.92C411.954 40.6933 410.74 41.08 409.3 41.08ZM409.54 34.84C410.7 34.84 411.594 34.3733 412.22 33.44V30.18C411.58 29.26 410.687 28.8 409.54 28.8C408.674 28.8 407.954 29.0933 407.38 29.68C406.807 30.2533 406.52 30.9667 406.52 31.82C406.52 32.6867 406.807 33.4067 407.38 33.98C407.954 34.5533 408.674 34.84 409.54 34.84ZM421.902 37.2C420.382 37.2 419.129 36.7133 418.142 35.74C417.169 34.7667 416.682 33.52 416.682 32C416.682 30.52 417.176 29.2867 418.162 28.3C419.149 27.3 420.396 26.8 421.902 26.8C423.289 26.8 424.436 27.24 425.342 28.12C426.262 29 426.722 30.2133 426.722 31.76C426.722 32.0267 426.716 32.2667 426.702 32.48H418.842C418.896 33.2933 419.209 33.9533 419.782 34.46C420.356 34.9533 421.069 35.2 421.922 35.2C423.202 35.2 424.156 34.6933 424.782 33.68L426.462 34.88C425.502 36.4267 423.982 37.2 421.902 37.2ZM418.942 30.88H424.502C424.382 30.1867 424.069 29.6467 423.562 29.26C423.069 28.86 422.489 28.66 421.822 28.66C421.129 28.66 420.509 28.8533 419.962 29.24C419.429 29.6267 419.089 30.1733 418.942 30.88Z" fill="url(#paint12_linear_1146_36381)"/>
<path d="M705.923 136.88V123H708.123V123.92C708.843 123.173 709.817 122.8 711.043 122.8C712.497 122.8 713.69 123.307 714.623 124.32C715.57 125.333 716.043 126.56 716.043 128C716.043 129.44 715.57 130.667 714.623 131.68C713.69 132.693 712.497 133.2 711.043 133.2C709.817 133.2 708.843 132.82 708.123 132.06V136.88H705.923ZM710.803 131.2C711.67 131.2 712.383 130.893 712.943 130.28C713.503 129.653 713.783 128.893 713.783 128C713.783 127.107 713.503 126.353 712.943 125.74C712.383 125.113 711.67 124.8 710.803 124.8C709.657 124.8 708.763 125.26 708.123 126.18V129.8C708.75 130.733 709.643 131.2 710.803 131.2ZM718.306 133V123H720.506V124.34C720.706 123.94 721.04 123.6 721.506 123.32C721.973 123.04 722.48 122.9 723.026 122.9C723.386 122.9 723.726 122.94 724.046 123.02L723.726 125.16C723.526 125.08 723.24 125.04 722.866 125.04C722.4 125.04 721.94 125.173 721.486 125.44C721.046 125.707 720.72 126.087 720.506 126.58V133H718.306ZM726.848 121.22C726.448 121.22 726.101 121.08 725.808 120.8C725.528 120.507 725.388 120.153 725.388 119.74C725.388 119.34 725.528 119 725.808 118.72C726.101 118.427 726.448 118.28 726.848 118.28C727.261 118.28 727.608 118.427 727.888 118.72C728.181 119 728.328 119.34 728.328 119.74C728.328 120.153 728.181 120.507 727.888 120.8C727.608 121.08 727.261 121.22 726.848 121.22ZM725.748 133V123H727.948V133H725.748ZM734.024 133L729.504 123H731.944L734.984 130.02L738.044 123H740.504L735.964 133H734.024ZM746.082 133.2C744.629 133.2 743.436 132.693 742.502 131.68C741.569 130.667 741.102 129.44 741.102 128C741.102 126.56 741.569 125.333 742.502 124.32C743.436 123.307 744.629 122.8 746.082 122.8C747.309 122.8 748.282 123.173 749.002 123.92V123H751.202V133H749.002V132.06C748.282 132.82 747.309 133.2 746.082 133.2ZM746.342 131.2C747.489 131.2 748.376 130.733 749.002 129.8V126.18C748.362 125.26 747.476 124.8 746.342 124.8C745.476 124.8 744.762 125.113 744.202 125.74C743.642 126.353 743.362 127.107 743.362 128C743.362 128.893 743.642 129.653 744.202 130.28C744.762 130.893 745.476 131.2 746.342 131.2ZM758.925 133.1C757.898 133.1 757.058 132.82 756.405 132.26C755.765 131.687 755.445 130.86 755.445 129.78V124.96H752.965V123H755.445V120.1H757.645V123H760.705V124.96H757.645V129.42C757.645 130.553 758.165 131.12 759.205 131.12C759.752 131.12 760.225 131 760.625 130.76L761.285 132.6C760.592 132.933 759.805 133.1 758.925 133.1ZM767.299 133.2C765.779 133.2 764.525 132.713 763.539 131.74C762.565 130.767 762.079 129.52 762.079 128C762.079 126.52 762.572 125.287 763.559 124.3C764.545 123.3 765.792 122.8 767.299 122.8C768.685 122.8 769.832 123.24 770.739 124.12C771.659 125 772.119 126.213 772.119 127.76C772.119 128.027 772.112 128.267 772.099 128.48H764.239C764.292 129.293 764.605 129.953 765.179 130.46C765.752 130.953 766.465 131.2 767.319 131.2C768.599 131.2 769.552 130.693 770.179 129.68L771.859 130.88C770.899 132.427 769.379 133.2 767.299 133.2ZM764.339 126.88H769.899C769.779 126.187 769.465 125.647 768.959 125.26C768.465 124.86 767.885 124.66 767.219 124.66C766.525 124.66 765.905 124.853 765.359 125.24C764.825 125.627 764.485 126.173 764.339 126.88ZM779.087 133V123H781.287V124.06C781.967 123.22 782.947 122.8 784.227 122.8C785.414 122.8 786.361 123.187 787.067 123.96C787.787 124.72 788.147 125.74 788.147 127.02V133H785.947V127.38C785.947 126.567 785.754 125.933 785.367 125.48C784.994 125.027 784.454 124.8 783.747 124.8C782.574 124.8 781.754 125.327 781.287 126.38V133H779.087ZM795.482 133.2C793.962 133.2 792.709 132.713 791.722 131.74C790.749 130.767 790.262 129.52 790.262 128C790.262 126.52 790.756 125.287 791.742 124.3C792.729 123.3 793.976 122.8 795.482 122.8C796.869 122.8 798.016 123.24 798.922 124.12C799.842 125 800.302 126.213 800.302 127.76C800.302 128.027 800.296 128.267 800.282 128.48H792.422C792.476 129.293 792.789 129.953 793.362 130.46C793.936 130.953 794.649 131.2 795.502 131.2C796.782 131.2 797.736 130.693 798.362 129.68L800.042 130.88C799.082 132.427 797.562 133.2 795.482 133.2ZM792.522 126.88H798.082C797.962 126.187 797.649 125.647 797.142 125.26C796.649 124.86 796.069 124.66 795.402 124.66C794.709 124.66 794.089 124.853 793.542 125.24C793.009 125.627 792.669 126.173 792.522 126.88ZM807.128 133.1C806.102 133.1 805.262 132.82 804.608 132.26C803.968 131.687 803.648 130.86 803.648 129.78V124.96H801.168V123H803.648V120.1H805.848V123H808.908V124.96H805.848V129.42C805.848 130.553 806.368 131.12 807.408 131.12C807.955 131.12 808.428 131 808.828 130.76L809.488 132.6C808.795 132.933 808.008 133.1 807.128 133.1ZM819.678 133L817.478 126.54L815.298 133H813.218L809.858 123H812.178L814.338 129.9L816.638 123H818.318L820.578 129.9L822.778 123H825.118L821.758 133H819.678ZM834.925 131.7C833.925 132.7 832.685 133.2 831.205 133.2C829.725 133.2 828.478 132.7 827.465 131.7C826.465 130.687 825.965 129.453 825.965 128C825.965 126.547 826.465 125.32 827.465 124.32C828.478 123.307 829.725 122.8 831.205 122.8C832.685 122.8 833.925 123.307 834.925 124.32C835.938 125.32 836.445 126.547 836.445 128C836.445 129.453 835.938 130.687 834.925 131.7ZM831.205 131.16C832.072 131.16 832.785 130.86 833.345 130.26C833.918 129.647 834.205 128.893 834.205 128C834.205 127.107 833.918 126.36 833.345 125.76C832.785 125.147 832.072 124.84 831.205 124.84C830.325 124.84 829.598 125.147 829.025 125.76C828.465 126.36 828.185 127.107 828.185 128C828.185 128.893 828.465 129.647 829.025 130.26C829.598 130.86 830.325 131.16 831.205 131.16ZM838.658 133V123H840.858V124.34C841.058 123.94 841.391 123.6 841.858 123.32C842.324 123.04 842.831 122.9 843.378 122.9C843.738 122.9 844.078 122.94 844.398 123.02L844.078 125.16C843.878 125.08 843.591 125.04 843.218 125.04C842.751 125.04 842.291 125.173 841.838 125.44C841.398 125.707 841.071 126.087 840.858 126.58V133H838.658ZM853.079 133L848.299 128.18V133H846.099V118.4H848.299V126.8L852.119 123H854.899L850.439 127.46L855.899 133H853.079Z" fill="white"/>
<defs>
<linearGradient id="paint0_linear_1146_36381" x1="354.314" y1="96.3132" x2="393.912" y2="135.911" gradientUnits="userSpaceOnUse">
<stop stop-color="#2D414F"/>
<stop offset="1" stop-color="#0F324F"/>
</linearGradient>
<linearGradient id="paint1_linear_1146_36381" x1="354.314" y1="96.3132" x2="393.912" y2="135.911" gradientUnits="userSpaceOnUse">
<stop stop-color="#BAE7FF"/>
<stop offset="1" stop-color="#40A9FF"/>
</linearGradient>
<linearGradient id="paint2_linear_1146_36381" x1="477" y1="94" x2="477" y2="138" gradientUnits="userSpaceOnUse">
<stop stop-color="#3D3D3F"/>
<stop offset="1" stop-color="#3D2622"/>
</linearGradient>
<linearGradient id="paint3_linear_1146_36381" x1="477" y1="94" x2="477" y2="138" gradientUnits="userSpaceOnUse">
<stop stop-color="#FFD8BF"/>
<stop offset="1" stop-color="#FF7A45"/>
</linearGradient>
<linearGradient id="paint4_linear_1146_36381" x1="270" y1="105" x2="270" y2="141" gradientUnits="userSpaceOnUse">
<stop stop-color="#7A6D7B"/>
<stop offset="1" stop-color="#77315E"/>
</linearGradient>
<linearGradient id="paint5_linear_1146_36381" x1="270" y1="90.5" x2="270" y2="141" gradientUnits="userSpaceOnUse">
<stop stop-color="#FFF0F6"/>
<stop offset="1" stop-color="#FF85C0"/>
</linearGradient>
<linearGradient id="paint6_linear_1146_36381" x1="44" y1="188" x2="44" y2="236" gradientUnits="userSpaceOnUse">
<stop stop-color="#577C7D"/>
<stop offset="1" stop-color="#1A6A6C"/>
</linearGradient>
<linearGradient id="paint7_linear_1146_36381" x1="44.0006" y1="188" x2="44.0006" y2="236" gradientUnits="userSpaceOnUse">
<stop stop-color="#E6FFFB"/>
<stop offset="1" stop-color="#B5F5EC"/>
</linearGradient>
<linearGradient id="paint8_linear_1146_36381" x1="720" y1="193" x2="720" y2="230.143" gradientUnits="userSpaceOnUse">
<stop stop-color="#33334D"/>
<stop offset="1" stop-color="#231D47"/>
</linearGradient>
<linearGradient id="paint9_linear_1146_36381" x1="720" y1="193" x2="720" y2="230.143" gradientUnits="userSpaceOnUse">
<stop stop-color="#EFDBFF"/>
<stop offset="1" stop-color="#9254DE"/>
</linearGradient>
<linearGradient id="paint10_linear_1146_36381" x1="840" y1="194.001" x2="840" y2="230.001" gradientUnits="userSpaceOnUse">
<stop stop-color="#33334D"/>
<stop offset="1" stop-color="#231D47"/>
</linearGradient>
<linearGradient id="paint11_linear_1146_36381" x1="840" y1="194" x2="840" y2="230" gradientUnits="userSpaceOnUse">
<stop stop-color="#EFDBFF"/>
<stop offset="1" stop-color="#9254DE"/>
</linearGradient>
<linearGradient id="paint12_linear_1146_36381" x1="379" y1="16" x2="429.48" y2="20.537" gradientUnits="userSpaceOnUse">
<stop stop-color="#9254DE"/>
<stop offset="1" stop-color="#597EF7"/>
</linearGradient>
</defs>
</svg>

