<svg width="215" height="552" viewBox="0 0 215 552" fill="none" xmlns="http://www.w3.org/2000/svg">
<path d="M92 283C91.4477 283 91 283.448 91 284C91 284.552 91.4477 285 92 285V283ZM214 205C214.552 205 215 204.552 215 204C215 203.448 214.552 203 214 203V205ZM95.1493 285C95.7016 285 96.1493 284.552 96.1493 284C96.1493 283.448 95.7016 283 95.1493 283V285ZM101.448 283C100.896 283 100.448 283.448 100.448 284C100.448 284.552 100.896 285 101.448 285V283ZM107.747 285C108.299 285 108.747 284.552 108.747 284C108.747 283.448 108.299 283 107.747 283V285ZM114.045 283C113.493 283 113.045 283.448 113.045 284C113.045 284.552 113.493 285 114.045 285V283ZM120.344 285C120.896 285 121.344 284.552 121.344 284C121.344 283.448 120.896 283 120.344 283V285ZM126.643 283C126.09 283 125.643 283.448 125.643 284C125.643 284.552 126.09 285 126.643 285V283ZM132.941 285C133.494 285 133.941 284.552 133.941 284C133.941 283.448 133.494 283 132.941 283V285ZM139.24 283C138.688 283 138.24 283.448 138.24 284C138.24 284.552 138.688 285 139.24 285V283ZM144.304 284.62C144.814 284.409 145.056 283.824 144.844 283.313C144.633 282.803 144.048 282.561 143.538 282.773L144.304 284.62ZM145.162 281.148C144.951 281.658 145.193 282.243 145.703 282.455C146.213 282.666 146.798 282.424 147.01 281.914L145.162 281.148ZM147.389 277C147.389 276.448 146.942 276 146.389 276C145.837 276 145.389 276.448 145.389 277H147.389ZM145.389 271C145.389 271.552 145.837 272 146.389 272C146.942 272 147.389 271.552 147.389 271H145.389ZM147.389 265C147.389 264.448 146.942 264 146.389 264C145.837 264 145.389 264.448 145.389 265H147.389ZM145.389 259C145.389 259.552 145.837 260 146.389 260C146.942 260 147.389 259.552 147.389 259H145.389ZM147.389 253C147.389 252.448 146.942 252 146.389 252C145.837 252 145.389 252.448 145.389 253H147.389ZM145.389 247C145.389 247.552 145.837 248 146.389 248C146.942 248 147.389 247.552 147.389 247H145.389ZM147.389 241C147.389 240.448 146.942 240 146.389 240C145.837 240 145.389 240.448 145.389 241H147.389ZM145.389 235C145.389 235.552 145.837 236 146.389 236C146.942 236 147.389 235.552 147.389 235H145.389ZM147.389 229C147.389 228.448 146.942 228 146.389 228C145.837 228 145.389 228.448 145.389 229H147.389ZM145.389 223C145.389 223.552 145.837 224 146.389 224C146.942 224 147.389 223.552 147.389 223H145.389ZM147.389 217C147.389 216.448 146.942 216 146.389 216C145.837 216 145.389 216.448 145.389 217H147.389ZM145.389 211C145.389 211.552 145.837 212 146.389 212C146.942 212 147.389 211.552 147.389 211H145.389ZM147.617 206.852C147.828 206.342 147.586 205.757 147.076 205.545C146.566 205.334 145.981 205.576 145.769 206.086L147.617 206.852ZM148.475 203.38C147.965 203.591 147.723 204.176 147.935 204.687C148.146 205.197 148.731 205.439 149.241 205.227L148.475 203.38ZM153.57 205C154.122 205 154.57 204.552 154.57 204C154.57 203.448 154.122 203 153.57 203V205ZM159.931 203C159.379 203 158.931 203.448 158.931 204C158.931 204.552 159.379 205 159.931 205V203ZM166.292 205C166.844 205 167.292 204.552 167.292 204C167.292 203.448 166.844 203 166.292 203V205ZM172.653 203C172.101 203 171.653 203.448 171.653 204C171.653 204.552 172.101 205 172.653 205V203ZM179.014 205C179.566 205 180.014 204.552 180.014 204C180.014 203.448 179.566 203 179.014 203V205ZM185.375 203C184.823 203 184.375 203.448 184.375 204C184.375 204.552 184.823 205 185.375 205V203ZM191.736 205C192.289 205 192.736 204.552 192.736 204C192.736 203.448 192.289 203 191.736 203V205ZM198.097 203C197.545 203 197.097 203.448 197.097 204C197.097 204.552 197.545 205 198.097 205V203ZM204.458 205C205.011 205 205.458 204.552 205.458 204C205.458 203.448 205.011 203 204.458 203V205ZM210.819 203C210.267 203 209.819 203.448 209.819 204C209.819 204.552 210.267 205 210.819 205V203ZM92 285H95.1493V283H92V285ZM101.448 285H107.747V283H101.448V285ZM114.045 285H120.344V283H114.045V285ZM126.643 285H132.941V283H126.643V285ZM139.24 285H142.389V283H139.24V285ZM142.389 285C143.066 285 143.713 284.865 144.304 284.62L143.538 282.773C143.185 282.919 142.798 283 142.389 283V285ZM147.01 281.914C147.255 281.323 147.389 280.676 147.389 280H145.389C145.389 280.409 145.308 280.796 145.162 281.148L147.01 281.914ZM147.389 280V277H145.389V280H147.389ZM147.389 271V265H145.389V271H147.389ZM147.389 259V253H145.389V259H147.389ZM147.389 247V241H145.389V247H147.389ZM147.389 235V229H145.389V235H147.389ZM147.389 223V217H145.389V223H147.389ZM147.389 211V208H145.389V211H147.389ZM147.389 208C147.389 207.591 147.471 207.204 147.617 206.852L145.769 206.086C145.524 206.677 145.389 207.324 145.389 208H147.389ZM149.241 205.227C149.594 205.081 149.981 205 150.389 205V203C149.713 203 149.066 203.135 148.475 203.38L149.241 205.227ZM150.389 205H153.57V203H150.389V205ZM159.931 205H166.292V203H159.931V205ZM172.653 205H179.014V203H172.653V205ZM185.375 205H191.736V203H185.375V205ZM198.097 205H204.458V203H198.097V205ZM210.819 205H214V203H210.819V205Z" fill="#5CDBD3"/>
<path d="M4 252C4 247.582 7.58172 244 12 244H76C80.4183 244 84 247.582 84 252V316C84 320.418 80.4183 324 76 324H12C7.58172 324 4 320.418 4 316V252Z" fill="url(#paint0_linear_1146_36381)"/>
<mask id="mask0_1146_36381" style="mask-type:alpha" maskUnits="userSpaceOnUse" x="20" y="260" width="48" height="48">
<rect x="20.5" y="260.5" width="47" height="47" rx="23.5" fill="white" stroke="#237804"/>
</mask>
<g mask="url(#mask0_1146_36381)">
<rect x="1.30029" y="294.1" width="85.4" height="85.4" rx="42.7" stroke="#000C17"/>
<rect x="1.30029" y="188.5" width="85.4" height="85.4" rx="42.7" stroke="#000C17"/>
<rect x="-22.6997" y="246.1" width="75.8" height="75.8" rx="37.9" stroke="#000C17"/>
<rect x="34.9004" y="246.1" width="75.8" height="75.8" rx="37.9" stroke="#000C17"/>
</g>
<rect x="20.5" y="260.5" width="47" height="47" rx="23.5" stroke="#000C17"/>
<path d="M20.75 284H67.25" stroke="#000C17" stroke-linecap="round"/>
<rect x="0.5" y="240.5" width="87" height="87" rx="11.5" stroke="#5CDBD3"/>
<path d="M16.5 429V417.04H12.38V414.8H22.98V417.04H18.84V429H16.5ZM26.8714 429H24.6714V414.4H26.8714V420.06C27.5514 419.22 28.5314 418.8 29.8114 418.8C30.9981 418.8 31.9447 419.187 32.6514 419.96C33.3714 420.72 33.7314 421.74 33.7314 423.02V429H31.5314V423.38C31.5314 422.567 31.3381 421.933 30.9514 421.48C30.5781 421.027 30.0381 420.8 29.3314 420.8C28.1581 420.8 27.3381 421.327 26.8714 422.38V429ZM41.0664 429.2C39.5464 429.2 38.2931 428.713 37.3064 427.74C36.3331 426.767 35.8464 425.52 35.8464 424C35.8464 422.52 36.3397 421.287 37.3264 420.3C38.3131 419.3 39.5597 418.8 41.0664 418.8C42.4531 418.8 43.5997 419.24 44.5064 420.12C45.4264 421 45.8864 422.213 45.8864 423.76C45.8864 424.027 45.8797 424.267 45.8664 424.48H38.0064C38.0597 425.293 38.3731 425.953 38.9464 426.46C39.5197 426.953 40.2331 427.2 41.0864 427.2C42.3664 427.2 43.3197 426.693 43.9464 425.68L45.6264 426.88C44.6664 428.427 43.1464 429.2 41.0664 429.2ZM38.1064 422.88H43.6664C43.5464 422.187 43.2331 421.647 42.7264 421.26C42.2331 420.86 41.6531 420.66 40.9864 420.66C40.2931 420.66 39.6731 420.853 39.1264 421.24C38.5931 421.627 38.2531 422.173 38.1064 422.88ZM53.115 429V414.8H55.455V429H53.115ZM58.5581 429V419H60.7581V420.06C61.4381 419.22 62.4181 418.8 63.6981 418.8C64.8848 418.8 65.8315 419.187 66.5381 419.96C67.2581 420.72 67.6181 421.74 67.6181 423.02V429H65.4181V423.38C65.4181 422.567 65.2248 421.933 64.8381 421.48C64.4648 421.027 63.9248 420.8 63.2181 420.8C62.0448 420.8 61.2248 421.327 60.7581 422.38V429H58.5581ZM75.0169 429.1C73.9902 429.1 73.1502 428.82 72.4969 428.26C71.8569 427.687 71.5369 426.86 71.5369 425.78V420.96H69.0569V419H71.5369V416.1H73.7369V419H76.7969V420.96H73.7369V425.42C73.7369 426.553 74.2569 427.12 75.2969 427.12C75.8435 427.12 76.3169 427 76.7169 426.76L77.3769 428.6C76.6835 428.933 75.8969 429.1 75.0169 429.1ZM83.3906 429.2C81.8706 429.2 80.6173 428.713 79.6306 427.74C78.6573 426.767 78.1706 425.52 78.1706 424C78.1706 422.52 78.664 421.287 79.6506 420.3C80.6373 419.3 81.884 418.8 83.3906 418.8C84.7773 418.8 85.924 419.24 86.8306 420.12C87.7506 421 88.2106 422.213 88.2106 423.76C88.2106 424.027 88.204 424.267 88.1906 424.48H80.3306C80.384 425.293 80.6973 425.953 81.2706 426.46C81.844 426.953 82.5573 427.2 83.4106 427.2C84.6906 427.2 85.644 426.693 86.2706 425.68L87.9506 426.88C86.9906 428.427 85.4706 429.2 83.3906 429.2ZM80.4306 422.88H85.9906C85.8706 422.187 85.5573 421.647 85.0506 421.26C84.5573 420.86 83.9773 420.66 83.3106 420.66C82.6173 420.66 81.9973 420.853 81.4506 421.24C80.9173 421.627 80.5773 422.173 80.4306 422.88ZM90.4722 429V419H92.6722V420.34C92.8722 419.94 93.2055 419.6 93.6722 419.32C94.1389 419.04 94.6455 418.9 95.1922 418.9C95.5522 418.9 95.8922 418.94 96.2122 419.02L95.8922 421.16C95.6922 421.08 95.4055 421.04 95.0322 421.04C94.5655 421.04 94.1055 421.173 93.6522 421.44C93.2122 421.707 92.8855 422.087 92.6722 422.58V429H90.4722ZM97.9136 429V419H100.114V420.06C100.794 419.22 101.774 418.8 103.054 418.8C104.24 418.8 105.187 419.187 105.894 419.96C106.614 420.72 106.974 421.74 106.974 423.02V429H104.774V423.38C104.774 422.567 104.58 421.933 104.194 421.48C103.82 421.027 103.28 420.8 102.574 420.8C101.4 420.8 100.58 421.327 100.114 422.38V429H97.9136ZM114.309 429.2C112.789 429.2 111.535 428.713 110.549 427.74C109.575 426.767 109.089 425.52 109.089 424C109.089 422.52 109.582 421.287 110.569 420.3C111.555 419.3 112.802 418.8 114.309 418.8C115.695 418.8 116.842 419.24 117.749 420.12C118.669 421 119.129 422.213 119.129 423.76C119.129 424.027 119.122 424.267 119.109 424.48H111.249C111.302 425.293 111.615 425.953 112.189 426.46C112.762 426.953 113.475 427.2 114.329 427.2C115.609 427.2 116.562 426.693 117.189 425.68L118.869 426.88C117.909 428.427 116.389 429.2 114.309 429.2ZM111.349 422.88H116.909C116.789 422.187 116.475 421.647 115.969 421.26C115.475 420.86 114.895 420.66 114.229 420.66C113.535 420.66 112.915 420.853 112.369 421.24C111.835 421.627 111.495 422.173 111.349 422.88ZM125.954 429.1C124.928 429.1 124.088 428.82 123.434 428.26C122.794 427.687 122.474 426.86 122.474 425.78V420.96H119.994V419H122.474V416.1H124.674V419H127.734V420.96H124.674V425.42C124.674 426.553 125.194 427.12 126.234 427.12C126.781 427.12 127.254 427 127.654 426.76L128.314 428.6C127.621 428.933 126.834 429.1 125.954 429.1Z" fill="white"/>
<path d="M13.88 461V446.8H15.58L20.84 455.12L26.12 446.8H27.82V461H25.98V450.4L21.52 457.42H20.2L15.74 450.38V461H13.88ZM35.3995 461.2C33.9329 461.2 32.7262 460.7 31.7795 459.7C30.8329 458.687 30.3595 457.453 30.3595 456C30.3595 454.547 30.8329 453.32 31.7795 452.32C32.7262 451.307 33.9329 450.8 35.3995 450.8C36.7729 450.8 37.8595 451.233 38.6595 452.1V451H40.3795V461H38.6595V459.9C37.8595 460.767 36.7729 461.2 35.3995 461.2ZM35.5395 459.62C36.9395 459.62 37.9795 459.067 38.6595 457.96V454.02C37.9795 452.927 36.9395 452.38 35.5395 452.38C34.5529 452.38 33.7395 452.733 33.0995 453.44C32.4595 454.133 32.1395 454.987 32.1395 456C32.1395 457.013 32.4595 457.873 33.0995 458.58C33.7395 459.273 34.5529 459.62 35.5395 459.62ZM50.76 461L45.34 456V461H43.62V446.4H45.34V454.9L49.7 451H51.98L47.06 455.42L53.08 461H50.76ZM58.1567 461.2C56.6234 461.2 55.3767 460.707 54.4167 459.72C53.4567 458.733 52.9767 457.493 52.9767 456C52.9767 454.52 53.4634 453.287 54.4367 452.3C55.4101 451.3 56.6567 450.8 58.1767 450.8C59.5234 450.8 60.6501 451.253 61.5567 452.16C62.4767 453.053 62.9367 454.273 62.9367 455.82C62.9367 456.02 62.9301 456.193 62.9167 456.34H54.7167C54.7434 457.273 55.0767 458.053 55.7167 458.68C56.3701 459.307 57.1901 459.62 58.1767 459.62C59.5767 459.62 60.6167 459.04 61.2967 457.88L62.6567 458.82C61.6834 460.407 60.1834 461.2 58.1567 461.2ZM54.8367 454.94H61.1767C61.0434 454.14 60.6901 453.507 60.1167 453.04C59.5567 452.56 58.8901 452.32 58.1167 452.32C57.3301 452.32 56.6234 452.56 55.9967 453.04C55.3834 453.507 54.9967 454.14 54.8367 454.94ZM72.5333 464.88H70.6133L72.6533 460.48L68.2733 451H70.1733L73.6133 458.6L77.0333 451H78.9533L72.5333 464.88ZM84.8959 461.2C83.3893 461.2 82.1359 460.7 81.1359 459.7C80.1493 458.687 79.6559 457.453 79.6559 456C79.6559 454.547 80.1493 453.32 81.1359 452.32C82.1359 451.307 83.3893 450.8 84.8959 450.8C86.3893 450.8 87.6293 451.307 88.6159 452.32C89.6159 453.32 90.1159 454.547 90.1159 456C90.1159 457.453 89.6159 458.687 88.6159 459.7C87.6293 460.7 86.3893 461.2 84.8959 461.2ZM82.3759 458.56C83.0293 459.253 83.8693 459.6 84.8959 459.6C85.9226 459.6 86.7559 459.253 87.3959 458.56C88.0359 457.867 88.3559 457.013 88.3559 456C88.3559 454.987 88.0359 454.133 87.3959 453.44C86.7559 452.747 85.9226 452.4 84.8959 452.4C83.8693 452.4 83.0293 452.747 82.3759 453.44C81.7359 454.133 81.4159 454.987 81.4159 456C81.4159 457.013 81.7359 457.867 82.3759 458.56ZM100.925 451V461H99.2048V459.74C98.5382 460.713 97.5315 461.2 96.1848 461.2C95.0782 461.2 94.1782 460.833 93.4848 460.1C92.7915 459.367 92.4448 458.38 92.4448 457.14V451H94.1648V456.88C94.1648 457.76 94.3715 458.44 94.7848 458.92C95.2115 459.387 95.8048 459.62 96.5648 459.62C97.1915 459.62 97.7315 459.44 98.1848 459.08C98.6515 458.72 98.9915 458.24 99.2048 457.64V451H100.925ZM104.167 461V451H105.887V452.48C106.087 452.053 106.44 451.687 106.947 451.38C107.467 451.06 108.014 450.9 108.587 450.9C108.88 450.9 109.174 450.933 109.467 451L109.247 452.72C109.007 452.64 108.72 452.6 108.387 452.6C107.854 452.6 107.347 452.773 106.867 453.12C106.4 453.453 106.074 453.92 105.887 454.52V461H104.167ZM119.911 461.2C118.445 461.2 117.238 460.7 116.291 459.7C115.345 458.687 114.871 457.453 114.871 456C114.871 454.547 115.345 453.32 116.291 452.32C117.238 451.307 118.445 450.8 119.911 450.8C121.285 450.8 122.371 451.233 123.171 452.1V451H124.891V461H123.171V459.9C122.371 460.767 121.285 461.2 119.911 461.2ZM120.051 459.62C121.451 459.62 122.491 459.067 123.171 457.96V454.02C122.491 452.927 121.451 452.38 120.051 452.38C119.065 452.38 118.251 452.733 117.611 453.44C116.971 454.133 116.651 454.987 116.651 456C116.651 457.013 116.971 457.873 117.611 458.58C118.251 459.273 119.065 459.62 120.051 459.62ZM128.132 464.88V451H129.852V452.1C130.678 451.233 131.765 450.8 133.112 450.8C134.578 450.8 135.785 451.307 136.732 452.32C137.678 453.32 138.152 454.547 138.152 456C138.152 457.453 137.678 458.687 136.732 459.7C135.785 460.7 134.578 461.2 133.112 461.2C131.765 461.2 130.678 460.767 129.852 459.9V464.88H128.132ZM132.972 459.62C133.958 459.62 134.772 459.273 135.412 458.58C136.052 457.873 136.372 457.013 136.372 456C136.372 454.987 136.052 454.133 135.412 453.44C134.772 452.733 133.958 452.38 132.972 452.38C131.572 452.38 130.532 452.927 129.852 454.02V457.96C130.532 459.067 131.572 459.62 132.972 459.62ZM140.612 464.88V451H142.332V452.1C143.159 451.233 144.246 450.8 145.592 450.8C147.059 450.8 148.266 451.307 149.212 452.32C150.159 453.32 150.632 454.547 150.632 456C150.632 457.453 150.159 458.687 149.212 459.7C148.266 460.7 147.059 461.2 145.592 461.2C144.246 461.2 143.159 460.767 142.332 459.9V464.88H140.612ZM145.452 459.62C146.439 459.62 147.252 459.273 147.892 458.58C148.532 457.873 148.852 457.013 148.852 456C148.852 454.987 148.532 454.133 147.892 453.44C147.252 452.733 146.439 452.38 145.452 452.38C144.052 452.38 143.012 452.927 142.332 454.02V457.96C143.012 459.067 144.052 459.62 145.452 459.62ZM156.093 461.2C155.173 461.2 154.366 461.007 153.673 460.62C152.98 460.22 152.48 459.64 152.173 458.88L153.573 458.1C153.76 458.593 154.086 458.98 154.553 459.26C155.02 459.54 155.54 459.68 156.113 459.68C156.606 459.68 157.02 459.56 157.353 459.32C157.686 459.08 157.853 458.753 157.853 458.34C157.853 457.98 157.72 457.68 157.453 457.44C157.2 457.2 156.753 456.98 156.113 456.78L155.113 456.46C153.446 455.98 152.613 455.007 152.613 453.54C152.613 452.713 152.94 452.053 153.593 451.56C154.26 451.053 155.08 450.8 156.053 450.8C157.573 450.8 158.673 451.38 159.353 452.54L158.073 453.42C157.526 452.66 156.833 452.28 155.993 452.28C155.54 452.28 155.146 452.393 154.813 452.62C154.493 452.833 154.333 453.12 154.333 453.48C154.333 453.813 154.433 454.1 154.633 454.34C154.846 454.567 155.22 454.76 155.753 454.92L156.853 455.26C158.666 455.82 159.573 456.8 159.573 458.2C159.573 459.133 159.246 459.867 158.593 460.4C157.953 460.933 157.12 461.2 156.093 461.2ZM17.88 489.2C16.4133 489.2 15.2067 488.7 14.26 487.7C13.3133 486.687 12.84 485.453 12.84 484C12.84 482.547 13.3133 481.32 14.26 480.32C15.2067 479.307 16.4133 478.8 17.88 478.8C19.2533 478.8 20.34 479.233 21.14 480.1V479H22.86V489H21.14V487.9C20.34 488.767 19.2533 489.2 17.88 489.2ZM18.02 487.62C19.42 487.62 20.46 487.067 21.14 485.96V482.02C20.46 480.927 19.42 480.38 18.02 480.38C17.0333 480.38 16.22 480.733 15.58 481.44C14.94 482.133 14.62 482.987 14.62 484C14.62 485.013 14.94 485.873 15.58 486.58C16.22 487.273 17.0333 487.62 18.02 487.62ZM30.5605 489.2C29.0538 489.2 27.8005 488.7 26.8005 487.7C25.8138 486.7 25.3205 485.467 25.3205 484C25.3205 482.533 25.8138 481.3 26.8005 480.3C27.8005 479.3 29.0538 478.8 30.5605 478.8C31.5738 478.8 32.4805 479.04 33.2805 479.52C34.0938 480 34.7271 480.653 35.1805 481.48L33.6805 482.32C33.3871 481.733 32.9671 481.267 32.4205 480.92C31.8871 480.573 31.2671 480.4 30.5605 480.4C29.5338 480.4 28.6938 480.747 28.0405 481.44C27.3871 482.133 27.0605 482.987 27.0605 484C27.0605 485.013 27.3871 485.867 28.0405 486.56C28.6938 487.253 29.5338 487.6 30.5605 487.6C31.2671 487.6 31.8871 487.427 32.4205 487.08C32.9671 486.733 33.3871 486.267 33.6805 485.68L35.1805 486.52C34.7271 487.347 34.0938 488 33.2805 488.48C32.4805 488.96 31.5738 489.2 30.5605 489.2ZM41.8691 489.2C40.3624 489.2 39.1091 488.7 38.1091 487.7C37.1224 486.7 36.6291 485.467 36.6291 484C36.6291 482.533 37.1224 481.3 38.1091 480.3C39.1091 479.3 40.3624 478.8 41.8691 478.8C42.8824 478.8 43.7891 479.04 44.5891 479.52C45.4024 480 46.0357 480.653 46.4891 481.48L44.9891 482.32C44.6957 481.733 44.2757 481.267 43.7291 480.92C43.1957 480.573 42.5757 480.4 41.8691 480.4C40.8424 480.4 40.0024 480.747 39.3491 481.44C38.6957 482.133 38.3691 482.987 38.3691 484C38.3691 485.013 38.6957 485.867 39.3491 486.56C40.0024 487.253 40.8424 487.6 41.8691 487.6C42.5757 487.6 43.1957 487.427 43.7291 487.08C44.2757 486.733 44.6957 486.267 44.9891 485.68L46.4891 486.52C46.0357 487.347 45.4024 488 44.5891 488.48C43.7891 488.96 42.8824 489.2 41.8691 489.2ZM53.1177 489.2C51.5843 489.2 50.3377 488.707 49.3777 487.72C48.4177 486.733 47.9377 485.493 47.9377 484C47.9377 482.52 48.4243 481.287 49.3977 480.3C50.371 479.3 51.6177 478.8 53.1377 478.8C54.4843 478.8 55.611 479.253 56.5177 480.16C57.4377 481.053 57.8977 482.273 57.8977 483.82C57.8977 484.02 57.891 484.193 57.8777 484.34H49.6777C49.7043 485.273 50.0377 486.053 50.6777 486.68C51.331 487.307 52.151 487.62 53.1377 487.62C54.5377 487.62 55.5777 487.04 56.2577 485.88L57.6177 486.82C56.6443 488.407 55.1443 489.2 53.1177 489.2ZM49.7977 482.94H56.1377C56.0043 482.14 55.651 481.507 55.0777 481.04C54.5177 480.56 53.851 480.32 53.0777 480.32C52.291 480.32 51.5843 480.56 50.9577 481.04C50.3443 481.507 49.9577 482.14 49.7977 482.94ZM63.3588 489.2C62.4388 489.2 61.6321 489.007 60.9388 488.62C60.2454 488.22 59.7454 487.64 59.4388 486.88L60.8388 486.1C61.0254 486.593 61.3521 486.98 61.8188 487.26C62.2854 487.54 62.8054 487.68 63.3788 487.68C63.8721 487.68 64.2854 487.56 64.6188 487.32C64.9521 487.08 65.1188 486.753 65.1188 486.34C65.1188 485.98 64.9854 485.68 64.7188 485.44C64.4654 485.2 64.0188 484.98 63.3788 484.78L62.3788 484.46C60.7121 483.98 59.8788 483.007 59.8788 481.54C59.8788 480.713 60.2054 480.053 60.8588 479.56C61.5254 479.053 62.3454 478.8 63.3188 478.8C64.8388 478.8 65.9388 479.38 66.6188 480.54L65.3388 481.42C64.7921 480.66 64.0988 480.28 63.2588 480.28C62.8054 480.28 62.4121 480.393 62.0788 480.62C61.7588 480.833 61.5988 481.12 61.5988 481.48C61.5988 481.813 61.6988 482.1 61.8988 482.34C62.1121 482.567 62.4854 482.76 63.0188 482.92L64.1188 483.26C65.9321 483.82 66.8388 484.8 66.8388 486.2C66.8388 487.133 66.5121 487.867 65.8588 488.4C65.2188 488.933 64.3854 489.2 63.3588 489.2ZM72.3627 489.2C71.4427 489.2 70.636 489.007 69.9427 488.62C69.2493 488.22 68.7493 487.64 68.4427 486.88L69.8427 486.1C70.0293 486.593 70.356 486.98 70.8227 487.26C71.2893 487.54 71.8093 487.68 72.3827 487.68C72.876 487.68 73.2893 487.56 73.6227 487.32C73.956 487.08 74.1227 486.753 74.1227 486.34C74.1227 485.98 73.9893 485.68 73.7227 485.44C73.4693 485.2 73.0227 484.98 72.3827 484.78L71.3827 484.46C69.716 483.98 68.8827 483.007 68.8827 481.54C68.8827 480.713 69.2093 480.053 69.8627 479.56C70.5293 479.053 71.3493 478.8 72.3227 478.8C73.8427 478.8 74.9427 479.38 75.6227 480.54L74.3427 481.42C73.796 480.66 73.1027 480.28 72.2627 480.28C71.8093 480.28 71.416 480.393 71.0827 480.62C70.7627 480.833 70.6027 481.12 70.6027 481.48C70.6027 481.813 70.7027 482.1 70.9027 482.34C71.116 482.567 71.4893 482.76 72.0227 482.92L73.1227 483.26C74.936 483.82 75.8427 484.8 75.8427 486.2C75.8427 487.133 75.516 487.867 74.8627 488.4C74.2227 488.933 73.3893 489.2 72.3627 489.2ZM80.0866 476.38C79.8599 476.607 79.5732 476.72 79.2266 476.72C78.8799 476.72 78.5866 476.607 78.3466 476.38C78.1066 476.14 77.9866 475.847 77.9866 475.5C77.9866 475.167 78.1066 474.88 78.3466 474.64C78.5866 474.4 78.8799 474.28 79.2266 474.28C79.5732 474.28 79.8599 474.4 80.0866 474.64C80.3266 474.88 80.4466 475.167 80.4466 475.5C80.4466 475.847 80.3266 476.14 80.0866 476.38ZM78.3466 489V479H80.0666V489H78.3466ZM88.307 489.2C86.9604 489.2 85.8737 488.767 85.047 487.9V489H83.327V474.4H85.047V480.1C85.8737 479.233 86.9604 478.8 88.307 478.8C89.7737 478.8 90.9804 479.307 91.927 480.32C92.8737 481.32 93.347 482.547 93.347 484C93.347 485.453 92.8737 486.687 91.927 487.7C90.9804 488.7 89.7737 489.2 88.307 489.2ZM88.167 487.62C89.1537 487.62 89.967 487.273 90.607 486.58C91.247 485.873 91.567 485.013 91.567 484C91.567 482.987 91.247 482.133 90.607 481.44C89.967 480.733 89.1537 480.38 88.167 480.38C86.767 480.38 85.727 480.927 85.047 482.02V485.96C85.727 487.067 86.767 487.62 88.167 487.62ZM95.8075 489V474.4H97.5275V489H95.8075ZM105.188 489.2C103.655 489.2 102.408 488.707 101.448 487.72C100.488 486.733 100.008 485.493 100.008 484C100.008 482.52 100.495 481.287 101.468 480.3C102.441 479.3 103.688 478.8 105.208 478.8C106.555 478.8 107.681 479.253 108.588 480.16C109.508 481.053 109.968 482.273 109.968 483.82C109.968 484.02 109.961 484.193 109.948 484.34H101.748C101.775 485.273 102.108 486.053 102.748 486.68C103.401 487.307 104.221 487.62 105.208 487.62C106.608 487.62 107.648 487.04 108.328 485.88L109.688 486.82C108.715 488.407 107.215 489.2 105.188 489.2ZM101.868 482.94H108.208C108.075 482.14 107.721 481.507 107.148 481.04C106.588 480.56 105.921 480.32 105.148 480.32C104.361 480.32 103.655 480.56 103.028 481.04C102.415 481.507 102.028 482.14 101.868 482.94ZM117.961 489V480.58H115.601V479H117.961V477.54C117.961 476.54 118.248 475.747 118.821 475.16C119.395 474.573 120.181 474.28 121.181 474.28C121.928 474.28 122.621 474.447 123.261 474.78L122.621 476.22C122.101 475.98 121.648 475.86 121.261 475.86C120.755 475.86 120.361 476.02 120.081 476.34C119.815 476.647 119.681 477.08 119.681 477.64V479H123.081V480.58H119.681V489H117.961ZM124.929 489V479H126.649V480.48C126.849 480.053 127.202 479.687 127.709 479.38C128.229 479.06 128.775 478.9 129.349 478.9C129.642 478.9 129.935 478.933 130.229 479L130.009 480.72C129.769 480.64 129.482 480.6 129.149 480.6C128.615 480.6 128.109 480.773 127.629 481.12C127.162 481.453 126.835 481.92 126.649 482.52V489H124.929ZM136.185 489.2C134.678 489.2 133.425 488.7 132.425 487.7C131.438 486.687 130.945 485.453 130.945 484C130.945 482.547 131.438 481.32 132.425 480.32C133.425 479.307 134.678 478.8 136.185 478.8C137.678 478.8 138.918 479.307 139.905 480.32C140.905 481.32 141.405 482.547 141.405 484C141.405 485.453 140.905 486.687 139.905 487.7C138.918 488.7 137.678 489.2 136.185 489.2ZM133.665 486.56C134.318 487.253 135.158 487.6 136.185 487.6C137.212 487.6 138.045 487.253 138.685 486.56C139.325 485.867 139.645 485.013 139.645 484C139.645 482.987 139.325 482.133 138.685 481.44C138.045 480.747 137.212 480.4 136.185 480.4C135.158 480.4 134.318 480.747 133.665 481.44C133.025 482.133 132.705 482.987 132.705 484C132.705 485.013 133.025 485.867 133.665 486.56ZM156.754 489V483.14C156.754 482.287 156.554 481.613 156.154 481.12C155.754 480.627 155.194 480.38 154.474 480.38C153.247 480.38 152.421 481.033 151.994 482.34C152.021 482.58 152.034 482.753 152.034 482.86V489H150.314V483.14C150.314 482.287 150.114 481.613 149.714 481.12C149.314 480.627 148.761 480.38 148.054 480.38C147.467 480.38 146.961 480.54 146.534 480.86C146.107 481.18 145.794 481.607 145.594 482.14V489H143.874V479H145.594V480.06C146.261 479.22 147.214 478.8 148.454 478.8C149.747 478.8 150.721 479.347 151.374 480.44C152.121 479.347 153.241 478.8 154.734 478.8C155.907 478.8 156.821 479.167 157.474 479.9C158.141 480.633 158.474 481.62 158.474 482.86V489H156.754ZM170.166 489.1C169.272 489.1 168.526 488.84 167.926 488.32C167.339 487.787 167.046 487.027 167.046 486.04V480.58H164.526V479H167.046V476.16H168.766V479H171.866V480.58H168.766V485.82C168.766 486.98 169.299 487.56 170.366 487.56C170.899 487.56 171.379 487.433 171.806 487.18L172.326 488.64C171.739 488.947 171.019 489.1 170.166 489.1ZM175.906 489H174.186V474.4H175.906V480.26C176.573 479.287 177.626 478.8 179.066 478.8C180.2 478.8 181.113 479.167 181.806 479.9C182.513 480.633 182.866 481.62 182.866 482.86V489H181.166V483.12C181.166 482.253 180.94 481.58 180.486 481.1C180.046 480.62 179.44 480.38 178.666 480.38C177.28 480.38 176.36 481.04 175.906 482.36V489ZM190.364 489.2C188.83 489.2 187.584 488.707 186.624 487.72C185.664 486.733 185.184 485.493 185.184 484C185.184 482.52 185.67 481.287 186.644 480.3C187.617 479.3 188.864 478.8 190.384 478.8C191.73 478.8 192.857 479.253 193.764 480.16C194.684 481.053 195.144 482.273 195.144 483.82C195.144 484.02 195.137 484.193 195.124 484.34H186.924C186.95 485.273 187.284 486.053 187.924 486.68C188.577 487.307 189.397 487.62 190.384 487.62C191.784 487.62 192.824 487.04 193.504 485.88L194.864 486.82C193.89 488.407 192.39 489.2 190.364 489.2ZM187.044 482.94H193.384C193.25 482.14 192.897 481.507 192.324 481.04C191.764 480.56 191.097 480.32 190.324 480.32C189.537 480.32 188.83 480.56 188.204 481.04C187.59 481.507 187.204 482.14 187.044 482.94ZM13.62 520.88V507H15.34V508.1C16.1667 507.233 17.2533 506.8 18.6 506.8C20.0667 506.8 21.2733 507.307 22.22 508.32C23.1667 509.32 23.64 510.547 23.64 512C23.64 513.453 23.1667 514.687 22.22 515.7C21.2733 516.7 20.0667 517.2 18.6 517.2C17.2533 517.2 16.1667 516.767 15.34 515.9V520.88H13.62ZM18.46 515.62C19.4467 515.62 20.26 515.273 20.9 514.58C21.54 513.873 21.86 513.013 21.86 512C21.86 510.987 21.54 510.133 20.9 509.44C20.26 508.733 19.4467 508.38 18.46 508.38C17.06 508.38 16.02 508.927 15.34 510.02V513.96C16.02 515.067 17.06 515.62 18.46 515.62ZM34.4405 507V517H32.7205V515.74C32.0538 516.713 31.0471 517.2 29.7005 517.2C28.5938 517.2 27.6938 516.833 27.0005 516.1C26.3071 515.367 25.9605 514.38 25.9605 513.14V507H27.6805V512.88C27.6805 513.76 27.8871 514.44 28.3005 514.92C28.7271 515.387 29.3205 515.62 30.0805 515.62C30.7071 515.62 31.2471 515.44 31.7005 515.08C32.1671 514.72 32.5071 514.24 32.7205 513.64V507H34.4405ZM42.6625 517.2C41.3158 517.2 40.2292 516.767 39.4025 515.9V517H37.6825V502.4H39.4025V508.1C40.2292 507.233 41.3158 506.8 42.6625 506.8C44.1292 506.8 45.3358 507.307 46.2825 508.32C47.2292 509.32 47.7025 510.547 47.7025 512C47.7025 513.453 47.2292 514.687 46.2825 515.7C45.3358 516.7 44.1292 517.2 42.6625 517.2ZM42.5225 515.62C43.5092 515.62 44.3225 515.273 44.9625 514.58C45.6025 513.873 45.9225 513.013 45.9225 512C45.9225 510.987 45.6025 510.133 44.9625 509.44C44.3225 508.733 43.5092 508.38 42.5225 508.38C41.1225 508.38 40.0825 508.927 39.4025 510.02V513.96C40.0825 515.067 41.1225 515.62 42.5225 515.62ZM50.163 517V502.4H51.883V517H50.163ZM56.8834 504.38C56.6568 504.607 56.3701 504.72 56.0234 504.72C55.6768 504.72 55.3834 504.607 55.1434 504.38C54.9034 504.14 54.7834 503.847 54.7834 503.5C54.7834 503.167 54.9034 502.88 55.1434 502.64C55.3834 502.4 55.6768 502.28 56.0234 502.28C56.3701 502.28 56.6568 502.4 56.8834 502.64C57.1234 502.88 57.2434 503.167 57.2434 503.5C57.2434 503.847 57.1234 504.14 56.8834 504.38ZM55.1434 517V507H56.8634V517H55.1434ZM64.5839 517.2C63.0772 517.2 61.8239 516.7 60.8239 515.7C59.8372 514.7 59.3439 513.467 59.3439 512C59.3439 510.533 59.8372 509.3 60.8239 508.3C61.8239 507.3 63.0772 506.8 64.5839 506.8C65.5972 506.8 66.5039 507.04 67.3039 507.52C68.1172 508 68.7506 508.653 69.2039 509.48L67.7039 510.32C67.4106 509.733 66.9906 509.267 66.4439 508.92C65.9106 508.573 65.2906 508.4 64.5839 508.4C63.5572 508.4 62.7172 508.747 62.0639 509.44C61.4106 510.133 61.0839 510.987 61.0839 512C61.0839 513.013 61.4106 513.867 62.0639 514.56C62.7172 515.253 63.5572 515.6 64.5839 515.6C65.2906 515.6 65.9106 515.427 66.4439 515.08C66.9906 514.733 67.4106 514.267 67.7039 513.68L69.2039 514.52C68.7506 515.347 68.1172 516 67.3039 516.48C66.5039 516.96 65.5972 517.2 64.5839 517.2ZM77.9967 504.38C77.7701 504.607 77.4834 504.72 77.1367 504.72C76.7901 504.72 76.4967 504.607 76.2567 504.38C76.0167 504.14 75.8967 503.847 75.8967 503.5C75.8967 503.167 76.0167 502.88 76.2567 502.64C76.4967 502.4 76.7901 502.28 77.1367 502.28C77.4834 502.28 77.7701 502.4 77.9967 502.64C78.2367 502.88 78.3567 503.167 78.3567 503.5C78.3567 503.847 78.2367 504.14 77.9967 504.38ZM76.2567 517V507H77.9767V517H76.2567ZM81.2372 517V507H82.9572V508.26C83.6239 507.287 84.6772 506.8 86.1172 506.8C87.2505 506.8 88.1639 507.167 88.8572 507.9C89.5639 508.633 89.9172 509.62 89.9172 510.86V517H88.2172V511.12C88.2172 510.253 87.9905 509.58 87.5372 509.1C87.0972 508.62 86.4905 508.38 85.7172 508.38C84.3305 508.38 83.4105 509.04 82.9572 510.36V517H81.2372ZM97.1383 517.1C96.2449 517.1 95.4983 516.84 94.8983 516.32C94.3116 515.787 94.0183 515.027 94.0183 514.04V508.58H91.4983V507H94.0183V504.16H95.7383V507H98.8383V508.58H95.7383V513.82C95.7383 514.98 96.2716 515.56 97.3383 515.56C97.8716 515.56 98.3516 515.433 98.7783 515.18L99.2983 516.64C98.7116 516.947 97.9916 517.1 97.1383 517.1ZM105.383 517.2C103.85 517.2 102.603 516.707 101.643 515.72C100.683 514.733 100.203 513.493 100.203 512C100.203 510.52 100.69 509.287 101.663 508.3C102.637 507.3 103.883 506.8 105.403 506.8C106.75 506.8 107.877 507.253 108.783 508.16C109.703 509.053 110.163 510.273 110.163 511.82C110.163 512.02 110.157 512.193 110.143 512.34H101.943C101.97 513.273 102.303 514.053 102.943 514.68C103.597 515.307 104.417 515.62 105.403 515.62C106.803 515.62 107.843 515.04 108.523 513.88L109.883 514.82C108.91 516.407 107.41 517.2 105.383 517.2ZM102.063 510.94H108.403C108.27 510.14 107.917 509.507 107.343 509.04C106.783 508.56 106.117 508.32 105.343 508.32C104.557 508.32 103.85 508.56 103.223 509.04C102.61 509.507 102.223 510.14 102.063 510.94ZM112.604 517V507H114.324V508.48C114.524 508.053 114.878 507.687 115.384 507.38C115.904 507.06 116.451 506.9 117.024 506.9C117.318 506.9 117.611 506.933 117.904 507L117.684 508.72C117.444 508.64 117.158 508.6 116.824 508.6C116.291 508.6 115.784 508.773 115.304 509.12C114.838 509.453 114.511 509.92 114.324 510.52V517H112.604ZM119.792 517V507H121.512V508.26C122.179 507.287 123.232 506.8 124.672 506.8C125.805 506.8 126.719 507.167 127.412 507.9C128.119 508.633 128.472 509.62 128.472 510.86V517H126.772V511.12C126.772 510.253 126.545 509.58 126.092 509.1C125.652 508.62 125.045 508.38 124.272 508.38C122.885 508.38 121.965 509.04 121.512 510.36V517H119.792ZM135.969 517.2C134.436 517.2 133.189 516.707 132.229 515.72C131.269 514.733 130.789 513.493 130.789 512C130.789 510.52 131.276 509.287 132.249 508.3C133.223 507.3 134.469 506.8 135.989 506.8C137.336 506.8 138.463 507.253 139.369 508.16C140.289 509.053 140.749 510.273 140.749 511.82C140.749 512.02 140.743 512.193 140.729 512.34H132.529C132.556 513.273 132.889 514.053 133.529 514.68C134.183 515.307 135.003 515.62 135.989 515.62C137.389 515.62 138.429 515.04 139.109 513.88L140.469 514.82C139.496 516.407 137.996 517.2 135.969 517.2ZM132.649 510.94H138.989C138.856 510.14 138.503 509.507 137.929 509.04C137.369 508.56 136.703 508.32 135.929 508.32C135.143 508.32 134.436 508.56 133.809 509.04C133.196 509.507 132.809 510.14 132.649 510.94ZM147.314 517.1C146.421 517.1 145.674 516.84 145.074 516.32C144.487 515.787 144.194 515.027 144.194 514.04V508.58H141.674V507H144.194V504.16H145.914V507H149.014V508.58H145.914V513.82C145.914 514.98 146.447 515.56 147.514 515.56C148.047 515.56 148.527 515.433 148.954 515.18L149.474 516.64C148.887 516.947 148.167 517.1 147.314 517.1Z" fill="#8C8C8C"/>
<rect x="43.5" y="328" width="1" height="64" fill="#5CDBD3"/>
<path d="M80 32H142.389C144.599 32 146.389 33.7909 146.389 36V108C146.389 110.209 148.18 112 150.389 112L214 112" stroke="#5CDBD3" stroke-width="2" stroke-linecap="round" stroke-dasharray="6 6"/>
<path d="M12 134C12 129.582 15.5817 126 20 126H68C72.4183 126 76 129.582 76 134V182C76 186.418 72.4183 190 68 190H20C15.5817 190 12 186.418 12 182V134Z" fill="url(#paint1_linear_1146_36381)"/>
<path d="M25.1998 145.2C25.1998 144.979 25.3789 144.8 25.5998 144.8H62.3998C62.6207 144.8 62.7998 144.979 62.7998 145.2V166.4H25.1998V145.2Z" stroke="black" stroke-width="0.8"/>
<path d="M20.4 174.347C20.4 174.192 20.442 174.041 20.5216 173.908L25.0265 166.4H62.9735L67.4784 173.908C67.558 174.041 67.6 174.192 67.6 174.347C67.6 174.818 67.2181 175.2 66.747 175.2H21.253C20.7819 175.2 20.4 174.818 20.4 174.347Z" stroke="black" stroke-width="0.8"/>
<rect x="26.3999" y="146.8" width="35.2" height="17.6" rx="0.8" fill="#5CDBD3"/>
<path d="M38.3089 170.274C38.3634 170.11 38.5162 170 38.6884 170H49.3118C49.484 170 49.6368 170.11 49.6913 170.274L50.2246 171.874C50.3109 172.133 50.1182 172.4 49.8451 172.4H38.1551C37.882 172.4 37.6893 172.133 37.7756 171.874L38.3089 170.274Z" fill="#5CDBD3"/>
<path d="M20.4 174.4C20.4 173.958 20.7582 173.6 21.2 173.6H66.8C67.2418 173.6 67.6 173.958 67.6 174.4C67.6 174.842 67.2418 175.2 66.8 175.2H21.2C20.7582 175.2 20.4 174.842 20.4 174.4Z" stroke="black" stroke-width="0.8"/>
<path d="M77 157H76V159H77V157ZM214 159C214.552 159 215 158.552 215 158C215 157.448 214.552 157 214 157V159ZM80.1136 159C80.6659 159 81.1136 158.552 81.1136 158C81.1136 157.448 80.6659 157 80.1136 157V159ZM86.3409 157C85.7886 157 85.3409 157.448 85.3409 158C85.3409 158.552 85.7886 159 86.3409 159V157ZM92.5682 159C93.1205 159 93.5682 158.552 93.5682 158C93.5682 157.448 93.1205 157 92.5682 157V159ZM98.7955 157C98.2432 157 97.7955 157.448 97.7955 158C97.7955 158.552 98.2432 159 98.7955 159V157ZM105.023 159C105.575 159 106.023 158.552 106.023 158C106.023 157.448 105.575 157 105.023 157V159ZM111.25 157C110.698 157 110.25 157.448 110.25 158C110.25 158.552 110.698 159 111.25 159V157ZM117.477 159C118.03 159 118.477 158.552 118.477 158C118.477 157.448 118.03 157 117.477 157V159ZM123.705 157C123.152 157 122.705 157.448 122.705 158C122.705 158.552 123.152 159 123.705 159V157ZM129.932 159C130.484 159 130.932 158.552 130.932 158C130.932 157.448 130.484 157 129.932 157V159ZM136.159 157C135.607 157 135.159 157.448 135.159 158C135.159 158.552 135.607 159 136.159 159V157ZM142.386 159C142.939 159 143.386 158.552 143.386 158C143.386 157.448 142.939 157 142.386 157V159ZM148.614 157C148.061 157 147.614 157.448 147.614 158C147.614 158.552 148.061 159 148.614 159V157ZM154.841 159C155.393 159 155.841 158.552 155.841 158C155.841 157.448 155.393 157 154.841 157V159ZM161.068 157C160.516 157 160.068 157.448 160.068 158C160.068 158.552 160.516 159 161.068 159V157ZM167.295 159C167.848 159 168.295 158.552 168.295 158C168.295 157.448 167.848 157 167.295 157V159ZM173.523 157C172.97 157 172.523 157.448 172.523 158C172.523 158.552 172.97 159 173.523 159V157ZM179.75 159C180.302 159 180.75 158.552 180.75 158C180.75 157.448 180.302 157 179.75 157V159ZM185.977 157C185.425 157 184.977 157.448 184.977 158C184.977 158.552 185.425 159 185.977 159V157ZM192.205 159C192.757 159 193.205 158.552 193.205 158C193.205 157.448 192.757 157 192.205 157V159ZM198.432 157C197.88 157 197.432 157.448 197.432 158C197.432 158.552 197.88 159 198.432 159V157ZM204.659 159C205.211 159 205.659 158.552 205.659 158C205.659 157.448 205.211 157 204.659 157V159ZM210.886 157C210.334 157 209.886 157.448 209.886 158C209.886 158.552 210.334 159 210.886 159V157ZM77 159H80.1136V157H77V159ZM86.3409 159H92.5682V157H86.3409V159ZM98.7955 159H105.023V157H98.7955V159ZM111.25 159H117.477V157H111.25V159ZM123.705 159H129.932V157H123.705V159ZM136.159 159H142.386V157H136.159V159ZM148.614 159H154.841V157H148.614V159ZM161.068 159H167.295V157H161.068V159ZM173.523 159H179.75V157H173.523V159ZM185.977 159H192.205V157H185.977V159ZM198.432 159H204.659V157H198.432V159ZM210.886 159H214V157H210.886V159Z" fill="#5CDBD3"/>
<path d="M12 8C12 3.58172 15.5817 0 20 0H68C72.4183 0 76 3.58172 76 8V56C76 60.4183 72.4183 64 68 64H20C15.5817 64 12 60.4183 12 56V8Z" fill="url(#paint2_linear_1146_36381)"/>
<rect x="34.0006" y="13.1998" width="20" height="37.6" rx="2.8" stroke="black" stroke-width="0.8"/>
<path d="M34.0001 45.1998H54.0001V47.9998C54.0001 49.5462 52.7465 50.7998 51.2001 50.7998H36.8001C35.2537 50.7998 34.0001 49.5462 34.0001 47.9998V45.1998Z" stroke="black" stroke-width="0.8"/>
<path d="M53.9999 17.1996L33.9999 17.1996L33.9999 15.9996C33.9999 14.4532 35.2535 13.1996 36.7999 13.1996L51.1999 13.1996C52.7463 13.1996 53.9999 14.4532 53.9999 15.9996L53.9999 17.1996Z" stroke="black" stroke-width="0.8"/>
<circle cx="43.9999" cy="48.0004" r="1.2" stroke="black" stroke-width="0.8"/>
<rect x="35" y="18.2002" width="18" height="26" rx="0.8" fill="#5CDBD3"/>
<defs>
<linearGradient id="paint0_linear_1146_36381" x1="44" y1="244" x2="44" y2="324" gradientUnits="userSpaceOnUse">
<stop stop-color="#B5F5EC"/>
<stop offset="1" stop-color="#36CFC9"/>
</linearGradient>
<linearGradient id="paint1_linear_1146_36381" x1="44" y1="126" x2="44" y2="190" gradientUnits="userSpaceOnUse">
<stop stop-color="#B5F5EC"/>
<stop offset="1" stop-color="#5CDBD3"/>
</linearGradient>
<linearGradient id="paint2_linear_1146_36381" x1="44" y1="0" x2="44" y2="64" gradientUnits="userSpaceOnUse">
<stop stop-color="#B5F5EC"/>
<stop offset="1" stop-color="#5CDBD3"/>
</linearGradient>
</defs>
</svg>

