<svg width="328" height="486" viewBox="0 0 328 486" fill="none" xmlns="http://www.w3.org/2000/svg">
<path d="M219.351 266.5C219.075 266.5 218.851 266.276 218.851 266C218.851 265.724 219.075 265.5 219.351 265.5V266.5ZM214.052 265.5C214.328 265.5 214.552 265.724 214.552 266C214.552 266.276 214.328 266.5 214.052 266.5V265.5ZM208.753 266.5C208.477 266.5 208.253 266.276 208.253 266C208.253 265.724 208.477 265.5 208.753 265.5V266.5ZM203.455 265.5C203.731 265.5 203.955 265.724 203.955 266C203.955 266.276 203.731 266.5 203.455 266.5V265.5ZM198.156 266.5C197.88 266.5 197.656 266.276 197.656 266C197.656 265.724 197.88 265.5 198.156 265.5V266.5ZM192.857 265.5C193.133 265.5 193.357 265.724 193.357 266C193.357 266.276 193.133 266.5 192.857 266.5V265.5ZM187.559 266.5C187.282 266.5 187.059 266.276 187.059 266C187.059 265.724 187.282 265.5 187.559 265.5V266.5ZM182.26 265.5C182.536 265.5 182.76 265.724 182.76 266C182.76 266.276 182.536 266.5 182.26 266.5V265.5ZM177.172 266.262C176.901 266.208 176.725 265.945 176.778 265.675C176.832 265.404 177.095 265.228 177.366 265.281L177.172 266.262ZM173.221 263.563C173.451 263.717 173.512 264.027 173.359 264.257C173.205 264.486 172.894 264.548 172.665 264.394L173.221 263.563ZM169.216 260.946C169.063 260.716 169.124 260.406 169.354 260.252C169.583 260.098 169.894 260.16 170.047 260.389L169.216 260.946ZM168.329 256.245C168.383 256.516 168.207 256.779 167.936 256.832C167.665 256.886 167.402 256.71 167.348 256.439L168.329 256.245ZM167.111 251.2C167.111 250.924 167.334 250.7 167.611 250.7C167.887 250.7 168.111 250.924 168.111 251.2H167.111ZM168.111 245.6C168.111 245.876 167.887 246.1 167.611 246.1C167.334 246.1 167.111 245.876 167.111 245.6H168.111ZM167.111 240C167.111 239.724 167.334 239.5 167.611 239.5C167.887 239.5 168.111 239.724 168.111 240H167.111ZM168.111 234.4C168.111 234.676 167.887 234.9 167.611 234.9C167.334 234.9 167.111 234.676 167.111 234.4H168.111ZM167.111 228.8C167.111 228.524 167.334 228.3 167.611 228.3C167.887 228.3 168.111 228.524 168.111 228.8H167.111ZM168.111 223.2C168.111 223.476 167.887 223.7 167.611 223.7C167.334 223.7 167.111 223.476 167.111 223.2H168.111ZM167.111 217.6C167.111 217.324 167.334 217.1 167.611 217.1C167.887 217.1 168.111 217.324 168.111 217.6H167.111ZM168.111 212C168.111 212.276 167.887 212.5 167.611 212.5C167.334 212.5 167.111 212.276 167.111 212H168.111ZM167.111 206.4C167.111 206.124 167.334 205.9 167.611 205.9C167.887 205.9 168.111 206.124 168.111 206.4H167.111ZM168.111 200.8C168.111 201.076 167.887 201.3 167.611 201.3C167.334 201.3 167.111 201.076 167.111 200.8H168.111ZM166.892 195.755C166.838 195.484 167.014 195.221 167.285 195.168C167.556 195.114 167.819 195.29 167.873 195.561L166.892 195.755ZM166.005 191.054C166.158 191.284 166.097 191.594 165.868 191.748C165.638 191.902 165.327 191.84 165.174 191.611L166.005 191.054ZM162 188.437C161.77 188.283 161.709 187.973 161.862 187.743C162.016 187.514 162.327 187.452 162.556 187.606L162 188.437ZM158.05 185.738C158.32 185.792 158.497 186.055 158.443 186.325C158.389 186.596 158.126 186.772 157.855 186.719L158.05 185.738ZM152.83 186.5C152.554 186.5 152.33 186.276 152.33 186C152.33 185.724 152.554 185.5 152.83 185.5V186.5ZM147.269 185.5C147.545 185.5 147.769 185.724 147.769 186C147.769 186.276 147.545 186.5 147.269 186.5V185.5ZM141.708 186.5C141.432 186.5 141.208 186.276 141.208 186C141.208 185.724 141.432 185.5 141.708 185.5V186.5ZM136.147 185.5C136.423 185.5 136.647 185.724 136.647 186C136.647 186.276 136.423 186.5 136.147 186.5V185.5ZM130.586 186.5C130.31 186.5 130.086 186.276 130.086 186C130.086 185.724 130.31 185.5 130.586 185.5V186.5ZM125.025 185.5C125.301 185.5 125.525 185.724 125.525 186C125.525 186.276 125.301 186.5 125.025 186.5V185.5ZM119.464 186.5C119.188 186.5 118.964 186.276 118.964 186C118.964 185.724 119.188 185.5 119.464 185.5V186.5ZM113.903 185.5C114.179 185.5 114.403 185.724 114.403 186C114.403 186.276 114.179 186.5 113.903 186.5V185.5ZM108.342 186.5C108.065 186.5 107.842 186.276 107.842 186C107.842 185.724 108.065 185.5 108.342 185.5V186.5ZM102.781 185.5C103.057 185.5 103.281 185.724 103.281 186C103.281 186.276 103.057 186.5 102.781 186.5V185.5ZM222 266.5H219.351V265.5H222V266.5ZM214.052 266.5H208.753V265.5H214.052V266.5ZM203.455 266.5H198.156V265.5H203.455V266.5ZM192.857 266.5H187.559V265.5H192.857V266.5ZM182.26 266.5H179.611V265.5H182.26V266.5ZM179.611 266.5C178.776 266.5 177.961 266.418 177.172 266.262L177.366 265.281C178.091 265.425 178.842 265.5 179.611 265.5V266.5ZM172.665 264.394C171.302 263.482 170.129 262.308 169.216 260.946L170.047 260.389C170.887 261.644 171.967 262.724 173.221 263.563L172.665 264.394ZM167.348 256.439C167.192 255.65 167.111 254.834 167.111 254H168.111C168.111 254.769 168.186 255.519 168.329 256.245L167.348 256.439ZM167.111 254V251.2H168.111V254H167.111ZM167.111 245.6V240H168.111V245.6H167.111ZM167.111 234.4V228.8H168.111V234.4H167.111ZM167.111 223.2V217.6H168.111V223.2H167.111ZM167.111 212V206.4H168.111V212H167.111ZM167.111 200.8V198H168.111V200.8H167.111ZM167.111 198C167.111 197.231 167.035 196.481 166.892 195.755L167.873 195.561C168.029 196.35 168.111 197.166 168.111 198H167.111ZM165.174 191.611C164.334 190.356 163.254 189.276 162 188.437L162.556 187.606C163.919 188.518 165.092 189.692 166.005 191.054L165.174 191.611ZM157.855 186.719C157.13 186.575 156.379 186.5 155.611 186.5V185.5C156.445 185.5 157.26 185.582 158.05 185.738L157.855 186.719ZM155.611 186.5H152.83V185.5H155.611V186.5ZM147.269 186.5H141.708V185.5H147.269V186.5ZM136.147 186.5H130.586V185.5H136.147V186.5ZM125.025 186.5H119.464V185.5H125.025V186.5ZM113.903 186.5H108.342V185.5H113.903V186.5ZM102.781 186.5H100V185.5H102.781V186.5Z" fill="#F0F0F0"/>
<path d="M100 177H101.938C103.308 177 104.672 177.168 106 177.5V177.5C107.328 177.832 108.692 178 110.062 178H156C167.046 178 176 186.954 176 198V226" stroke="#262626" stroke-width="2"/>
<path d="M222 274L219.582 274C218.529 274 217.478 273.913 216.439 273.74V273.74C215.481 273.58 214.512 273.494 213.541 273.481L176 273V273C167.163 273 160 265.837 160 257L160 218" stroke="#262626" stroke-width="2"/>
<path d="M100 195H102.769C103.587 195 104.401 194.9 105.194 194.701L106.806 194.299C107.599 194.1 108.413 194 109.231 194H150C155.523 194 160 198.477 160 204V224" stroke="#262626" stroke-width="2"/>
<path d="M222 257L219.231 257C218.413 257 217.599 257.1 216.806 257.299L215.194 257.701C214.401 257.9 213.587 258 212.769 258L186 258C180.477 258 176 253.523 176 248L176 211" stroke="#262626" stroke-width="2"/>
<path d="M4 138C4 133.582 7.58172 130 12 130H76C80.4183 130 84 133.582 84 138V202C84 206.418 80.4183 210 76 210H12C7.58172 210 4 206.418 4 202V138Z" fill="url(#paint0_linear_1146_36381)"/>
<path fill-rule="evenodd" clip-rule="evenodd" d="M69 149H59V159H69V149ZM59 148C58.4477 148 58 148.448 58 149V159C58 159.552 58.4477 160 59 160H69C69.5523 160 70 159.552 70 159V149C70 148.448 69.5523 148 69 148H59ZM55.8501 153.646L52.6681 150.464C52.4728 150.269 52.1562 150.269 51.961 150.464C51.7657 150.66 51.7657 150.976 51.961 151.171L54.2894 153.5H41C40.1716 153.5 39.5 154.171 39.5 155V169.5H32V163C32 162.448 31.5523 162 31 162H17C16.4477 162 16 162.448 16 163V177C16 177.552 16.4477 178 17 178H31C31.5523 178 32 177.552 32 177V170.5H39.5V185C39.5 185.828 40.1716 186.5 41 186.5H54.7929L52.4645 188.828C52.2692 189.024 52.2692 189.34 52.4645 189.535C52.6597 189.731 52.9763 189.731 53.1716 189.535L56.3536 186.353C56.5488 186.158 56.5488 185.842 56.3536 185.646L53.1716 182.464C52.9763 182.269 52.6597 182.269 52.4645 182.464C52.2692 182.66 52.2692 182.976 52.4645 183.171L54.7929 185.5H41C40.7239 185.5 40.5 185.276 40.5 185V170.5H54.7929L52.4645 172.828C52.2692 173.024 52.2692 173.34 52.4645 173.535C52.6597 173.731 52.9763 173.731 53.1716 173.535L56.3536 170.353C56.5488 170.158 56.5488 169.842 56.3536 169.646L53.1716 166.464C52.9763 166.269 52.6597 166.269 52.4645 166.464C52.2692 166.66 52.2692 166.976 52.4645 167.171L54.7929 169.5H40.5V155C40.5 154.724 40.7239 154.5 41 154.5H54.2894L51.961 156.828C51.7657 157.024 51.7657 157.34 51.961 157.535C52.1562 157.731 52.4728 157.731 52.6681 157.535L55.8501 154.353C56.0453 154.158 56.0453 153.842 55.8501 153.646ZM31 163H17V177H31V163ZM59 181H69V191H59V181ZM58 181C58 180.448 58.4477 180 59 180H69C69.5523 180 70 180.448 70 181V191C70 191.552 69.5523 192 69 192H59C58.4477 192 58 191.552 58 191V181ZM59 165H69V175H59V165ZM58 165C58 164.448 58.4477 164 59 164H69C69.5523 164 70 164.448 70 165V175C70 175.552 69.5523 176 69 176H59C58.4477 176 58 175.552 58 175V165Z" fill="#000C17"/>
<rect x="0.5" y="126.5" width="87" height="87" rx="11.5" stroke="#FF9C6E"/>
<path d="M9.74 363V348.8H14.86C16.1667 348.8 17.2067 349.18 17.98 349.94C18.7667 350.687 19.16 351.653 19.16 352.84C19.16 353.84 18.88 354.667 18.32 355.32C17.7733 355.96 16.98 356.393 15.94 356.62L21.22 363H18.34L13.14 356.76H12.08V363H9.74ZM12.08 354.72H14.58C15.2733 354.72 15.82 354.56 16.22 354.24C16.62 353.907 16.82 353.44 16.82 352.84C16.82 352.24 16.62 351.78 16.22 351.46C15.82 351.127 15.2733 350.96 14.58 350.96H12.08V354.72ZM26.5195 363.2C24.9995 363.2 23.7462 362.713 22.7595 361.74C21.7862 360.767 21.2995 359.52 21.2995 358C21.2995 356.52 21.7929 355.287 22.7795 354.3C23.7662 353.3 25.0129 352.8 26.5195 352.8C27.9062 352.8 29.0529 353.24 29.9595 354.12C30.8795 355 31.3395 356.213 31.3395 357.76C31.3395 358.027 31.3329 358.267 31.3195 358.48H23.4595C23.5129 359.293 23.8262 359.953 24.3995 360.46C24.9729 360.953 25.6862 361.2 26.5395 361.2C27.8195 361.2 28.7729 360.693 29.3995 359.68L31.0795 360.88C30.1195 362.427 28.5995 363.2 26.5195 363.2ZM23.5595 356.88H29.1195C28.9995 356.187 28.6862 355.647 28.1795 355.26C27.6862 354.86 27.1062 354.66 26.4395 354.66C25.7462 354.66 25.1262 354.853 24.5795 355.24C24.0462 355.627 23.7062 356.173 23.5595 356.88ZM36.7811 363.2C35.8611 363.2 35.0478 363.027 34.3411 362.68C33.6344 362.32 33.1078 361.787 32.7611 361.08L34.3811 359.92C34.5811 360.347 34.9011 360.687 35.3411 360.94C35.7811 361.18 36.2611 361.3 36.7811 361.3C37.1944 361.3 37.5344 361.207 37.8011 361.02C38.0811 360.833 38.2211 360.573 38.2211 360.24C38.2211 359.947 38.1078 359.707 37.8811 359.52C37.6678 359.333 37.2678 359.147 36.6811 358.96L35.8011 358.72C34.0278 358.24 33.1544 357.22 33.1811 355.66C33.1811 354.793 33.5211 354.1 34.2011 353.58C34.8811 353.06 35.7344 352.8 36.7611 352.8C38.3078 352.8 39.4344 353.367 40.1411 354.5L38.6211 355.66C38.1144 354.98 37.4811 354.64 36.7211 354.64C36.3611 354.64 36.0478 354.727 35.7811 354.9C35.5144 355.06 35.3811 355.287 35.3811 355.58C35.3811 355.847 35.4678 356.073 35.6411 356.26C35.8144 356.447 36.1278 356.613 36.5811 356.76L37.6011 357.06C38.5344 357.34 39.2344 357.72 39.7011 358.2C40.1678 358.667 40.4011 359.3 40.4011 360.1C40.4011 361.047 40.0611 361.8 39.3811 362.36C38.7011 362.92 37.8344 363.2 36.7811 363.2ZM43.7831 351.22C43.3831 351.22 43.0365 351.08 42.7431 350.8C42.4631 350.507 42.3231 350.153 42.3231 349.74C42.3231 349.34 42.4631 349 42.7431 348.72C43.0365 348.427 43.3831 348.28 43.7831 348.28C44.1965 348.28 44.5431 348.427 44.8231 348.72C45.1165 349 45.2631 349.34 45.2631 349.74C45.2631 350.153 45.1165 350.507 44.8231 350.8C44.5431 351.08 44.1965 351.22 43.7831 351.22ZM42.6831 363V353H44.8831V363H42.6831ZM47.8394 363V348.4H50.0394V363H47.8394ZM54.0956 351.22C53.6956 351.22 53.349 351.08 53.0556 350.8C52.7756 350.507 52.6356 350.153 52.6356 349.74C52.6356 349.34 52.7756 349 53.0556 348.72C53.349 348.427 53.6956 348.28 54.0956 348.28C54.509 348.28 54.8556 348.427 55.1356 348.72C55.429 349 55.5756 349.34 55.5756 349.74C55.5756 350.153 55.429 350.507 55.1356 350.8C54.8556 351.08 54.509 351.22 54.0956 351.22ZM52.9956 363V353H55.1956V363H52.9956ZM62.6719 363.2C61.1519 363.2 59.8985 362.713 58.9119 361.74C57.9385 360.767 57.4519 359.52 57.4519 358C57.4519 356.52 57.9452 355.287 58.9319 354.3C59.9185 353.3 61.1652 352.8 62.6719 352.8C64.0585 352.8 65.2052 353.24 66.1119 354.12C67.0319 355 67.4919 356.213 67.4919 357.76C67.4919 358.027 67.4852 358.267 67.4719 358.48H59.6119C59.6652 359.293 59.9785 359.953 60.5519 360.46C61.1252 360.953 61.8385 361.2 62.6919 361.2C63.9719 361.2 64.9252 360.693 65.5519 359.68L67.2319 360.88C66.2719 362.427 64.7519 363.2 62.6719 363.2ZM59.7119 356.88H65.2719C65.1519 356.187 64.8385 355.647 64.3319 355.26C63.8385 354.86 63.2585 354.66 62.5919 354.66C61.8985 354.66 61.2785 354.853 60.7319 355.24C60.1985 355.627 59.8585 356.173 59.7119 356.88ZM69.7534 363V353H71.9534V354.06C72.6334 353.22 73.6134 352.8 74.8934 352.8C76.0801 352.8 77.0268 353.187 77.7334 353.96C78.4534 354.72 78.8134 355.74 78.8134 357.02V363H76.6134V357.38C76.6134 356.567 76.4201 355.933 76.0334 355.48C75.6601 355.027 75.1201 354.8 74.4134 354.8C73.2401 354.8 72.4201 355.327 71.9534 356.38V363H69.7534ZM86.1884 363.2C84.6818 363.2 83.4218 362.707 82.4084 361.72C81.4084 360.72 80.9084 359.48 80.9084 358C80.9084 356.52 81.4084 355.287 82.4084 354.3C83.4218 353.3 84.6818 352.8 86.1884 352.8C87.2151 352.8 88.1351 353.047 88.9484 353.54C89.7751 354.033 90.4084 354.707 90.8484 355.56L88.9284 356.6C88.6751 356.067 88.3084 355.64 87.8284 355.32C87.3484 355 86.8018 354.84 86.1884 354.84C85.3084 354.84 84.5818 355.147 84.0084 355.76C83.4351 356.36 83.1484 357.107 83.1484 358C83.1484 358.893 83.4351 359.647 84.0084 360.26C84.5818 360.86 85.3084 361.16 86.1884 361.16C86.8018 361.16 87.3484 361 87.8284 360.68C88.3084 360.36 88.6751 359.933 88.9284 359.4L90.8484 360.44C90.4084 361.293 89.7751 361.967 88.9484 362.46C88.1351 362.953 87.2151 363.2 86.1884 363.2ZM96.1403 366.88H93.7203L95.7203 362.46L91.4203 353H93.8403L96.9003 360.08L99.9803 353H102.42L96.1403 366.88Z" fill="white"/>
<path d="M9.88 395V380.8H11.74V393.24H18.6V395H9.88ZM24.7045 395.2C23.1979 395.2 21.9445 394.7 20.9445 393.7C19.9579 392.687 19.4645 391.453 19.4645 390C19.4645 388.547 19.9579 387.32 20.9445 386.32C21.9445 385.307 23.1979 384.8 24.7045 384.8C26.1979 384.8 27.4379 385.307 28.4245 386.32C29.4245 387.32 29.9245 388.547 29.9245 390C29.9245 391.453 29.4245 392.687 28.4245 393.7C27.4379 394.7 26.1979 395.2 24.7045 395.2ZM22.1845 392.56C22.8379 393.253 23.6779 393.6 24.7045 393.6C25.7312 393.6 26.5645 393.253 27.2045 392.56C27.8445 391.867 28.1645 391.013 28.1645 390C28.1645 388.987 27.8445 388.133 27.2045 387.44C26.5645 386.747 25.7312 386.4 24.7045 386.4C23.6779 386.4 22.8379 386.747 22.1845 387.44C21.5445 388.133 21.2245 388.987 21.2245 390C21.2245 391.013 21.5445 391.867 22.1845 392.56ZM36.6534 395.2C35.1868 395.2 33.9801 394.7 33.0334 393.7C32.0868 392.687 31.6134 391.453 31.6134 390C31.6134 388.547 32.0868 387.32 33.0334 386.32C33.9801 385.307 35.1868 384.8 36.6534 384.8C38.0268 384.8 39.1134 385.233 39.9134 386.1V385H41.6334V395H39.9134V393.9C39.1134 394.767 38.0268 395.2 36.6534 395.2ZM36.7934 393.62C38.1934 393.62 39.2334 393.067 39.9134 391.96V388.02C39.2334 386.927 38.1934 386.38 36.7934 386.38C35.8068 386.38 34.9934 386.733 34.3534 387.44C33.7134 388.133 33.3934 388.987 33.3934 390C33.3934 391.013 33.7134 391.873 34.3534 392.58C34.9934 393.273 35.8068 393.62 36.7934 393.62ZM49.1339 395.2C47.6672 395.2 46.4606 394.7 45.5139 393.7C44.5672 392.687 44.0939 391.453 44.0939 390C44.0939 388.547 44.5672 387.32 45.5139 386.32C46.4606 385.307 47.6672 384.8 49.1339 384.8C50.5072 384.8 51.5939 385.233 52.3939 386.1V380.4H54.1139V395H52.3939V393.9C51.5939 394.767 50.5072 395.2 49.1339 395.2ZM49.2739 393.62C50.6739 393.62 51.7139 393.067 52.3939 391.96V388.02C51.7139 386.927 50.6739 386.38 49.2739 386.38C48.2872 386.38 47.4739 386.733 46.8339 387.44C46.1939 388.133 45.8739 388.987 45.8739 390C45.8739 391.013 46.1939 391.873 46.8339 392.58C47.4739 393.273 48.2872 393.62 49.2739 393.62ZM67.1586 395.2C65.8119 395.2 64.7253 394.767 63.8986 393.9V395H62.1786V380.4H63.8986V386.1C64.7253 385.233 65.8119 384.8 67.1586 384.8C68.6253 384.8 69.8319 385.307 70.7786 386.32C71.7253 387.32 72.1986 388.547 72.1986 390C72.1986 391.453 71.7253 392.687 70.7786 393.7C69.8319 394.7 68.6253 395.2 67.1586 395.2ZM67.0186 393.62C68.0053 393.62 68.8186 393.273 69.4586 392.58C70.0986 391.873 70.4186 391.013 70.4186 390C70.4186 388.987 70.0986 388.133 69.4586 387.44C68.8186 386.733 68.0053 386.38 67.0186 386.38C65.6186 386.38 64.5786 386.927 63.8986 388.02V391.96C64.5786 393.067 65.6186 393.62 67.0186 393.62ZM78.9191 395.2C77.4524 395.2 76.2457 394.7 75.2991 393.7C74.3524 392.687 73.8791 391.453 73.8791 390C73.8791 388.547 74.3524 387.32 75.2991 386.32C76.2457 385.307 77.4524 384.8 78.9191 384.8C80.2924 384.8 81.3791 385.233 82.1791 386.1V385H83.8991V395H82.1791V393.9C81.3791 394.767 80.2924 395.2 78.9191 395.2ZM79.0591 393.62C80.4591 393.62 81.4991 393.067 82.1791 391.96V388.02C81.4991 386.927 80.4591 386.38 79.0591 386.38C78.0724 386.38 77.2591 386.733 76.6191 387.44C75.9791 388.133 75.6591 388.987 75.6591 390C75.6591 391.013 75.9791 391.873 76.6191 392.58C77.2591 393.273 78.0724 393.62 79.0591 393.62ZM87.1395 395V380.4H88.8595V395H87.1395ZM96.38 395.2C94.9133 395.2 93.7067 394.7 92.76 393.7C91.8133 392.687 91.34 391.453 91.34 390C91.34 388.547 91.8133 387.32 92.76 386.32C93.7067 385.307 94.9133 384.8 96.38 384.8C97.7533 384.8 98.84 385.233 99.64 386.1V385H101.36V395H99.64V393.9C98.84 394.767 97.7533 395.2 96.38 395.2ZM96.52 393.62C97.92 393.62 98.96 393.067 99.64 391.96V388.02C98.96 386.927 97.92 386.38 96.52 386.38C95.5333 386.38 94.72 386.733 94.08 387.44C93.44 388.133 93.12 388.987 93.12 390C93.12 391.013 93.44 391.873 94.08 392.58C94.72 393.273 95.5333 393.62 96.52 393.62ZM104.6 395V385H106.32V386.26C106.987 385.287 108.04 384.8 109.48 384.8C110.614 384.8 111.527 385.167 112.22 385.9C112.927 386.633 113.28 387.62 113.28 388.86V395H111.58V389.12C111.58 388.253 111.354 387.58 110.9 387.1C110.46 386.62 109.854 386.38 109.08 386.38C107.694 386.38 106.774 387.04 106.32 388.36V395H104.6ZM120.838 395.2C119.331 395.2 118.078 394.7 117.078 393.7C116.091 392.7 115.598 391.467 115.598 390C115.598 388.533 116.091 387.3 117.078 386.3C118.078 385.3 119.331 384.8 120.838 384.8C121.851 384.8 122.758 385.04 123.558 385.52C124.371 386 125.004 386.653 125.458 387.48L123.958 388.32C123.664 387.733 123.244 387.267 122.698 386.92C122.164 386.573 121.544 386.4 120.838 386.4C119.811 386.4 118.971 386.747 118.318 387.44C117.664 388.133 117.338 388.987 117.338 390C117.338 391.013 117.664 391.867 118.318 392.56C118.971 393.253 119.811 393.6 120.838 393.6C121.544 393.6 122.164 393.427 122.698 393.08C123.244 392.733 123.664 392.267 123.958 391.68L125.458 392.52C125.004 393.347 124.371 394 123.558 394.48C122.758 394.96 121.851 395.2 120.838 395.2ZM132.086 395.2C130.553 395.2 129.306 394.707 128.346 393.72C127.386 392.733 126.906 391.493 126.906 390C126.906 388.52 127.393 387.287 128.366 386.3C129.34 385.3 130.586 384.8 132.106 384.8C133.453 384.8 134.58 385.253 135.486 386.16C136.406 387.053 136.866 388.273 136.866 389.82C136.866 390.02 136.86 390.193 136.846 390.34H128.646C128.673 391.273 129.006 392.053 129.646 392.68C130.3 393.307 131.12 393.62 132.106 393.62C133.506 393.62 134.546 393.04 135.226 391.88L136.586 392.82C135.613 394.407 134.113 395.2 132.086 395.2ZM128.766 388.94H135.106C134.973 388.14 134.62 387.507 134.046 387.04C133.486 386.56 132.82 386.32 132.046 386.32C131.26 386.32 130.553 386.56 129.926 387.04C129.313 387.507 128.926 388.14 128.766 388.94ZM147.904 395.1C147.011 395.1 146.264 394.84 145.664 394.32C145.077 393.787 144.784 393.027 144.784 392.04V386.58H142.264V385H144.784V382.16H146.504V385H149.604V386.58H146.504V391.82C146.504 392.98 147.037 393.56 148.104 393.56C148.637 393.56 149.117 393.433 149.544 393.18L150.064 394.64C149.477 394.947 148.757 395.1 147.904 395.1ZM151.925 395V385H153.645V386.48C153.845 386.053 154.198 385.687 154.705 385.38C155.225 385.06 155.771 384.9 156.345 384.9C156.638 384.9 156.931 384.933 157.225 385L157.005 386.72C156.765 386.64 156.478 386.6 156.145 386.6C155.611 386.6 155.105 386.773 154.625 387.12C154.158 387.453 153.831 387.92 153.645 388.52V395H151.925ZM163.021 395.2C161.554 395.2 160.347 394.7 159.401 393.7C158.454 392.687 157.981 391.453 157.981 390C157.981 388.547 158.454 387.32 159.401 386.32C160.347 385.307 161.554 384.8 163.021 384.8C164.394 384.8 165.481 385.233 166.281 386.1V385H168.001V395H166.281V393.9C165.481 394.767 164.394 395.2 163.021 395.2ZM163.161 393.62C164.561 393.62 165.601 393.067 166.281 391.96V388.02C165.601 386.927 164.561 386.38 163.161 386.38C162.174 386.38 161.361 386.733 160.721 387.44C160.081 388.133 159.761 388.987 159.761 390C159.761 391.013 160.081 391.873 160.721 392.58C161.361 393.273 162.174 393.62 163.161 393.62ZM188.741 382.38C188.514 382.607 188.228 382.72 187.881 382.72C187.534 382.72 187.241 382.607 187.001 382.38C186.761 382.14 186.641 381.847 186.641 381.5C186.641 381.167 186.761 380.88 187.001 380.64C187.241 380.4 187.534 380.28 187.881 380.28C188.228 380.28 188.514 380.4 188.741 380.64C188.981 380.88 189.101 381.167 189.101 381.5C189.101 381.847 188.981 382.14 188.741 382.38ZM187.001 395V385H188.721V395H187.001ZM172.301 395V386.58H169.941V385H172.301V383.54C172.301 382.553 172.588 381.767 173.161 381.18C173.748 380.58 174.534 380.28 175.521 380.28C176.281 380.28 176.981 380.447 177.621 380.78L176.961 382.22C176.441 381.98 175.988 381.86 175.601 381.86C175.094 381.86 174.701 382.02 174.421 382.34C174.154 382.647 174.021 383.08 174.021 383.64V385H176.901V386.58H174.021V395H172.301ZM180.041 395V386.58H178.021V385H180.041V383.54C180.041 382.54 180.328 381.747 180.901 381.16C181.474 380.573 182.261 380.28 183.261 380.28C184.008 380.28 184.701 380.447 185.341 380.78L184.701 382.22C184.181 381.98 183.728 381.86 183.341 381.86C182.834 381.86 182.441 382.02 182.161 382.34C181.894 382.647 181.761 383.08 181.761 383.64V385H185.161V386.58H181.761V395H180.041ZM196.443 395.2C194.937 395.2 193.683 394.7 192.683 393.7C191.697 392.7 191.203 391.467 191.203 390C191.203 388.533 191.697 387.3 192.683 386.3C193.683 385.3 194.937 384.8 196.443 384.8C197.457 384.8 198.363 385.04 199.163 385.52C199.977 386 200.61 386.653 201.063 387.48L199.563 388.32C199.27 387.733 198.85 387.267 198.303 386.92C197.77 386.573 197.15 386.4 196.443 386.4C195.417 386.4 194.577 386.747 193.923 387.44C193.27 388.133 192.943 388.987 192.943 390C192.943 391.013 193.27 391.867 193.923 392.56C194.577 393.253 195.417 393.6 196.443 393.6C197.15 393.6 197.77 393.427 198.303 393.08C198.85 392.733 199.27 392.267 199.563 391.68L201.063 392.52C200.61 393.347 199.977 394 199.163 394.48C198.363 394.96 197.457 395.2 196.443 395.2ZM13.88 423.2C12.4133 423.2 11.2067 422.7 10.26 421.7C9.31333 420.687 8.84 419.453 8.84 418C8.84 416.547 9.31333 415.32 10.26 414.32C11.2067 413.307 12.4133 412.8 13.88 412.8C15.2533 412.8 16.34 413.233 17.14 414.1V413H18.86V423H17.14V421.9C16.34 422.767 15.2533 423.2 13.88 423.2ZM14.02 421.62C15.42 421.62 16.46 421.067 17.14 419.96V416.02C16.46 414.927 15.42 414.38 14.02 414.38C13.0333 414.38 12.22 414.733 11.58 415.44C10.94 416.133 10.62 416.987 10.62 418C10.62 419.013 10.94 419.873 11.58 420.58C12.22 421.273 13.0333 421.62 14.02 421.62ZM26.5605 423.2C25.0538 423.2 23.8005 422.7 22.8005 421.7C21.8138 420.7 21.3205 419.467 21.3205 418C21.3205 416.533 21.8138 415.3 22.8005 414.3C23.8005 413.3 25.0538 412.8 26.5605 412.8C27.5738 412.8 28.4805 413.04 29.2805 413.52C30.0938 414 30.7271 414.653 31.1805 415.48L29.6805 416.32C29.3871 415.733 28.9671 415.267 28.4205 414.92C27.8871 414.573 27.2671 414.4 26.5605 414.4C25.5338 414.4 24.6938 414.747 24.0405 415.44C23.3871 416.133 23.0605 416.987 23.0605 418C23.0605 419.013 23.3871 419.867 24.0405 420.56C24.6938 421.253 25.5338 421.6 26.5605 421.6C27.2671 421.6 27.8871 421.427 28.4205 421.08C28.9671 420.733 29.3871 420.267 29.6805 419.68L31.1805 420.52C30.7271 421.347 30.0938 422 29.2805 422.48C28.4805 422.96 27.5738 423.2 26.5605 423.2ZM33.4091 423V413H35.1291V414.48C35.3291 414.053 35.6824 413.687 36.1891 413.38C36.7091 413.06 37.2557 412.9 37.8291 412.9C38.1224 412.9 38.4157 412.933 38.7091 413L38.4891 414.72C38.2491 414.64 37.9624 414.6 37.6291 414.6C37.0957 414.6 36.5891 414.773 36.1091 415.12C35.6424 415.453 35.3157 415.92 35.1291 416.52V423H33.4091ZM44.6655 423.2C43.1588 423.2 41.9055 422.7 40.9055 421.7C39.9188 420.687 39.4255 419.453 39.4255 418C39.4255 416.547 39.9188 415.32 40.9055 414.32C41.9055 413.307 43.1588 412.8 44.6655 412.8C46.1588 412.8 47.3988 413.307 48.3855 414.32C49.3855 415.32 49.8855 416.547 49.8855 418C49.8855 419.453 49.3855 420.687 48.3855 421.7C47.3988 422.7 46.1588 423.2 44.6655 423.2ZM42.1455 420.56C42.7988 421.253 43.6388 421.6 44.6655 421.6C45.6921 421.6 46.5255 421.253 47.1655 420.56C47.8055 419.867 48.1255 419.013 48.1255 418C48.1255 416.987 47.8055 416.133 47.1655 415.44C46.5255 414.747 45.6921 414.4 44.6655 414.4C43.6388 414.4 42.7988 414.747 42.1455 415.44C41.5055 416.133 41.1855 416.987 41.1855 418C41.1855 419.013 41.5055 419.867 42.1455 420.56ZM55.3548 423.2C54.4348 423.2 53.6282 423.007 52.9348 422.62C52.2415 422.22 51.7415 421.64 51.4348 420.88L52.8348 420.1C53.0215 420.593 53.3482 420.98 53.8148 421.26C54.2815 421.54 54.8015 421.68 55.3748 421.68C55.8682 421.68 56.2815 421.56 56.6148 421.32C56.9482 421.08 57.1148 420.753 57.1148 420.34C57.1148 419.98 56.9815 419.68 56.7148 419.44C56.4615 419.2 56.0148 418.98 55.3748 418.78L54.3748 418.46C52.7082 417.98 51.8748 417.007 51.8748 415.54C51.8748 414.713 52.2015 414.053 52.8548 413.56C53.5215 413.053 54.3415 412.8 55.3148 412.8C56.8348 412.8 57.9348 413.38 58.6148 414.54L57.3348 415.42C56.7882 414.66 56.0948 414.28 55.2548 414.28C54.8015 414.28 54.4082 414.393 54.0748 414.62C53.7548 414.833 53.5948 415.12 53.5948 415.48C53.5948 415.813 53.6948 416.1 53.8948 416.34C54.1082 416.567 54.4815 416.76 55.0148 416.92L56.1148 417.26C57.9282 417.82 58.8348 418.8 58.8348 420.2C58.8348 421.133 58.5082 421.867 57.8548 422.4C57.2148 422.933 56.3815 423.2 55.3548 423.2ZM64.3588 423.2C63.4388 423.2 62.6321 423.007 61.9388 422.62C61.2454 422.22 60.7454 421.64 60.4388 420.88L61.8388 420.1C62.0254 420.593 62.3521 420.98 62.8188 421.26C63.2854 421.54 63.8054 421.68 64.3788 421.68C64.8721 421.68 65.2854 421.56 65.6188 421.32C65.9521 421.08 66.1188 420.753 66.1188 420.34C66.1188 419.98 65.9854 419.68 65.7188 419.44C65.4654 419.2 65.0188 418.98 64.3788 418.78L63.3788 418.46C61.7121 417.98 60.8788 417.007 60.8788 415.54C60.8788 414.713 61.2054 414.053 61.8588 413.56C62.5254 413.053 63.3454 412.8 64.3188 412.8C65.8388 412.8 66.9388 413.38 67.6188 414.54L66.3388 415.42C65.7921 414.66 65.0988 414.28 64.2588 414.28C63.8054 414.28 63.4121 414.393 63.0788 414.62C62.7588 414.833 62.5988 415.12 62.5988 415.48C62.5988 415.813 62.6988 416.1 62.8988 416.34C63.1121 416.567 63.4854 416.76 64.0188 416.92L65.1188 417.26C66.9321 417.82 67.8388 418.8 67.8388 420.2C67.8388 421.133 67.5121 421.867 66.8588 422.4C66.2188 422.933 65.3854 423.2 64.3588 423.2ZM88.0469 423V417.14C88.0469 416.287 87.8469 415.613 87.4469 415.12C87.0469 414.627 86.4869 414.38 85.7669 414.38C84.5402 414.38 83.7135 415.033 83.2869 416.34C83.3135 416.58 83.3269 416.753 83.3269 416.86V423H81.6069V417.14C81.6069 416.287 81.4069 415.613 81.0069 415.12C80.6069 414.627 80.0535 414.38 79.3469 414.38C78.7602 414.38 78.2535 414.54 77.8269 414.86C77.4002 415.18 77.0869 415.607 76.8869 416.14V423H75.1669V413H76.8869V414.06C77.5535 413.22 78.5069 412.8 79.7469 412.8C81.0402 412.8 82.0135 413.347 82.6669 414.44C83.4135 413.347 84.5335 412.8 86.0269 412.8C87.2002 412.8 88.1135 413.167 88.7669 413.9C89.4335 414.633 89.7669 415.62 89.7669 416.86V423H88.0469ZM101.202 413V423H99.4822V421.74C98.8155 422.713 97.8089 423.2 96.4622 423.2C95.3555 423.2 94.4555 422.833 93.7622 422.1C93.0689 421.367 92.7222 420.38 92.7222 419.14V413H94.4422V418.88C94.4422 419.76 94.6489 420.44 95.0622 420.92C95.4889 421.387 96.0822 421.62 96.8422 421.62C97.4689 421.62 98.0089 421.44 98.4622 421.08C98.9289 420.72 99.2689 420.24 99.4822 419.64V413H101.202ZM104.444 423V408.4H106.164V423H104.444ZM113.705 423.1C112.811 423.1 112.065 422.84 111.465 422.32C110.878 421.787 110.585 421.027 110.585 420.04V414.58H108.065V413H110.585V410.16H112.305V413H115.405V414.58H112.305V419.82C112.305 420.98 112.838 421.56 113.905 421.56C114.438 421.56 114.918 421.433 115.345 421.18L115.865 422.64C115.278 422.947 114.558 423.1 113.705 423.1ZM119.465 410.38C119.239 410.607 118.952 410.72 118.605 410.72C118.259 410.72 117.965 410.607 117.725 410.38C117.485 410.14 117.365 409.847 117.365 409.5C117.365 409.167 117.485 408.88 117.725 408.64C117.965 408.4 118.259 408.28 118.605 408.28C118.952 408.28 119.239 408.4 119.465 408.64C119.705 408.88 119.825 409.167 119.825 409.5C119.825 409.847 119.705 410.14 119.465 410.38ZM117.725 423V413H119.445V423H117.725ZM122.706 426.88V413H124.426V414.1C125.253 413.233 126.339 412.8 127.686 412.8C129.153 412.8 130.359 413.307 131.306 414.32C132.253 415.32 132.726 416.547 132.726 418C132.726 419.453 132.253 420.687 131.306 421.7C130.359 422.7 129.153 423.2 127.686 423.2C126.339 423.2 125.253 422.767 124.426 421.9V426.88H122.706ZM127.546 421.62C128.533 421.62 129.346 421.273 129.986 420.58C130.626 419.873 130.946 419.013 130.946 418C130.946 416.987 130.626 416.133 129.986 415.44C129.346 414.733 128.533 414.38 127.546 414.38C126.146 414.38 125.106 414.927 124.426 416.02V419.96C125.106 421.067 126.146 421.62 127.546 421.62ZM135.186 423V408.4H136.906V423H135.186ZM144.567 423.2C143.034 423.2 141.787 422.707 140.827 421.72C139.867 420.733 139.387 419.493 139.387 418C139.387 416.52 139.874 415.287 140.847 414.3C141.82 413.3 143.067 412.8 144.587 412.8C145.934 412.8 147.06 413.253 147.967 414.16C148.887 415.053 149.347 416.273 149.347 417.82C149.347 418.02 149.34 418.193 149.327 418.34H141.127C141.154 419.273 141.487 420.053 142.127 420.68C142.78 421.307 143.6 421.62 144.587 421.62C145.987 421.62 147.027 421.04 147.707 419.88L149.067 420.82C148.094 422.407 146.594 423.2 144.567 423.2ZM141.247 416.94H147.587C147.454 416.14 147.1 415.507 146.527 415.04C145.967 414.56 145.3 414.32 144.527 414.32C143.74 414.32 143.034 414.56 142.407 415.04C141.794 415.507 141.407 416.14 141.247 416.94ZM12.64 451.2C11.72 451.2 10.9133 451.007 10.22 450.62C9.52667 450.22 9.02667 449.64 8.72 448.88L10.12 448.1C10.3067 448.593 10.6333 448.98 11.1 449.26C11.5667 449.54 12.0867 449.68 12.66 449.68C13.1533 449.68 13.5667 449.56 13.9 449.32C14.2333 449.08 14.4 448.753 14.4 448.34C14.4 447.98 14.2667 447.68 14 447.44C13.7467 447.2 13.3 446.98 12.66 446.78L11.66 446.46C9.99333 445.98 9.16 445.007 9.16 443.54C9.16 442.713 9.48667 442.053 10.14 441.56C10.8067 441.053 11.6267 440.8 12.6 440.8C14.12 440.8 15.22 441.38 15.9 442.54L14.62 443.42C14.0733 442.66 13.38 442.28 12.54 442.28C12.0867 442.28 11.6933 442.393 11.36 442.62C11.04 442.833 10.88 443.12 10.88 443.48C10.88 443.813 10.98 444.1 11.18 444.34C11.3933 444.567 11.7667 444.76 12.3 444.92L13.4 445.26C15.2133 445.82 16.12 446.8 16.12 448.2C16.12 449.133 15.7933 449.867 15.14 450.4C14.5 450.933 13.6667 451.2 12.64 451.2ZM23.0239 451.2C21.4906 451.2 20.2439 450.707 19.2839 449.72C18.3239 448.733 17.8439 447.493 17.8439 446C17.8439 444.52 18.3306 443.287 19.3039 442.3C20.2772 441.3 21.5239 440.8 23.0439 440.8C24.3906 440.8 25.5172 441.253 26.4239 442.16C27.3439 443.053 27.8039 444.273 27.8039 445.82C27.8039 446.02 27.7972 446.193 27.7839 446.34H19.5839C19.6106 447.273 19.9439 448.053 20.5839 448.68C21.2372 449.307 22.0572 449.62 23.0439 449.62C24.4439 449.62 25.4839 449.04 26.1639 447.88L27.5239 448.82C26.5506 450.407 25.0506 451.2 23.0239 451.2ZM19.7039 444.94H26.0439C25.9106 444.14 25.5572 443.507 24.9839 443.04C24.4239 442.56 23.7572 442.32 22.9839 442.32C22.1972 442.32 21.4906 442.56 20.8639 443.04C20.2506 443.507 19.8639 444.14 19.7039 444.94ZM30.245 451V441H31.965V442.48C32.165 442.053 32.5183 441.687 33.025 441.38C33.545 441.06 34.0917 440.9 34.665 440.9C34.9583 440.9 35.2517 440.933 35.545 441L35.325 442.72C35.085 442.64 34.7983 442.6 34.465 442.6C33.9317 442.6 33.425 442.773 32.945 443.12C32.4783 443.453 32.1517 443.92 31.965 444.52V451H30.245ZM40.5525 451L35.9325 441H37.8525L41.2725 448.58L44.6925 441H46.6125L41.9925 451H40.5525ZM50.0905 438.38C49.8638 438.607 49.5771 438.72 49.2305 438.72C48.8838 438.72 48.5905 438.607 48.3505 438.38C48.1105 438.14 47.9905 437.847 47.9905 437.5C47.9905 437.167 48.1105 436.88 48.3505 436.64C48.5905 436.4 48.8838 436.28 49.2305 436.28C49.5771 436.28 49.8638 436.4 50.0905 436.64C50.3305 436.88 50.4505 437.167 50.4505 437.5C50.4505 437.847 50.3305 438.14 50.0905 438.38ZM48.3505 451V441H50.0705V451H48.3505ZM57.7909 451.2C56.2843 451.2 55.0309 450.7 54.0309 449.7C53.0443 448.7 52.5509 447.467 52.5509 446C52.5509 444.533 53.0443 443.3 54.0309 442.3C55.0309 441.3 56.2843 440.8 57.7909 440.8C58.8043 440.8 59.7109 441.04 60.5109 441.52C61.3243 442 61.9576 442.653 62.4109 443.48L60.9109 444.32C60.6176 443.733 60.1976 443.267 59.6509 442.92C59.1176 442.573 58.4976 442.4 57.7909 442.4C56.7643 442.4 55.9243 442.747 55.2709 443.44C54.6176 444.133 54.2909 444.987 54.2909 446C54.2909 447.013 54.6176 447.867 55.2709 448.56C55.9243 449.253 56.7643 449.6 57.7909 449.6C58.4976 449.6 59.1176 449.427 59.6509 449.08C60.1976 448.733 60.6176 448.267 60.9109 447.68L62.4109 448.52C61.9576 449.347 61.3243 450 60.5109 450.48C59.7109 450.96 58.8043 451.2 57.7909 451.2ZM69.0395 451.2C67.5062 451.2 66.2595 450.707 65.2995 449.72C64.3395 448.733 63.8595 447.493 63.8595 446C63.8595 444.52 64.3462 443.287 65.3195 442.3C66.2929 441.3 67.5395 440.8 69.0595 440.8C70.4062 440.8 71.5329 441.253 72.4395 442.16C73.3595 443.053 73.8195 444.273 73.8195 445.82C73.8195 446.02 73.8129 446.193 73.7995 446.34H65.5995C65.6262 447.273 65.9595 448.053 66.5995 448.68C67.2529 449.307 68.0729 449.62 69.0595 449.62C70.4595 449.62 71.4995 449.04 72.1795 447.88L73.5395 448.82C72.5662 450.407 71.0662 451.2 69.0395 451.2ZM65.7195 444.94H72.0595C71.9262 444.14 71.5729 443.507 70.9995 443.04C70.4395 442.56 69.7729 442.32 68.9995 442.32C68.2129 442.32 67.5062 442.56 66.8795 443.04C66.2662 443.507 65.8795 444.14 65.7195 444.94ZM79.2806 451.2C78.3606 451.2 77.554 451.007 76.8606 450.62C76.1673 450.22 75.6673 449.64 75.3606 448.88L76.7606 448.1C76.9473 448.593 77.274 448.98 77.7406 449.26C78.2073 449.54 78.7273 449.68 79.3006 449.68C79.794 449.68 80.2073 449.56 80.5406 449.32C80.874 449.08 81.0406 448.753 81.0406 448.34C81.0406 447.98 80.9073 447.68 80.6406 447.44C80.3873 447.2 79.9406 446.98 79.3006 446.78L78.3006 446.46C76.634 445.98 75.8006 445.007 75.8006 443.54C75.8006 442.713 76.1273 442.053 76.7806 441.56C77.4473 441.053 78.2673 440.8 79.2406 440.8C80.7606 440.8 81.8606 441.38 82.5406 442.54L81.2606 443.42C80.714 442.66 80.0206 442.28 79.1806 442.28C78.7273 442.28 78.334 442.393 78.0006 442.62C77.6806 442.833 77.5206 443.12 77.5206 443.48C77.5206 443.813 77.6206 444.1 77.8206 444.34C78.034 444.567 78.4073 444.76 78.9406 444.92L80.0406 445.26C81.854 445.82 82.7606 446.8 82.7606 448.2C82.7606 449.133 82.434 449.867 81.7806 450.4C81.1406 450.933 80.3073 451.2 79.2806 451.2Z" fill="#8C8C8C"/>
<rect x="43.5" y="214" width="1" height="112" fill="#FF9C6E"/>
<path d="M219.351 267C218.798 267 218.351 266.552 218.351 266C218.351 265.448 218.798 265 219.351 265V267ZM214.052 265C214.604 265 215.052 265.448 215.052 266C215.052 266.552 214.604 267 214.052 267V265ZM208.753 267C208.201 267 207.753 266.552 207.753 266C207.753 265.448 208.201 265 208.753 265V267ZM203.455 265C204.007 265 204.455 265.448 204.455 266C204.455 266.552 204.007 267 203.455 267V265ZM198.156 267C197.604 267 197.156 266.552 197.156 266C197.156 265.448 197.604 265 198.156 265V267ZM192.857 265C193.41 265 193.857 265.448 193.857 266C193.857 266.552 193.41 267 192.857 267V265ZM187.559 267C187.006 267 186.559 266.552 186.559 266C186.559 265.448 187.006 265 187.559 265V267ZM182.26 265C182.812 265 183.26 265.448 183.26 266C183.26 266.552 182.812 267 182.26 267V265ZM177.075 266.753C176.533 266.645 176.18 266.119 176.288 265.578C176.395 265.036 176.921 264.683 177.463 264.791L177.075 266.753ZM173.499 263.148C173.958 263.455 174.081 264.076 173.774 264.535C173.467 264.994 172.846 265.117 172.387 264.81L173.499 263.148ZM168.801 261.224C168.494 260.765 168.617 260.144 169.075 259.836C169.534 259.529 170.155 259.652 170.463 260.111L168.801 261.224ZM168.82 256.148C168.927 256.69 168.575 257.216 168.033 257.323C167.491 257.43 166.965 257.078 166.858 256.536L168.82 256.148ZM166.611 251.2C166.611 250.648 167.058 250.2 167.611 250.2C168.163 250.2 168.611 250.648 168.611 251.2H166.611ZM168.611 245.6C168.611 246.152 168.163 246.6 167.611 246.6C167.058 246.6 166.611 246.152 166.611 245.6H168.611ZM166.611 240C166.611 239.448 167.058 239 167.611 239C168.163 239 168.611 239.448 168.611 240H166.611ZM168.611 234.4C168.611 234.952 168.163 235.4 167.611 235.4C167.058 235.4 166.611 234.952 166.611 234.4H168.611ZM166.611 228.8C166.611 228.248 167.058 227.8 167.611 227.8C168.163 227.8 168.611 228.248 168.611 228.8H166.611ZM168.611 223.2C168.611 223.752 168.163 224.2 167.611 224.2C167.058 224.2 166.611 223.752 166.611 223.2H168.611ZM166.611 217.6C166.611 217.048 167.058 216.6 167.611 216.6C168.163 216.6 168.611 217.048 168.611 217.6H166.611ZM168.611 212C168.611 212.552 168.163 213 167.611 213C167.058 213 166.611 212.552 166.611 212H168.611ZM166.611 206.4C166.611 205.848 167.058 205.4 167.611 205.4C168.163 205.4 168.611 205.848 168.611 206.4H166.611ZM168.611 200.8C168.611 201.352 168.163 201.8 167.611 201.8C167.058 201.8 166.611 201.352 166.611 200.8H168.611ZM166.401 195.852C166.294 195.31 166.646 194.784 167.188 194.677C167.73 194.57 168.256 194.922 168.363 195.464L166.401 195.852ZM166.42 190.776C166.728 191.235 166.605 191.856 166.146 192.164C165.687 192.471 165.066 192.348 164.758 191.889L166.42 190.776ZM161.722 188.852C161.263 188.545 161.14 187.924 161.447 187.465C161.754 187.006 162.375 186.883 162.834 187.19L161.722 188.852ZM158.147 185.247C158.688 185.355 159.041 185.881 158.933 186.422C158.826 186.964 158.3 187.317 157.758 187.209L158.147 185.247ZM152.83 187C152.278 187 151.83 186.552 151.83 186C151.83 185.448 152.278 185 152.83 185V187ZM147.269 185C147.821 185 148.269 185.448 148.269 186C148.269 186.552 147.821 187 147.269 187V185ZM141.708 187C141.156 187 140.708 186.552 140.708 186C140.708 185.448 141.156 185 141.708 185V187ZM136.147 185C136.699 185 137.147 185.448 137.147 186C137.147 186.552 136.699 187 136.147 187V185ZM130.586 187C130.034 187 129.586 186.552 129.586 186C129.586 185.448 130.034 185 130.586 185V187ZM125.025 185C125.577 185 126.025 185.448 126.025 186C126.025 186.552 125.577 187 125.025 187V185ZM119.464 187C118.911 187 118.464 186.552 118.464 186C118.464 185.448 118.911 185 119.464 185V187ZM113.903 185C114.455 185 114.903 185.448 114.903 186C114.903 186.552 114.455 187 113.903 187V185ZM108.342 187C107.789 187 107.342 186.552 107.342 186C107.342 185.448 107.789 185 108.342 185V187ZM102.781 185C103.333 185 103.781 185.448 103.781 186C103.781 186.552 103.333 187 102.781 187V185ZM222 267H219.351V265H222V267ZM214.052 267H208.753V265H214.052V267ZM203.455 267H198.156V265H203.455V267ZM192.857 267H187.559V265H192.857V267ZM182.26 267H179.611V265H182.26V267ZM179.611 267C178.744 267 177.896 266.915 177.075 266.753L177.463 264.791C178.157 264.928 178.875 265 179.611 265V267ZM172.387 264.81C170.97 263.861 169.75 262.641 168.801 261.224L170.463 260.111C171.266 261.311 172.299 262.344 173.499 263.148L172.387 264.81ZM166.858 256.536C166.696 255.715 166.611 254.867 166.611 254H168.611C168.611 254.736 168.683 255.454 168.82 256.148L166.858 256.536ZM166.611 254V251.2H168.611V254H166.611ZM166.611 245.6V240H168.611V245.6H166.611ZM166.611 234.4V228.8H168.611V234.4H166.611ZM166.611 223.2V217.6H168.611V223.2H166.611ZM166.611 212V206.4H168.611V212H166.611ZM166.611 200.8V198H168.611V200.8H166.611ZM166.611 198C166.611 197.264 166.538 196.546 166.401 195.852L168.363 195.464C168.526 196.285 168.611 197.133 168.611 198H166.611ZM164.758 191.889C163.955 190.689 162.922 189.656 161.722 188.852L162.834 187.19C164.252 188.139 165.471 189.359 166.42 190.776L164.758 191.889ZM157.758 187.209C157.065 187.072 156.346 187 155.611 187V185C156.477 185 157.326 185.085 158.147 185.247L157.758 187.209ZM155.611 187H152.83V185H155.611V187ZM147.269 187H141.708V185H147.269V187ZM136.147 187H130.586V185H136.147V187ZM125.025 187H119.464V185H125.025V187ZM113.903 187H108.342V185H113.903V187ZM102.781 187H100V185H102.781V187Z" fill="#FF9C6E"/>
<path d="M100 177H101.938C103.308 177 104.672 177.168 106 177.5V177.5C107.328 177.832 108.692 178 110.062 178H156C167.046 178 176 186.954 176 198V226" stroke="#FFD8BF"/>
<path d="M222 274L219.582 274C218.529 274 217.478 273.913 216.439 273.74V273.74C215.481 273.58 214.512 273.494 213.541 273.481L176 273V273C167.163 273 160 265.837 160 257L160 218" stroke="#FFD8BF"/>
<path d="M100 195H102.769C103.587 195 104.401 194.9 105.194 194.701L106.806 194.299C107.599 194.1 108.413 194 109.231 194H150C155.523 194 160 198.477 160 204V224" stroke="#FFD8BF"/>
<path d="M222 257L219.231 257C218.413 257 217.599 257.1 216.806 257.299L215.194 257.701C214.401 257.9 213.587 258 212.769 258L186 258C180.477 258 176 253.523 176 248L176 211" stroke="#FFD8BF"/>
<path d="M219.351 71C218.798 71 218.351 71.4477 218.351 72C218.351 72.5523 218.798 73 219.351 73V71ZM214.052 73C214.604 73 215.052 72.5523 215.052 72C215.052 71.4477 214.604 71 214.052 71V73ZM208.753 71C208.201 71 207.753 71.4477 207.753 72C207.753 72.5523 208.201 73 208.753 73V71ZM203.455 73C204.007 73 204.455 72.5523 204.455 72C204.455 71.4477 204.007 71 203.455 71V73ZM198.156 71C197.604 71 197.156 71.4477 197.156 72C197.156 72.5523 197.604 73 198.156 73V71ZM192.857 73C193.41 73 193.857 72.5523 193.857 72C193.857 71.4477 193.41 71 192.857 71V73ZM187.559 71C187.006 71 186.559 71.4477 186.559 72C186.559 72.5523 187.006 73 187.559 73V71ZM182.26 73C182.812 73 183.26 72.5523 183.26 72C183.26 71.4477 182.812 71 182.26 71V73ZM177.075 71.2474C176.533 71.3546 176.18 71.8807 176.288 72.4225C176.395 72.9643 176.921 73.3166 177.463 73.2094L177.075 71.2474ZM173.499 74.8522C173.958 74.5449 174.081 73.9238 173.774 73.4649C173.467 73.006 172.846 72.883 172.387 73.1902L173.499 74.8522ZM168.801 76.7763C168.494 77.2352 168.617 77.8563 169.075 78.1636C169.534 78.4708 170.155 78.3479 170.463 77.8889L168.801 76.7763ZM168.82 81.8521C168.927 81.3103 168.575 80.7842 168.033 80.6771C167.491 80.5699 166.965 80.9222 166.858 81.464L168.82 81.8521ZM166.611 86.8C166.611 87.3523 167.058 87.8 167.611 87.8C168.163 87.8 168.611 87.3523 168.611 86.8H166.611ZM168.611 92.4C168.611 91.8477 168.163 91.4 167.611 91.4C167.058 91.4 166.611 91.8477 166.611 92.4H168.611ZM166.611 98C166.611 98.5523 167.058 99 167.611 99C168.163 99 168.611 98.5523 168.611 98H166.611ZM168.611 103.6C168.611 103.048 168.163 102.6 167.611 102.6C167.058 102.6 166.611 103.048 166.611 103.6H168.611ZM166.611 109.2C166.611 109.752 167.058 110.2 167.611 110.2C168.163 110.2 168.611 109.752 168.611 109.2H166.611ZM168.611 114.8C168.611 114.248 168.163 113.8 167.611 113.8C167.058 113.8 166.611 114.248 166.611 114.8H168.611ZM166.611 120.4C166.611 120.952 167.058 121.4 167.611 121.4C168.163 121.4 168.611 120.952 168.611 120.4H166.611ZM168.611 126C168.611 125.448 168.163 125 167.611 125C167.058 125 166.611 125.448 166.611 126H168.611ZM166.611 131.6C166.611 132.152 167.058 132.6 167.611 132.6C168.163 132.6 168.611 132.152 168.611 131.6H166.611ZM168.611 137.2C168.611 136.648 168.163 136.2 167.611 136.2C167.058 136.2 166.611 136.648 166.611 137.2H168.611ZM166.401 142.148C166.294 142.69 166.646 143.216 167.188 143.323C167.73 143.43 168.256 143.078 168.363 142.536L166.401 142.148ZM166.42 147.224C166.728 146.765 166.605 146.144 166.146 145.836C165.687 145.529 165.066 145.652 164.758 146.111L166.42 147.224ZM161.722 149.148C161.263 149.455 161.14 150.076 161.447 150.535C161.754 150.994 162.375 151.117 162.834 150.81L161.722 149.148ZM158.147 152.753C158.688 152.645 159.041 152.119 158.933 151.578C158.826 151.036 158.3 150.683 157.758 150.791L158.147 152.753ZM152.83 151C152.278 151 151.83 151.448 151.83 152C151.83 152.552 152.278 153 152.83 153V151ZM147.269 153C147.821 153 148.269 152.552 148.269 152C148.269 151.448 147.821 151 147.269 151V153ZM141.708 151C141.156 151 140.708 151.448 140.708 152C140.708 152.552 141.156 153 141.708 153V151ZM136.147 153C136.699 153 137.147 152.552 137.147 152C137.147 151.448 136.699 151 136.147 151V153ZM130.586 151C130.034 151 129.586 151.448 129.586 152C129.586 152.552 130.034 153 130.586 153V151ZM125.025 153C125.577 153 126.025 152.552 126.025 152C126.025 151.448 125.577 151 125.025 151V153ZM119.464 151C118.911 151 118.464 151.448 118.464 152C118.464 152.552 118.911 153 119.464 153V151ZM113.903 153C114.455 153 114.903 152.552 114.903 152C114.903 151.448 114.455 151 113.903 151V153ZM108.342 151C107.789 151 107.342 151.448 107.342 152C107.342 152.552 107.789 153 108.342 153V151ZM102.781 153C103.333 153 103.781 152.552 103.781 152C103.781 151.448 103.333 151 102.781 151V153ZM222 71H219.351V73H222V71ZM214.052 71H208.753V73H214.052V71ZM203.455 71H198.156V73H203.455V71ZM192.857 71H187.559V73H192.857V71ZM182.26 71H179.611V73H182.26V71ZM179.611 71C178.744 71 177.896 71.085 177.075 71.2474L177.463 73.2094C178.157 73.0721 178.875 73 179.611 73V71ZM172.387 73.1902C170.97 74.1391 169.75 75.3591 168.801 76.7763L170.463 77.8889C171.266 76.6889 172.299 75.6556 173.499 74.8522L172.387 73.1902ZM166.858 81.464C166.696 82.285 166.611 83.1331 166.611 84H168.611C168.611 83.2641 168.683 82.546 168.82 81.8521L166.858 81.464ZM166.611 84V86.8H168.611V84H166.611ZM166.611 92.4V98H168.611V92.4H166.611ZM166.611 103.6V109.2H168.611V103.6H166.611ZM166.611 114.8V120.4H168.611V114.8H166.611ZM166.611 126V131.6H168.611V126H166.611ZM166.611 137.2V140H168.611V137.2H166.611ZM166.611 140C166.611 140.736 166.538 141.454 166.401 142.148L168.363 142.536C168.526 141.715 168.611 140.867 168.611 140H166.611ZM164.758 146.111C163.955 147.311 162.922 148.344 161.722 149.148L162.834 150.81C164.252 149.861 165.471 148.641 166.42 147.224L164.758 146.111ZM157.758 150.791C157.065 150.928 156.346 151 155.611 151V153C156.477 153 157.326 152.915 158.147 152.753L157.758 150.791ZM155.611 151H152.83V153H155.611V151ZM147.269 151H141.708V153H147.269V151ZM136.147 151H130.586V153H136.147V151ZM125.025 151H119.464V153H125.025V151ZM113.903 151H108.342V153H113.903V151ZM102.781 151H100V153H102.781V151Z" fill="#FF9C6E"/>
<path d="M100 161H101.938C103.308 161 104.672 160.832 106 160.5V160.5C107.328 160.168 108.692 160 110.062 160H156C167.046 160 176 151.046 176 140V112" stroke="#FFD8BF"/>
<path d="M222 64L219.582 64C218.529 64 217.478 64.087 216.439 64.2601V64.2601C215.481 64.4198 214.512 64.5063 213.541 64.5187L176 65V65C167.163 65 160 72.1635 160 81L160 120" stroke="#FFD8BF"/>
<path d="M100 143H102.769C103.587 143 104.401 143.1 105.194 143.299L106.806 143.701C107.599 143.9 108.413 144 109.231 144H150C155.523 144 160 139.523 160 134V114" stroke="#FFD8BF"/>
<path d="M222 81L219.231 81C218.413 81 217.599 80.8997 216.806 80.7014L215.194 80.2986C214.401 80.1003 213.587 80 212.769 80L186 80C180.477 80 176 84.4772 176 90L176 127" stroke="#FFD8BF"/>
<rect x="106" y="114" width="48" height="24" rx="4" fill="#FF9C6E"/>
<path d="M117.743 132.16C116.815 132.16 115.967 131.904 115.199 131.392C114.431 130.869 113.946 130.197 113.743 129.376L115.135 128.896C115.274 129.461 115.578 129.925 116.047 130.288C116.516 130.64 117.082 130.816 117.743 130.816C118.404 130.816 118.959 130.581 119.407 130.112C119.855 129.643 120.079 129.067 120.079 128.384C120.079 127.691 119.855 127.109 119.407 126.64C118.959 126.171 118.388 125.936 117.695 125.936C116.756 125.936 116.079 126.261 115.663 126.912H114.255V120.64H120.735V121.984H115.631V125.44C116.175 124.896 116.922 124.624 117.871 124.624C118.927 124.624 119.791 125.003 120.463 125.76C121.146 126.507 121.487 127.44 121.487 128.56C121.487 129.563 121.124 130.416 120.399 131.12C119.684 131.813 118.799 132.16 117.743 132.16ZM127.109 132.16C125.925 132.16 124.959 131.765 124.213 130.976C123.466 130.176 123.093 129.147 123.093 127.888V124.72C123.093 123.461 123.466 122.437 124.213 121.648C124.97 120.848 125.935 120.448 127.109 120.448C128.282 120.448 129.247 120.848 130.005 121.648C130.762 122.448 131.141 123.472 131.141 124.72V127.888C131.141 129.147 130.762 130.176 130.005 130.976C129.247 131.765 128.282 132.16 127.109 132.16ZM127.109 130.816C127.898 130.816 128.538 130.555 129.029 130.032C129.519 129.509 129.765 128.795 129.765 127.888V124.72C129.765 123.813 129.519 123.099 129.029 122.576C128.538 122.053 127.898 121.792 127.109 121.792C126.33 121.792 125.695 122.053 125.205 122.576C124.714 123.099 124.469 123.813 124.469 124.72V127.888C124.469 128.795 124.714 129.509 125.205 130.032C125.695 130.555 126.33 130.816 127.109 130.816ZM137.174 132H135.686L142.886 120.64H144.374L137.174 132ZM144.294 132.128C143.419 132.128 142.672 131.819 142.054 131.2C141.446 130.581 141.142 129.84 141.142 128.976C141.142 128.101 141.446 127.36 142.054 126.752C142.672 126.133 143.419 125.824 144.294 125.824C145.158 125.824 145.899 126.133 146.518 126.752C147.136 127.36 147.446 128.101 147.446 128.976C147.446 129.84 147.136 130.581 146.518 131.2C145.899 131.819 145.158 132.128 144.294 132.128ZM144.294 130.88C144.806 130.88 145.248 130.693 145.622 130.32C145.995 129.936 146.182 129.488 146.182 128.976C146.182 128.464 145.995 128.021 145.622 127.648C145.248 127.264 144.806 127.072 144.294 127.072C143.76 127.072 143.312 127.259 142.95 127.632C142.587 128.005 142.406 128.453 142.406 128.976C142.406 129.499 142.587 129.947 142.95 130.32C143.312 130.693 143.76 130.88 144.294 130.88ZM135.766 126.816C134.891 126.816 134.144 126.507 133.526 125.888C132.918 125.269 132.614 124.528 132.614 123.664C132.614 122.789 132.918 122.048 133.526 121.44C134.144 120.821 134.891 120.512 135.766 120.512C136.63 120.512 137.371 120.821 137.99 121.44C138.608 122.048 138.918 122.789 138.918 123.664C138.918 124.528 138.608 125.269 137.99 125.888C137.371 126.507 136.63 126.816 135.766 126.816ZM135.766 125.568C136.278 125.568 136.72 125.381 137.094 125.008C137.467 124.624 137.654 124.176 137.654 123.664C137.654 123.152 137.467 122.709 137.094 122.336C136.72 121.952 136.278 121.76 135.766 121.76C135.232 121.76 134.784 121.947 134.422 122.32C134.059 122.693 133.878 123.141 133.878 123.664C133.878 124.187 134.059 124.635 134.422 125.008C134.784 125.381 135.232 125.568 135.766 125.568Z" fill="black"/>
<rect x="106" y="200" width="48" height="24" rx="4" fill="#FF9C6E"/>
<path d="M117.743 218.16C116.815 218.16 115.967 217.904 115.199 217.392C114.431 216.869 113.946 216.197 113.743 215.376L115.135 214.896C115.274 215.461 115.578 215.925 116.047 216.288C116.516 216.64 117.082 216.816 117.743 216.816C118.404 216.816 118.959 216.581 119.407 216.112C119.855 215.643 120.079 215.067 120.079 214.384C120.079 213.691 119.855 213.109 119.407 212.64C118.959 212.171 118.388 211.936 117.695 211.936C116.756 211.936 116.079 212.261 115.663 212.912H114.255V206.64H120.735V207.984H115.631V211.44C116.175 210.896 116.922 210.624 117.871 210.624C118.927 210.624 119.791 211.003 120.463 211.76C121.146 212.507 121.487 213.44 121.487 214.56C121.487 215.563 121.124 216.416 120.399 217.12C119.684 217.813 118.799 218.16 117.743 218.16ZM127.109 218.16C125.925 218.16 124.959 217.765 124.213 216.976C123.466 216.176 123.093 215.147 123.093 213.888V210.72C123.093 209.461 123.466 208.437 124.213 207.648C124.97 206.848 125.935 206.448 127.109 206.448C128.282 206.448 129.247 206.848 130.005 207.648C130.762 208.448 131.141 209.472 131.141 210.72V213.888C131.141 215.147 130.762 216.176 130.005 216.976C129.247 217.765 128.282 218.16 127.109 218.16ZM127.109 216.816C127.898 216.816 128.538 216.555 129.029 216.032C129.519 215.509 129.765 214.795 129.765 213.888V210.72C129.765 209.813 129.519 209.099 129.029 208.576C128.538 208.053 127.898 207.792 127.109 207.792C126.33 207.792 125.695 208.053 125.205 208.576C124.714 209.099 124.469 209.813 124.469 210.72V213.888C124.469 214.795 124.714 215.509 125.205 216.032C125.695 216.555 126.33 216.816 127.109 216.816ZM137.174 218H135.686L142.886 206.64H144.374L137.174 218ZM144.294 218.128C143.419 218.128 142.672 217.819 142.054 217.2C141.446 216.581 141.142 215.84 141.142 214.976C141.142 214.101 141.446 213.36 142.054 212.752C142.672 212.133 143.419 211.824 144.294 211.824C145.158 211.824 145.899 212.133 146.518 212.752C147.136 213.36 147.446 214.101 147.446 214.976C147.446 215.84 147.136 216.581 146.518 217.2C145.899 217.819 145.158 218.128 144.294 218.128ZM144.294 216.88C144.806 216.88 145.248 216.693 145.622 216.32C145.995 215.936 146.182 215.488 146.182 214.976C146.182 214.464 145.995 214.021 145.622 213.648C145.248 213.264 144.806 213.072 144.294 213.072C143.76 213.072 143.312 213.259 142.95 213.632C142.587 214.005 142.406 214.453 142.406 214.976C142.406 215.499 142.587 215.947 142.95 216.32C143.312 216.693 143.76 216.88 144.294 216.88ZM135.766 212.816C134.891 212.816 134.144 212.507 133.526 211.888C132.918 211.269 132.614 210.528 132.614 209.664C132.614 208.789 132.918 208.048 133.526 207.44C134.144 206.821 134.891 206.512 135.766 206.512C136.63 206.512 137.371 206.821 137.99 207.44C138.608 208.048 138.918 208.789 138.918 209.664C138.918 210.528 138.608 211.269 137.99 211.888C137.371 212.507 136.63 212.816 135.766 212.816ZM135.766 211.568C136.278 211.568 136.72 211.381 137.094 211.008C137.467 210.624 137.654 210.176 137.654 209.664C137.654 209.152 137.467 208.709 137.094 208.336C136.72 207.952 136.278 207.76 135.766 207.76C135.232 207.76 134.784 207.947 134.422 208.32C134.059 208.693 133.878 209.141 133.878 209.664C133.878 210.187 134.059 210.635 134.422 211.008C134.784 211.381 135.232 211.568 135.766 211.568Z" fill="black"/>
<path fill-rule="evenodd" clip-rule="evenodd" d="M272 0C267.582 0 264 3.58172 264 8V36C264 38.2091 262.209 40 260 40H232C227.582 40 224 43.5817 224 48V96C224 100.418 227.582 104 232 104H280C284.418 104 288 100.418 288 96V68C288 65.7909 289.791 64 292 64H320C324.418 64 328 60.4183 328 56V8C328 3.58172 324.418 0 320 0H272Z" fill="url(#paint1_linear_1146_36381)"/>
<path d="M251.067 56.7998V56.3998H250.667H240H239.6V56.7998V86.5141V86.9141H240H250.667H251.067V86.5141V67.2332H260.933V86.5141V86.9141H261.333H272H272.4V86.5141V66.0614C272.4 61.1118 268.598 57.0434 263.709 56.4692V56.3998H263.309H262.519H261.333H255.407H255.23L255.111 56.5313L251.067 60.997V56.7998Z" stroke="#000C17" stroke-width="0.800001"/>
<path fill-rule="evenodd" clip-rule="evenodd" d="M278.399 18.4006H313.599C314.041 18.4006 314.399 18.7588 314.399 19.2006V23.2006H277.599V19.2006C277.599 18.7588 277.957 18.4006 278.399 18.4006ZM277.599 24.0006V44.8006C277.599 45.2425 277.957 45.6006 278.399 45.6006H313.599C314.041 45.6006 314.399 45.2425 314.399 44.8006V24.0006H277.599ZM315.199 24.0006V44.8006C315.199 45.6843 314.483 46.4006 313.599 46.4006H278.399C277.516 46.4006 276.799 45.6843 276.799 44.8006V19.2006C276.799 18.3169 277.516 17.6006 278.399 17.6006H313.599C314.483 17.6006 315.199 18.3169 315.199 19.2006V23.2006H315.2V24.0006H315.199ZM280.4 22.0006C281.063 22.0006 281.6 21.4633 281.6 20.8006C281.6 20.1378 281.063 19.6006 280.4 19.6006C279.737 19.6006 279.2 20.1378 279.2 20.8006C279.2 21.4633 279.737 22.0006 280.4 22.0006ZM285.601 20.8006C285.601 21.4633 285.064 22.0006 284.401 22.0006C283.738 22.0006 283.201 21.4633 283.201 20.8006C283.201 20.1378 283.738 19.6006 284.401 19.6006C285.064 19.6006 285.601 20.1378 285.601 20.8006ZM288.401 22.0006C289.064 22.0006 289.601 21.4633 289.601 20.8006C289.601 20.1378 289.064 19.6006 288.401 19.6006C287.738 19.6006 287.201 20.1378 287.201 20.8006C287.201 21.4633 287.738 22.0006 288.401 22.0006ZM290.311 41.935H289.967C288.256 41.935 287.483 41.1381 287.483 39.3647V37.2241C287.483 35.9506 287.045 35.5209 285.78 35.5209V34.3022C287.045 34.3022 287.483 33.8647 287.483 32.5912V30.4819C287.483 28.7162 288.225 27.9272 289.967 27.9272H290.311V28.7787H290.053C288.936 28.7787 288.467 29.2709 288.467 30.5912V33.0053C288.467 34.1459 287.92 34.7006 286.756 34.8178V34.9975C287.92 35.1147 288.467 35.6694 288.467 36.81V39.2397C288.467 40.5678 288.952 41.0834 290.053 41.0834H290.311V41.935ZM297.038 27.9272H298.03L294.764 41.935H293.772L297.038 27.9272ZM301.827 41.935C303.538 41.935 304.311 41.1381 304.311 39.3647V37.2241C304.311 35.9506 304.749 35.5209 306.014 35.5209V34.3022C304.749 34.3022 304.311 33.8647 304.311 32.5912V30.4819C304.311 28.7162 303.569 27.9272 301.827 27.9272H301.483V28.7787H301.741C302.858 28.7787 303.327 29.2709 303.327 30.5912V33.0053C303.327 34.1459 303.866 34.7006 305.038 34.8178V34.9975C303.866 35.1147 303.327 35.6694 303.327 36.81V39.2397C303.327 40.5678 302.842 41.0834 301.741 41.0834H301.483V41.935H301.827Z" fill="#000C17"/>
<defs>
<linearGradient id="paint0_linear_1146_36381" x1="44" y1="130" x2="44" y2="210" gradientUnits="userSpaceOnUse">
<stop stop-color="#FFD8BF"/>
<stop offset="1" stop-color="#FF9C6E"/>
</linearGradient>
<linearGradient id="paint1_linear_1146_36381" x1="276" y1="0" x2="276" y2="104" gradientUnits="userSpaceOnUse">
<stop stop-color="#FFD8BF"/>
<stop offset="1" stop-color="#FF9C6E"/>
</linearGradient>
</defs>
</svg>

