<svg width="263" height="284" viewBox="0 0 263 284" fill="none" xmlns="http://www.w3.org/2000/svg">
<path d="M4 12C4 7.58172 7.58172 4 12 4H76C80.4183 4 84 7.58172 84 12V76C84 80.4183 80.4183 84 76 84H12C7.58172 84 4 80.4183 4 76V12Z" fill="black"/>
<path d="M37.8333 25V24.5H37.3333H24H23.5V25V62.1429V62.6429H24H37.3333H37.8333V62.1429V38.0417H50.1667V62.1429V62.6429H50.6667H64H64.5V62.1429V36.577C64.5 30.39 59.7473 25.3045 53.6358 24.5867V24.5H53.1358H52.1481H50.6667H43.2593H43.0375L42.8886 24.6644L37.8333 30.2465V25Z" fill="url(#paint0_linear_1146_36381)" stroke="url(#paint1_linear_1146_36381)"/>
<path d="M124 12C124 7.58172 127.582 4 132 4H196C200.418 4 204 7.58172 204 12V76C204 80.4183 200.418 84 196 84H132C127.582 84 124 80.4183 124 76V12Z" fill="url(#paint2_linear_1146_36381)"/>
<path fill-rule="evenodd" clip-rule="evenodd" d="M141.999 27H185.999C186.551 27 186.999 27.4477 186.999 28V32.9995H140.999V28C140.999 27.4477 141.447 27 141.999 27ZM140.999 33.9995V60C140.999 60.5523 141.447 61 141.999 61H185.999C186.551 61 186.999 60.5523 186.999 60V33.9995H140.999ZM187.999 33.9995V60C187.999 61.1046 187.104 62 185.999 62H141.999C140.894 62 139.999 61.1046 139.999 60V28C139.999 26.8954 140.894 26 141.999 26H185.999C187.104 26 187.999 26.8954 187.999 28V32.9995H188V33.9995H187.999ZM144.5 31.5C145.328 31.5 146 30.8284 146 30C146 29.1716 145.328 28.5 144.5 28.5C143.672 28.5 143 29.1716 143 30C143 30.8284 143.672 31.5 144.5 31.5ZM151.001 30C151.001 30.8284 150.329 31.5 149.501 31.5C148.673 31.5 148.001 30.8284 148.001 30C148.001 29.1716 148.673 28.5 149.501 28.5C150.329 28.5 151.001 29.1716 151.001 30ZM154.501 31.5C155.329 31.5 156.001 30.8284 156.001 30C156.001 29.1716 155.329 28.5 154.501 28.5C153.673 28.5 153.001 29.1716 153.001 30C153.001 30.8284 153.673 31.5 154.501 31.5ZM156.889 56.418H156.459C154.32 56.418 153.354 55.4219 153.354 53.2051V50.5293C153.354 48.9375 152.807 48.4004 151.225 48.4004V46.877C152.807 46.877 153.354 46.3301 153.354 44.7383V42.1016C153.354 39.8945 154.281 38.9082 156.459 38.9082H156.889V39.9727H156.566C155.17 39.9727 154.584 40.5879 154.584 42.2383V45.2559C154.584 46.6816 153.9 47.375 152.445 47.5215V47.7461C153.9 47.8926 154.584 48.5859 154.584 50.0117V53.0488C154.584 54.709 155.189 55.3535 156.566 55.3535H156.889V56.418ZM165.297 38.9082H166.537L162.455 56.418H161.215L165.297 38.9082ZM171.283 56.418C173.422 56.418 174.389 55.4219 174.389 53.2051V50.5293C174.389 48.9375 174.936 48.4004 176.518 48.4004V46.877C174.936 46.877 174.389 46.3301 174.389 44.7383V42.1016C174.389 39.8945 173.461 38.9082 171.283 38.9082H170.854V39.9727H171.176C172.572 39.9727 173.158 40.5879 173.158 42.2383V45.2559C173.158 46.6816 173.832 47.375 175.297 47.5215V47.7461C173.832 47.8926 173.158 48.5859 173.158 50.0117V53.0488C173.158 54.709 172.553 55.3535 171.176 55.3535H170.854V56.418H171.283Z" fill="#000C17"/>
<path d="M88 43H87V45H88V43ZM120 45H121V43H120V45ZM90.6667 45C91.219 45 91.6667 44.5523 91.6667 44C91.6667 43.4477 91.219 43 90.6667 43V45ZM96 43C95.4477 43 95 43.4477 95 44C95 44.5523 95.4477 45 96 45V43ZM101.333 45C101.886 45 102.333 44.5523 102.333 44C102.333 43.4477 101.886 43 101.333 43V45ZM106.667 43C106.114 43 105.667 43.4477 105.667 44C105.667 44.5523 106.114 45 106.667 45V43ZM112 45C112.552 45 113 44.5523 113 44C113 43.4477 112.552 43 112 43V45ZM117.333 43C116.781 43 116.333 43.4477 116.333 44C116.333 44.5523 116.781 45 117.333 45V43ZM88 45H90.6667V43H88V45ZM96 45H101.333V43H96V45ZM106.667 45H112V43H106.667V45ZM117.333 45H120V43H117.333V45Z" fill="#B37FEB"/>
<rect x="0.5" y="0.5" width="87" height="87" rx="11.5" stroke="#B37FEB"/>
<rect x="120.5" y="0.5" width="87" height="87" rx="11.5" stroke="#B37FEB"/>
<path d="M67.7 189L63.26 174.8H65.74L68.8 185.04L72.06 174.8H74.1L77.34 185.04L80.42 174.8H82.92L78.5 189H76.4L73.08 178.5L69.78 189H67.7ZM88.2773 189.2C86.7573 189.2 85.504 188.713 84.5173 187.74C83.544 186.767 83.0573 185.52 83.0573 184C83.0573 182.52 83.5507 181.287 84.5373 180.3C85.524 179.3 86.7707 178.8 88.2773 178.8C89.664 178.8 90.8107 179.24 91.7173 180.12C92.6373 181 93.0973 182.213 93.0973 183.76C93.0973 184.027 93.0907 184.267 93.0773 184.48H85.2173C85.2707 185.293 85.584 185.953 86.1573 186.46C86.7307 186.953 87.444 187.2 88.2973 187.2C89.5773 187.2 90.5307 186.693 91.1573 185.68L92.8373 186.88C91.8773 188.427 90.3573 189.2 88.2773 189.2ZM85.3173 182.88H90.8773C90.7573 182.187 90.444 181.647 89.9373 181.26C89.444 180.86 88.864 180.66 88.1973 180.66C87.504 180.66 86.884 180.853 86.3373 181.24C85.804 181.627 85.464 182.173 85.3173 182.88ZM100.479 189.2C99.2522 189.2 98.2789 188.82 97.5589 188.06V189H95.3589V174.4H97.5589V179.92C98.2789 179.173 99.2522 178.8 100.479 178.8C101.932 178.8 103.126 179.307 104.059 180.32C105.006 181.333 105.479 182.56 105.479 184C105.479 185.44 105.006 186.667 104.059 187.68C103.126 188.693 101.932 189.2 100.479 189.2ZM100.239 187.2C101.106 187.2 101.819 186.893 102.379 186.28C102.939 185.653 103.219 184.893 103.219 184C103.219 183.107 102.939 182.353 102.379 181.74C101.819 181.113 101.106 180.8 100.239 180.8C99.0922 180.8 98.1989 181.26 97.5589 182.18V185.8C98.1856 186.733 99.0789 187.2 100.239 187.2ZM115.629 189.2C114.709 189.2 113.895 189.027 113.189 188.68C112.482 188.32 111.955 187.787 111.609 187.08L113.229 185.92C113.429 186.347 113.749 186.687 114.189 186.94C114.629 187.18 115.109 187.3 115.629 187.3C116.042 187.3 116.382 187.207 116.649 187.02C116.929 186.833 117.069 186.573 117.069 186.24C117.069 185.947 116.955 185.707 116.729 185.52C116.515 185.333 116.115 185.147 115.529 184.96L114.649 184.72C112.875 184.24 112.002 183.22 112.029 181.66C112.029 180.793 112.369 180.1 113.049 179.58C113.729 179.06 114.582 178.8 115.609 178.8C117.155 178.8 118.282 179.367 118.989 180.5L117.469 181.66C116.962 180.98 116.329 180.64 115.569 180.64C115.209 180.64 114.895 180.727 114.629 180.9C114.362 181.06 114.229 181.287 114.229 181.58C114.229 181.847 114.315 182.073 114.489 182.26C114.662 182.447 114.975 182.613 115.429 182.76L116.449 183.06C117.382 183.34 118.082 183.72 118.549 184.2C119.015 184.667 119.249 185.3 119.249 186.1C119.249 187.047 118.909 187.8 118.229 188.36C117.549 188.92 116.682 189.2 115.629 189.2ZM126.051 189.2C124.531 189.2 123.277 188.713 122.291 187.74C121.317 186.767 120.831 185.52 120.831 184C120.831 182.52 121.324 181.287 122.311 180.3C123.297 179.3 124.544 178.8 126.051 178.8C127.437 178.8 128.584 179.24 129.491 180.12C130.411 181 130.871 182.213 130.871 183.76C130.871 184.027 130.864 184.267 130.851 184.48H122.991C123.044 185.293 123.357 185.953 123.931 186.46C124.504 186.953 125.217 187.2 126.071 187.2C127.351 187.2 128.304 186.693 128.931 185.68L130.611 186.88C129.651 188.427 128.131 189.2 126.051 189.2ZM123.091 182.88H128.651C128.531 182.187 128.217 181.647 127.711 181.26C127.217 180.86 126.637 180.66 125.971 180.66C125.277 180.66 124.657 180.853 124.111 181.24C123.577 181.627 123.237 182.173 123.091 182.88ZM133.132 189V179H135.332V180.34C135.532 179.94 135.866 179.6 136.332 179.32C136.799 179.04 137.306 178.9 137.852 178.9C138.212 178.9 138.552 178.94 138.872 179.02L138.552 181.16C138.352 181.08 138.066 181.04 137.692 181.04C137.226 181.04 136.766 181.173 136.312 181.44C135.872 181.707 135.546 182.087 135.332 182.58V189H133.132ZM143.694 189L139.174 179H141.614L144.654 186.02L147.714 179H150.174L145.634 189H143.694ZM152.807 177.22C152.407 177.22 152.06 177.08 151.767 176.8C151.487 176.507 151.347 176.153 151.347 175.74C151.347 175.34 151.487 175 151.767 174.72C152.06 174.427 152.407 174.28 152.807 174.28C153.22 174.28 153.567 174.427 153.847 174.72C154.14 175 154.287 175.34 154.287 175.74C154.287 176.153 154.14 176.507 153.847 176.8C153.567 177.08 153.22 177.22 152.807 177.22ZM151.707 189V179H153.907V189H151.707ZM161.423 189.2C159.916 189.2 158.656 188.707 157.643 187.72C156.643 186.72 156.143 185.48 156.143 184C156.143 182.52 156.643 181.287 157.643 180.3C158.656 179.3 159.916 178.8 161.423 178.8C162.449 178.8 163.369 179.047 164.183 179.54C165.009 180.033 165.643 180.707 166.083 181.56L164.163 182.6C163.909 182.067 163.543 181.64 163.063 181.32C162.583 181 162.036 180.84 161.423 180.84C160.543 180.84 159.816 181.147 159.243 181.76C158.669 182.36 158.383 183.107 158.383 184C158.383 184.893 158.669 185.647 159.243 186.26C159.816 186.86 160.543 187.16 161.423 187.16C162.036 187.16 162.583 187 163.063 186.68C163.543 186.36 163.909 185.933 164.163 185.4L166.083 186.44C165.643 187.293 165.009 187.967 164.183 188.46C163.369 188.953 162.449 189.2 161.423 189.2ZM172.613 189.2C171.093 189.2 169.84 188.713 168.853 187.74C167.88 186.767 167.393 185.52 167.393 184C167.393 182.52 167.887 181.287 168.873 180.3C169.86 179.3 171.107 178.8 172.613 178.8C174 178.8 175.147 179.24 176.053 180.12C176.973 181 177.433 182.213 177.433 183.76C177.433 184.027 177.427 184.267 177.413 184.48H169.553C169.607 185.293 169.92 185.953 170.493 186.46C171.067 186.953 171.78 187.2 172.633 187.2C173.913 187.2 174.867 186.693 175.493 185.68L177.173 186.88C176.213 188.427 174.693 189.2 172.613 189.2ZM169.653 182.88H175.213C175.093 182.187 174.78 181.647 174.273 181.26C173.78 180.86 173.2 180.66 172.533 180.66C171.84 180.66 171.22 180.853 170.673 181.24C170.14 181.627 169.8 182.173 169.653 182.88Z" fill="white"/>
<path d="M71.24 221.24C69.2 221.24 67.4667 220.533 66.04 219.12C64.6133 217.693 63.9 215.953 63.9 213.9C63.9 211.847 64.6133 210.113 66.04 208.7C67.4667 207.273 69.2 206.56 71.24 206.56C72.5867 206.56 73.8067 206.867 74.9 207.48C75.9933 208.093 76.8667 208.933 77.52 210L75.96 210.94C75.4533 210.127 74.7933 209.487 73.98 209.02C73.1667 208.553 72.2533 208.32 71.24 208.32C69.6933 208.32 68.3933 208.86 67.34 209.94C66.3 211.02 65.78 212.34 65.78 213.9C65.78 215.46 66.3 216.78 67.34 217.86C68.3933 218.94 69.6933 219.48 71.24 219.48C72.2533 219.48 73.1667 219.247 73.98 218.78C74.7933 218.313 75.4533 217.673 75.96 216.86L77.52 217.8C76.8667 218.867 75.9933 219.707 74.9 220.32C73.8067 220.933 72.5867 221.24 71.24 221.24ZM84.1577 221.2C82.651 221.2 81.3977 220.7 80.3977 219.7C79.411 218.687 78.9177 217.453 78.9177 216C78.9177 214.547 79.411 213.32 80.3977 212.32C81.3977 211.307 82.651 210.8 84.1577 210.8C85.651 210.8 86.891 211.307 87.8777 212.32C88.8777 213.32 89.3777 214.547 89.3777 216C89.3777 217.453 88.8777 218.687 87.8777 219.7C86.891 220.7 85.651 221.2 84.1577 221.2ZM81.6377 218.56C82.291 219.253 83.131 219.6 84.1577 219.6C85.1843 219.6 86.0177 219.253 86.6577 218.56C87.2977 217.867 87.6177 217.013 87.6177 216C87.6177 214.987 87.2977 214.133 86.6577 213.44C86.0177 212.747 85.1843 212.4 84.1577 212.4C83.131 212.4 82.291 212.747 81.6377 213.44C80.9977 214.133 80.6777 214.987 80.6777 216C80.6777 217.013 80.9977 217.867 81.6377 218.56ZM91.8466 221V211H93.5666V212.26C94.2332 211.287 95.2866 210.8 96.7266 210.8C97.8599 210.8 98.7732 211.167 99.4666 211.9C100.173 212.633 100.527 213.62 100.527 214.86V221H98.8266V215.12C98.8266 214.253 98.5999 213.58 98.1466 213.1C97.7066 212.62 97.0999 212.38 96.3266 212.38C94.9399 212.38 94.0199 213.04 93.5666 214.36V221H91.8466ZM103.624 221V211H105.344V212.26C106.011 211.287 107.064 210.8 108.504 210.8C109.637 210.8 110.551 211.167 111.244 211.9C111.951 212.633 112.304 213.62 112.304 214.86V221H110.604V215.12C110.604 214.253 110.377 213.58 109.924 213.1C109.484 212.62 108.877 212.38 108.104 212.38C106.717 212.38 105.797 213.04 105.344 214.36V221H103.624ZM119.801 221.2C118.268 221.2 117.021 220.707 116.061 219.72C115.101 218.733 114.621 217.493 114.621 216C114.621 214.52 115.108 213.287 116.081 212.3C117.055 211.3 118.301 210.8 119.821 210.8C121.168 210.8 122.295 211.253 123.201 212.16C124.121 213.053 124.581 214.273 124.581 215.82C124.581 216.02 124.575 216.193 124.561 216.34H116.361C116.388 217.273 116.721 218.053 117.361 218.68C118.015 219.307 118.835 219.62 119.821 219.62C121.221 219.62 122.261 219.04 122.941 217.88L124.301 218.82C123.328 220.407 121.828 221.2 119.801 221.2ZM116.481 214.94H122.821C122.688 214.14 122.335 213.507 121.761 213.04C121.201 212.56 120.535 212.32 119.761 212.32C118.975 212.32 118.268 212.56 117.641 213.04C117.028 213.507 116.641 214.14 116.481 214.94ZM131.482 221.2C129.976 221.2 128.722 220.7 127.722 219.7C126.736 218.7 126.242 217.467 126.242 216C126.242 214.533 126.736 213.3 127.722 212.3C128.722 211.3 129.976 210.8 131.482 210.8C132.496 210.8 133.402 211.04 134.202 211.52C135.016 212 135.649 212.653 136.102 213.48L134.602 214.32C134.309 213.733 133.889 213.267 133.342 212.92C132.809 212.573 132.189 212.4 131.482 212.4C130.456 212.4 129.616 212.747 128.962 213.44C128.309 214.133 127.982 214.987 127.982 216C127.982 217.013 128.309 217.867 128.962 218.56C129.616 219.253 130.456 219.6 131.482 219.6C132.189 219.6 132.809 219.427 133.342 219.08C133.889 218.733 134.309 218.267 134.602 217.68L136.102 218.52C135.649 219.347 135.016 220 134.202 220.48C133.402 220.96 132.496 221.2 131.482 221.2ZM142.611 221.1C141.718 221.1 140.971 220.84 140.371 220.32C139.784 219.787 139.491 219.027 139.491 218.04V212.58H136.971V211H139.491V208.16H141.211V211H144.311V212.58H141.211V217.82C141.211 218.98 141.744 219.56 142.811 219.56C143.344 219.56 143.824 219.433 144.251 219.18L144.771 220.64C144.184 220.947 143.464 221.1 142.611 221.1ZM155.716 221.2C154.249 221.2 153.043 220.7 152.096 219.7C151.149 218.687 150.676 217.453 150.676 216C150.676 214.547 151.149 213.32 152.096 212.32C153.043 211.307 154.249 210.8 155.716 210.8C157.089 210.8 158.176 211.233 158.976 212.1V211H160.696V221H158.976V219.9C158.176 220.767 157.089 221.2 155.716 221.2ZM155.856 219.62C157.256 219.62 158.296 219.067 158.976 217.96V214.02C158.296 212.927 157.256 212.38 155.856 212.38C154.869 212.38 154.056 212.733 153.416 213.44C152.776 214.133 152.456 214.987 152.456 216C152.456 217.013 152.776 217.873 153.416 218.58C154.056 219.273 154.869 219.62 155.856 219.62ZM163.936 221V211H165.656V212.26C166.323 211.287 167.376 210.8 168.816 210.8C169.95 210.8 170.863 211.167 171.556 211.9C172.263 212.633 172.616 213.62 172.616 214.86V221H170.916V215.12C170.916 214.253 170.69 213.58 170.236 213.1C169.796 212.62 169.19 212.38 168.416 212.38C167.03 212.38 166.11 213.04 165.656 214.36V221H163.936ZM178.299 224.88H176.379L178.419 220.48L174.039 211H175.939L179.379 218.6L182.799 211H184.719L178.299 224.88ZM193.287 221V208.56H188.867V206.8H199.527V208.56H195.107V221H193.287ZM207.392 221.24C205.352 221.24 203.619 220.533 202.192 219.12C200.766 217.693 200.052 215.953 200.052 213.9C200.052 211.847 200.766 210.113 202.192 208.7C203.619 207.273 205.352 206.56 207.392 206.56C208.739 206.56 209.959 206.867 211.052 207.48C212.146 208.093 213.019 208.933 213.672 210L212.112 210.94C211.606 210.127 210.946 209.487 210.132 209.02C209.319 208.553 208.406 208.32 207.392 208.32C205.846 208.32 204.546 208.86 203.492 209.94C202.452 211.02 201.932 212.34 201.932 213.9C201.932 215.46 202.452 216.78 203.492 217.86C204.546 218.94 205.846 219.48 207.392 219.48C208.406 219.48 209.319 219.247 210.132 218.78C210.946 218.313 211.606 217.673 212.112 216.86L213.672 217.8C213.019 218.867 212.146 219.707 211.052 220.32C209.959 220.933 208.739 221.24 207.392 221.24ZM223.99 208.08C224.897 208.933 225.35 210.013 225.35 211.32C225.35 212.627 224.897 213.707 223.99 214.56C223.097 215.4 221.923 215.82 220.47 215.82H217.99V221H216.13V206.8H220.47C221.923 206.8 223.097 207.227 223.99 208.08ZM222.69 213.32C223.237 212.8 223.51 212.133 223.51 211.32C223.51 210.507 223.237 209.84 222.69 209.32C222.157 208.8 221.417 208.54 220.47 208.54H217.99V214.1H220.47C221.417 214.1 222.157 213.84 222.69 213.32ZM69.6 249.2C68.2533 249.2 67.1667 248.767 66.34 247.9V249H64.62V234.4H66.34V240.1C67.1667 239.233 68.2533 238.8 69.6 238.8C71.0667 238.8 72.2733 239.307 73.22 240.32C74.1667 241.32 74.64 242.547 74.64 244C74.64 245.453 74.1667 246.687 73.22 247.7C72.2733 248.7 71.0667 249.2 69.6 249.2ZM69.46 247.62C70.4467 247.62 71.26 247.273 71.9 246.58C72.54 245.873 72.86 245.013 72.86 244C72.86 242.987 72.54 242.133 71.9 241.44C71.26 240.733 70.4467 240.38 69.46 240.38C68.06 240.38 67.02 240.927 66.34 242.02V245.96C67.02 247.067 68.06 247.62 69.46 247.62ZM81.3605 249.2C79.8938 249.2 78.6871 248.7 77.7405 247.7C76.7938 246.687 76.3205 245.453 76.3205 244C76.3205 242.547 76.7938 241.32 77.7405 240.32C78.6871 239.307 79.8938 238.8 81.3605 238.8C82.7338 238.8 83.8205 239.233 84.6205 240.1V239H86.3405V249H84.6205V247.9C83.8205 248.767 82.7338 249.2 81.3605 249.2ZM81.5005 247.62C82.9005 247.62 83.9405 247.067 84.6205 245.96V242.02C83.9405 240.927 82.9005 240.38 81.5005 240.38C80.5138 240.38 79.7005 240.733 79.0605 241.44C78.4205 242.133 78.1005 242.987 78.1005 244C78.1005 245.013 78.4205 245.873 79.0605 246.58C79.7005 247.273 80.5138 247.62 81.5005 247.62ZM92.6009 249.2C91.6809 249.2 90.8743 249.007 90.1809 248.62C89.4876 248.22 88.9876 247.64 88.6809 246.88L90.0809 246.1C90.2676 246.593 90.5943 246.98 91.0609 247.26C91.5276 247.54 92.0476 247.68 92.6209 247.68C93.1143 247.68 93.5276 247.56 93.8609 247.32C94.1943 247.08 94.3609 246.753 94.3609 246.34C94.3609 245.98 94.2276 245.68 93.9609 245.44C93.7076 245.2 93.2609 244.98 92.6209 244.78L91.6209 244.46C89.9543 243.98 89.1209 243.007 89.1209 241.54C89.1209 240.713 89.4476 240.053 90.1009 239.56C90.7676 239.053 91.5876 238.8 92.5609 238.8C94.0809 238.8 95.1809 239.38 95.8609 240.54L94.5809 241.42C94.0343 240.66 93.3409 240.28 92.5009 240.28C92.0476 240.28 91.6543 240.393 91.3209 240.62C91.0009 240.833 90.8409 241.12 90.8409 241.48C90.8409 241.813 90.9409 242.1 91.1409 242.34C91.3543 242.567 91.7276 242.76 92.2609 242.92L93.3609 243.26C95.1743 243.82 96.0809 244.8 96.0809 246.2C96.0809 247.133 95.7543 247.867 95.1009 248.4C94.4609 248.933 93.6276 249.2 92.6009 249.2ZM102.985 249.2C101.452 249.2 100.205 248.707 99.2448 247.72C98.2848 246.733 97.8048 245.493 97.8048 244C97.8048 242.52 98.2915 241.287 99.2648 240.3C100.238 239.3 101.485 238.8 103.005 238.8C104.352 238.8 105.478 239.253 106.385 240.16C107.305 241.053 107.765 242.273 107.765 243.82C107.765 244.02 107.758 244.193 107.745 244.34H99.5448C99.5715 245.273 99.9048 246.053 100.545 246.68C101.198 247.307 102.018 247.62 103.005 247.62C104.405 247.62 105.445 247.04 106.125 245.88L107.485 246.82C106.512 248.407 105.012 249.2 102.985 249.2ZM99.6648 242.94H106.005C105.872 242.14 105.518 241.507 104.945 241.04C104.385 240.56 103.718 240.32 102.945 240.32C102.158 240.32 101.452 240.56 100.825 241.04C100.212 241.507 99.8248 242.14 99.6648 242.94ZM114.466 249.2C112.999 249.2 111.793 248.7 110.846 247.7C109.899 246.687 109.426 245.453 109.426 244C109.426 242.547 109.899 241.32 110.846 240.32C111.793 239.307 112.999 238.8 114.466 238.8C115.839 238.8 116.926 239.233 117.726 240.1V234.4H119.446V249H117.726V247.9C116.926 248.767 115.839 249.2 114.466 249.2ZM114.606 247.62C116.006 247.62 117.046 247.067 117.726 245.96V242.02C117.046 240.927 116.006 240.38 114.606 240.38C113.619 240.38 112.806 240.733 112.166 241.44C111.526 242.133 111.206 242.987 111.206 244C111.206 245.013 111.526 245.873 112.166 246.58C112.806 247.273 113.619 247.62 114.606 247.62ZM130.531 249.2C129.611 249.2 128.804 249.007 128.111 248.62C127.417 248.22 126.917 247.64 126.611 246.88L128.011 246.1C128.197 246.593 128.524 246.98 128.991 247.26C129.457 247.54 129.977 247.68 130.551 247.68C131.044 247.68 131.457 247.56 131.791 247.32C132.124 247.08 132.291 246.753 132.291 246.34C132.291 245.98 132.157 245.68 131.891 245.44C131.637 245.2 131.191 244.98 130.551 244.78L129.551 244.46C127.884 243.98 127.051 243.007 127.051 241.54C127.051 240.713 127.377 240.053 128.031 239.56C128.697 239.053 129.517 238.8 130.491 238.8C132.011 238.8 133.111 239.38 133.791 240.54L132.511 241.42C131.964 240.66 131.271 240.28 130.431 240.28C129.977 240.28 129.584 240.393 129.251 240.62C128.931 240.833 128.771 241.12 128.771 241.48C128.771 241.813 128.871 242.1 129.071 242.34C129.284 242.567 129.657 242.76 130.191 242.92L131.291 243.26C133.104 243.82 134.011 244.8 134.011 246.2C134.011 247.133 133.684 247.867 133.031 248.4C132.391 248.933 131.557 249.2 130.531 249.2ZM140.915 249.2C139.381 249.2 138.135 248.707 137.175 247.72C136.215 246.733 135.735 245.493 135.735 244C135.735 242.52 136.221 241.287 137.195 240.3C138.168 239.3 139.415 238.8 140.935 238.8C142.281 238.8 143.408 239.253 144.315 240.16C145.235 241.053 145.695 242.273 145.695 243.82C145.695 244.02 145.688 244.193 145.675 244.34H137.475C137.501 245.273 137.835 246.053 138.475 246.68C139.128 247.307 139.948 247.62 140.935 247.62C142.335 247.62 143.375 247.04 144.055 245.88L145.415 246.82C144.441 248.407 142.941 249.2 140.915 249.2ZM137.595 242.94H143.935C143.801 242.14 143.448 241.507 142.875 241.04C142.315 240.56 141.648 240.32 140.875 240.32C140.088 240.32 139.381 240.56 138.755 241.04C138.141 241.507 137.755 242.14 137.595 242.94ZM148.136 249V239H149.856V240.48C150.056 240.053 150.409 239.687 150.916 239.38C151.436 239.06 151.982 238.9 152.556 238.9C152.849 238.9 153.142 238.933 153.436 239L153.216 240.72C152.976 240.64 152.689 240.6 152.356 240.6C151.822 240.6 151.316 240.773 150.836 241.12C150.369 241.453 150.042 241.92 149.856 242.52V249H148.136ZM158.443 249L153.823 239H155.743L159.163 246.58L162.583 239H164.503L159.883 249H158.443ZM167.981 236.38C167.754 236.607 167.468 236.72 167.121 236.72C166.774 236.72 166.481 236.607 166.241 236.38C166.001 236.14 165.881 235.847 165.881 235.5C165.881 235.167 166.001 234.88 166.241 234.64C166.481 234.4 166.774 234.28 167.121 234.28C167.468 234.28 167.754 234.4 167.981 234.64C168.221 234.88 168.341 235.167 168.341 235.5C168.341 235.847 168.221 236.14 167.981 236.38ZM166.241 249V239H167.961V249H166.241ZM175.682 249.2C174.175 249.2 172.922 248.7 171.922 247.7C170.935 246.7 170.442 245.467 170.442 244C170.442 242.533 170.935 241.3 171.922 240.3C172.922 239.3 174.175 238.8 175.682 238.8C176.695 238.8 177.602 239.04 178.402 239.52C179.215 240 179.848 240.653 180.302 241.48L178.802 242.32C178.508 241.733 178.088 241.267 177.542 240.92C177.008 240.573 176.388 240.4 175.682 240.4C174.655 240.4 173.815 240.747 173.162 241.44C172.508 242.133 172.182 242.987 172.182 244C172.182 245.013 172.508 245.867 173.162 246.56C173.815 247.253 174.655 247.6 175.682 247.6C176.388 247.6 177.008 247.427 177.542 247.08C178.088 246.733 178.508 246.267 178.802 245.68L180.302 246.52C179.848 247.347 179.215 248 178.402 248.48C177.602 248.96 176.695 249.2 175.682 249.2ZM186.93 249.2C185.397 249.2 184.15 248.707 183.19 247.72C182.23 246.733 181.75 245.493 181.75 244C181.75 242.52 182.237 241.287 183.21 240.3C184.183 239.3 185.43 238.8 186.95 238.8C188.297 238.8 189.423 239.253 190.33 240.16C191.25 241.053 191.71 242.273 191.71 243.82C191.71 244.02 191.703 244.193 191.69 244.34H183.49C183.517 245.273 183.85 246.053 184.49 246.68C185.143 247.307 185.963 247.62 186.95 247.62C188.35 247.62 189.39 247.04 190.07 245.88L191.43 246.82C190.457 248.407 188.957 249.2 186.93 249.2ZM183.61 242.94H189.95C189.817 242.14 189.463 241.507 188.89 241.04C188.33 240.56 187.663 240.32 186.89 240.32C186.103 240.32 185.397 240.56 184.77 241.04C184.157 241.507 183.77 242.14 183.61 242.94ZM202.748 249.1C201.854 249.1 201.108 248.84 200.508 248.32C199.921 247.787 199.628 247.027 199.628 246.04V240.58H197.108V239H199.628V236.16H201.348V239H204.448V240.58H201.348V245.82C201.348 246.98 201.881 247.56 202.948 247.56C203.481 247.56 203.961 247.433 204.388 247.18L204.908 248.64C204.321 248.947 203.601 249.1 202.748 249.1ZM211.033 249.2C209.526 249.2 208.273 248.7 207.273 247.7C206.286 246.687 205.793 245.453 205.793 244C205.793 242.547 206.286 241.32 207.273 240.32C208.273 239.307 209.526 238.8 211.033 238.8C212.526 238.8 213.766 239.307 214.753 240.32C215.753 241.32 216.253 242.547 216.253 244C216.253 245.453 215.753 246.687 214.753 247.7C213.766 248.7 212.526 249.2 211.033 249.2ZM208.513 246.56C209.166 247.253 210.006 247.6 211.033 247.6C212.059 247.6 212.893 247.253 213.533 246.56C214.173 245.867 214.493 245.013 214.493 244C214.493 242.987 214.173 242.133 213.533 241.44C212.893 240.747 212.059 240.4 211.033 240.4C210.006 240.4 209.166 240.747 208.513 241.44C207.873 242.133 207.553 242.987 207.553 244C207.553 245.013 207.873 245.867 208.513 246.56ZM64.62 277V267H66.34V268.26C67.0067 267.287 68.06 266.8 69.5 266.8C70.6333 266.8 71.5467 267.167 72.24 267.9C72.9467 268.633 73.3 269.62 73.3 270.86V277H71.6V271.12C71.6 270.253 71.3733 269.58 70.92 269.1C70.48 268.62 69.8733 268.38 69.1 268.38C67.7133 268.38 66.7933 269.04 66.34 270.36V277H64.62ZM80.6573 281.08C79.6707 281.08 78.784 280.913 77.9973 280.58C77.224 280.247 76.6107 279.8 76.1573 279.24L77.3373 278.04C78.1773 279.027 79.284 279.52 80.6573 279.52C81.5373 279.52 82.304 279.247 82.9573 278.7C83.6107 278.167 83.9373 277.38 83.9373 276.34V275.58C83.1373 276.46 82.0507 276.9 80.6773 276.9C79.2107 276.9 77.9973 276.413 77.0373 275.44C76.0907 274.453 75.6173 273.253 75.6173 271.84C75.6173 270.427 76.0973 269.233 77.0573 268.26C78.0173 267.287 79.224 266.8 80.6773 266.8C82.0507 266.8 83.1373 267.233 83.9373 268.1V267H85.6573V276.4C85.6573 277.92 85.184 279.08 84.2373 279.88C83.2907 280.68 82.0973 281.08 80.6573 281.08ZM80.8173 275.3C82.2173 275.3 83.2573 274.753 83.9373 273.66V270.02C83.2573 268.927 82.2173 268.38 80.8173 268.38C79.8307 268.38 79.0107 268.713 78.3573 269.38C77.7173 270.047 77.3973 270.867 77.3973 271.84C77.3973 272.827 77.7173 273.653 78.3573 274.32C79.0107 274.973 79.8307 275.3 80.8173 275.3ZM88.8973 277V267H90.6173V268.48C90.8173 268.053 91.1707 267.687 91.6773 267.38C92.1973 267.06 92.744 266.9 93.3173 266.9C93.6107 266.9 93.904 266.933 94.1973 267L93.9773 268.72C93.7373 268.64 93.4507 268.6 93.1173 268.6C92.584 268.6 92.0773 268.773 91.5973 269.12C91.1307 269.453 90.804 269.92 90.6173 270.52V277H88.8973ZM100.154 277.2C98.6471 277.2 97.3938 276.7 96.3938 275.7C95.4071 274.687 94.9138 273.453 94.9138 272C94.9138 270.547 95.4071 269.32 96.3938 268.32C97.3938 267.307 98.6471 266.8 100.154 266.8C101.647 266.8 102.887 267.307 103.874 268.32C104.874 269.32 105.374 270.547 105.374 272C105.374 273.453 104.874 274.687 103.874 275.7C102.887 276.7 101.647 277.2 100.154 277.2ZM97.6338 274.56C98.2871 275.253 99.1271 275.6 100.154 275.6C101.18 275.6 102.014 275.253 102.654 274.56C103.294 273.867 103.614 273.013 103.614 272C103.614 270.987 103.294 270.133 102.654 269.44C102.014 268.747 101.18 268.4 100.154 268.4C99.1271 268.4 98.2871 268.747 97.6338 269.44C96.9938 270.133 96.6738 270.987 96.6738 272C96.6738 273.013 96.9938 273.867 97.6338 274.56ZM114.983 277L109.563 272V277H107.843V262.4H109.563V270.9L113.923 267H116.203L111.283 271.42L117.303 277H114.983Z" fill="#8C8C8C"/>
<rect x="163.5" y="88" width="1" height="64" fill="#B37FEB"/>
<defs>
<linearGradient id="paint0_linear_1146_36381" x1="44" y1="25" x2="44" y2="62.1429" gradientUnits="userSpaceOnUse">
<stop stop-color="#33334D"/>
<stop offset="1" stop-color="#231D47"/>
</linearGradient>
<linearGradient id="paint1_linear_1146_36381" x1="44" y1="25" x2="44" y2="62.1429" gradientUnits="userSpaceOnUse">
<stop stop-color="#EFDBFF"/>
<stop offset="1" stop-color="#9254DE"/>
</linearGradient>
<linearGradient id="paint2_linear_1146_36381" x1="164" y1="4" x2="164" y2="84" gradientUnits="userSpaceOnUse">
<stop stop-color="#D3ADF7"/>
<stop offset="1" stop-color="#9254DE"/>
</linearGradient>
</defs>
</svg>

