<svg width="208" height="490" viewBox="0 0 208 490" fill="none" xmlns="http://www.w3.org/2000/svg">
<path d="M4 142C4 137.582 7.58172 134 12 134H76C80.4183 134 84 137.582 84 142V206C84 210.418 80.4183 214 76 214H12C7.58172 214 4 210.418 4 206V142Z" fill="url(#paint0_linear_1146_36381)"/>
<path fill-rule="evenodd" clip-rule="evenodd" d="M46.234 155.02C52.0919 160.878 52.0919 170.376 46.234 176.234C40.3762 182.091 30.8787 182.091 25.0208 176.234C19.163 170.376 19.163 160.878 25.0208 155.02C30.8787 149.162 40.3762 149.162 46.234 155.02ZM47.2893 176.582C53.1873 170.31 53.0712 160.443 46.9411 154.313C40.6927 148.065 30.5621 148.065 24.3137 154.313C18.0653 160.562 18.0653 170.692 24.3137 176.941C30.4438 183.071 40.3106 183.187 46.5822 177.289L50.8302 181.537L50.4767 181.89C49.6956 182.671 49.6956 183.938 50.4767 184.719L61.0833 195.325C61.4738 195.716 62.1069 195.716 62.4975 195.325L65.3259 192.497C65.7164 192.106 65.7164 191.473 65.3259 191.083L54.7193 180.476C53.9383 179.695 52.6719 179.695 51.8909 180.476L51.5373 180.83L47.2893 176.582ZM28.9099 157.495C32.6199 153.785 38.635 153.785 42.3449 157.495C42.5402 157.69 42.8568 157.69 43.052 157.495C43.2473 157.3 43.2473 156.983 43.052 156.788C38.9515 152.688 32.3033 152.688 28.2028 156.788C28.0075 156.983 28.0075 157.3 28.2028 157.495C28.3981 157.69 28.7146 157.69 28.9099 157.495ZM51.1838 182.598C50.7932 182.988 50.7932 183.621 51.1838 184.012L61.7904 194.618L64.6188 191.79L54.0122 181.183C53.6217 180.793 52.9885 180.793 52.598 181.183L51.1838 182.598Z" fill="#000C17"/>
<rect x="0.5" y="130.5" width="87" height="87" rx="11.5" stroke="#69C0FF"/>
<path d="M16.18 364.98C17.5667 364.98 18.74 364.487 19.7 363.5C20.66 362.513 21.14 361.313 21.14 359.9C21.14 358.487 20.66 357.287 19.7 356.3C18.74 355.313 17.5667 354.82 16.18 354.82C14.78 354.82 13.6 355.313 12.64 356.3C11.68 357.287 11.2 358.487 11.2 359.9C11.2 361.313 11.68 362.513 12.64 363.5C13.6 364.487 14.78 364.98 16.18 364.98ZM21.38 365.1C19.9533 366.527 18.22 367.24 16.18 367.24C14.14 367.24 12.4067 366.533 10.98 365.12C9.55333 363.693 8.84 361.953 8.84 359.9C8.84 357.847 9.55333 356.113 10.98 354.7C12.4067 353.273 14.14 352.56 16.18 352.56C18.22 352.56 19.9533 353.273 21.38 354.7C22.8067 356.127 23.52 357.86 23.52 359.9C23.52 361.94 22.8067 363.673 21.38 365.1ZM30.8891 367.2C29.6624 367.2 28.6891 366.82 27.9691 366.06V367H25.7691V352.4H27.9691V357.92C28.6891 357.173 29.6624 356.8 30.8891 356.8C32.3424 356.8 33.5357 357.307 34.4691 358.32C35.4157 359.333 35.8891 360.56 35.8891 362C35.8891 363.44 35.4157 364.667 34.4691 365.68C33.5357 366.693 32.3424 367.2 30.8891 367.2ZM30.6491 365.2C31.5157 365.2 32.2291 364.893 32.7891 364.28C33.3491 363.653 33.6291 362.893 33.6291 362C33.6291 361.107 33.3491 360.353 32.7891 359.74C32.2291 359.113 31.5157 358.8 30.6491 358.8C29.5024 358.8 28.6091 359.26 27.9691 360.18V363.8C28.5957 364.733 29.4891 365.2 30.6491 365.2ZM41.2928 367.2C40.3728 367.2 39.5595 367.027 38.8528 366.68C38.1461 366.32 37.6195 365.787 37.2728 365.08L38.8928 363.92C39.0928 364.347 39.4128 364.687 39.8528 364.94C40.2928 365.18 40.7728 365.3 41.2928 365.3C41.7061 365.3 42.0461 365.207 42.3128 365.02C42.5928 364.833 42.7328 364.573 42.7328 364.24C42.7328 363.947 42.6195 363.707 42.3928 363.52C42.1795 363.333 41.7795 363.147 41.1928 362.96L40.3128 362.72C38.5395 362.24 37.6661 361.22 37.6928 359.66C37.6928 358.793 38.0328 358.1 38.7128 357.58C39.3928 357.06 40.2461 356.8 41.2728 356.8C42.8195 356.8 43.9461 357.367 44.6528 358.5L43.1328 359.66C42.6261 358.98 41.9928 358.64 41.2328 358.64C40.8728 358.64 40.5595 358.727 40.2928 358.9C40.0261 359.06 39.8928 359.287 39.8928 359.58C39.8928 359.847 39.9795 360.073 40.1528 360.26C40.3261 360.447 40.6395 360.613 41.0928 360.76L42.1128 361.06C43.0461 361.34 43.7461 361.72 44.2128 362.2C44.6795 362.667 44.9128 363.3 44.9128 364.1C44.9128 365.047 44.5728 365.8 43.8928 366.36C43.2128 366.92 42.3461 367.2 41.2928 367.2ZM51.7148 367.2C50.1948 367.2 48.9415 366.713 47.9548 365.74C46.9815 364.767 46.4948 363.52 46.4948 362C46.4948 360.52 46.9882 359.287 47.9748 358.3C48.9615 357.3 50.2082 356.8 51.7148 356.8C53.1015 356.8 54.2482 357.24 55.1548 358.12C56.0748 359 56.5348 360.213 56.5348 361.76C56.5348 362.027 56.5282 362.267 56.5148 362.48H48.6548C48.7082 363.293 49.0215 363.953 49.5948 364.46C50.1682 364.953 50.8815 365.2 51.7348 365.2C53.0148 365.2 53.9682 364.693 54.5948 363.68L56.2748 364.88C55.3148 366.427 53.7948 367.2 51.7148 367.2ZM48.7548 360.88H54.3148C54.1948 360.187 53.8815 359.647 53.3748 359.26C52.8815 358.86 52.3015 358.66 51.6348 358.66C50.9415 358.66 50.3215 358.853 49.7748 359.24C49.2415 359.627 48.9015 360.173 48.7548 360.88ZM58.7964 367V357H60.9964V358.34C61.1964 357.94 61.5297 357.6 61.9964 357.32C62.4631 357.04 62.9697 356.9 63.5164 356.9C63.8764 356.9 64.2164 356.94 64.5364 357.02L64.2164 359.16C64.0164 359.08 63.7297 359.04 63.3564 359.04C62.8897 359.04 62.4297 359.173 61.9764 359.44C61.5364 359.707 61.2097 360.087 60.9964 360.58V367H58.7964ZM69.3578 367L64.8378 357H67.2778L70.3178 364.02L73.3778 357H75.8378L71.2978 367H69.3578ZM81.4163 367.2C79.9629 367.2 78.7696 366.693 77.8363 365.68C76.9029 364.667 76.4363 363.44 76.4363 362C76.4363 360.56 76.9029 359.333 77.8363 358.32C78.7696 357.307 79.9629 356.8 81.4163 356.8C82.6429 356.8 83.6163 357.173 84.3363 357.92V357H86.5363V367H84.3363V366.06C83.6163 366.82 82.6429 367.2 81.4163 367.2ZM81.6763 365.2C82.8229 365.2 83.7096 364.733 84.3363 363.8V360.18C83.6963 359.26 82.8096 358.8 81.6763 358.8C80.8096 358.8 80.0963 359.113 79.5363 359.74C78.9763 360.353 78.6963 361.107 78.6963 362C78.6963 362.893 78.9763 363.653 79.5363 364.28C80.0963 364.893 80.8096 365.2 81.6763 365.2ZM94.6391 367.2C93.4124 367.2 92.4391 366.82 91.7191 366.06V367H89.5191V352.4H91.7191V357.92C92.4391 357.173 93.4124 356.8 94.6391 356.8C96.0924 356.8 97.2857 357.307 98.2191 358.32C99.1657 359.333 99.6391 360.56 99.6391 362C99.6391 363.44 99.1657 364.667 98.2191 365.68C97.2857 366.693 96.0924 367.2 94.6391 367.2ZM94.3991 365.2C95.2657 365.2 95.9791 364.893 96.5391 364.28C97.0991 363.653 97.3791 362.893 97.3791 362C97.3791 361.107 97.0991 360.353 96.5391 359.74C95.9791 359.113 95.2657 358.8 94.3991 358.8C93.2524 358.8 92.3591 359.26 91.7191 360.18V363.8C92.3457 364.733 93.2391 365.2 94.3991 365.2ZM103.002 355.22C102.602 355.22 102.255 355.08 101.962 354.8C101.682 354.507 101.542 354.153 101.542 353.74C101.542 353.34 101.682 353 101.962 352.72C102.255 352.427 102.602 352.28 103.002 352.28C103.415 352.28 103.762 352.427 104.042 352.72C104.335 353 104.482 353.34 104.482 353.74C104.482 354.153 104.335 354.507 104.042 354.8C103.762 355.08 103.415 355.22 103.002 355.22ZM101.902 367V357H104.102V367H101.902ZM107.058 367V352.4H109.258V367H107.058ZM113.314 355.22C112.914 355.22 112.568 355.08 112.274 354.8C111.994 354.507 111.854 354.153 111.854 353.74C111.854 353.34 111.994 353 112.274 352.72C112.568 352.427 112.914 352.28 113.314 352.28C113.728 352.28 114.074 352.427 114.354 352.72C114.648 353 114.794 353.34 114.794 353.74C114.794 354.153 114.648 354.507 114.354 354.8C114.074 355.08 113.728 355.22 113.314 355.22ZM112.214 367V357H114.414V367H112.214ZM122.111 367.1C121.084 367.1 120.244 366.82 119.591 366.26C118.951 365.687 118.631 364.86 118.631 363.78V358.96H116.151V357H118.631V354.1H120.831V357H123.891V358.96H120.831V363.42C120.831 364.553 121.351 365.12 122.391 365.12C122.937 365.12 123.411 365 123.811 364.76L124.471 366.6C123.777 366.933 122.991 367.1 122.111 367.1ZM129.48 370.88H127.06L129.06 366.46L124.76 357H127.18L130.24 364.08L133.32 357H135.76L129.48 370.88Z" fill="white"/>
<path d="M9.88 399V384.8H14.54C15.82 384.8 16.8467 385.167 17.62 385.9C18.3933 386.633 18.78 387.52 18.78 388.56C18.78 389.867 18.2733 390.833 17.26 391.46C18.9 392.06 19.72 393.193 19.72 394.86C19.72 396.06 19.28 397.053 18.4 397.84C17.5333 398.613 16.3867 399 14.96 399H9.88ZM11.74 397.32H15.04C15.9733 397.32 16.68 397.107 17.16 396.68C17.6533 396.24 17.9 395.653 17.9 394.92C17.9 394.2 17.6533 393.62 17.16 393.18C16.68 392.727 15.98 392.5 15.06 392.5H11.74V397.32ZM11.74 390.9H14.54C15.2867 390.9 15.8733 390.7 16.3 390.3C16.74 389.887 16.96 389.353 16.96 388.7C16.96 388.073 16.74 387.547 16.3 387.12C15.86 386.693 15.2733 386.48 14.54 386.48H11.74V390.9ZM30.5186 389V399H28.7986V397.74C28.1319 398.713 27.1253 399.2 25.7786 399.2C24.6719 399.2 23.7719 398.833 23.0786 398.1C22.3853 397.367 22.0386 396.38 22.0386 395.14V389H23.7586V394.88C23.7586 395.76 23.9653 396.44 24.3786 396.92C24.8053 397.387 25.3986 397.62 26.1586 397.62C26.7853 397.62 27.3253 397.44 27.7786 397.08C28.2453 396.72 28.5853 396.24 28.7986 395.64V389H30.5186ZM35.5006 386.38C35.274 386.607 34.9873 386.72 34.6406 386.72C34.294 386.72 34.0006 386.607 33.7606 386.38C33.5206 386.14 33.4006 385.847 33.4006 385.5C33.4006 385.167 33.5206 384.88 33.7606 384.64C34.0006 384.4 34.294 384.28 34.6406 384.28C34.9873 384.28 35.274 384.4 35.5006 384.64C35.7406 384.88 35.8606 385.167 35.8606 385.5C35.8606 385.847 35.7406 386.14 35.5006 386.38ZM33.7606 399V389H35.4806V399H33.7606ZM38.7411 399V384.4H40.4611V399H38.7411ZM47.9816 399.2C46.5149 399.2 45.3082 398.7 44.3616 397.7C43.4149 396.687 42.9416 395.453 42.9416 394C42.9416 392.547 43.4149 391.32 44.3616 390.32C45.3082 389.307 46.5149 388.8 47.9816 388.8C49.3549 388.8 50.4416 389.233 51.2416 390.1V384.4H52.9616V399H51.2416V397.9C50.4416 398.767 49.3549 399.2 47.9816 399.2ZM48.1216 397.62C49.5216 397.62 50.5616 397.067 51.2416 395.96V392.02C50.5616 390.927 49.5216 390.38 48.1216 390.38C47.1349 390.38 46.3216 390.733 45.6816 391.44C45.0416 392.133 44.7216 392.987 44.7216 394C44.7216 395.013 45.0416 395.873 45.6816 396.58C46.3216 397.273 47.1349 397.62 48.1216 397.62ZM65.2862 399.2C63.8196 399.2 62.6129 398.7 61.6663 397.7C60.7196 396.687 60.2463 395.453 60.2463 394C60.2463 392.547 60.7196 391.32 61.6663 390.32C62.6129 389.307 63.8196 388.8 65.2862 388.8C66.6596 388.8 67.7463 389.233 68.5463 390.1V389H70.2663V399H68.5463V397.9C67.7463 398.767 66.6596 399.2 65.2862 399.2ZM65.4263 397.62C66.8263 397.62 67.8663 397.067 68.5463 395.96V392.02C67.8663 390.927 66.8263 390.38 65.4263 390.38C64.4396 390.38 63.6263 390.733 62.9863 391.44C62.3463 392.133 62.0263 392.987 62.0263 394C62.0263 395.013 62.3463 395.873 62.9863 396.58C63.6263 397.273 64.4396 397.62 65.4263 397.62ZM81.8467 389V399H80.1267V397.74C79.4601 398.713 78.4534 399.2 77.1067 399.2C76.0001 399.2 75.1001 398.833 74.4067 398.1C73.7134 397.367 73.3667 396.38 73.3667 395.14V389H75.0867V394.88C75.0867 395.76 75.2934 396.44 75.7067 396.92C76.1334 397.387 76.7267 397.62 77.4867 397.62C78.1134 397.62 78.6534 397.44 79.1067 397.08C79.5734 396.72 79.9134 396.24 80.1267 395.64V389H81.8467ZM89.3487 399.2C87.8821 399.2 86.6754 398.7 85.7288 397.7C84.7821 396.687 84.3088 395.453 84.3088 394C84.3088 392.547 84.7821 391.32 85.7288 390.32C86.6754 389.307 87.8821 388.8 89.3487 388.8C90.7221 388.8 91.8088 389.233 92.6088 390.1V384.4H94.3288V399H92.6088V397.9C91.8088 398.767 90.7221 399.2 89.3487 399.2ZM89.4888 397.62C90.8888 397.62 91.9288 397.067 92.6088 395.96V392.02C91.9288 390.927 90.8888 390.38 89.4888 390.38C88.5021 390.38 87.6888 390.733 87.0488 391.44C86.4088 392.133 86.0888 392.987 86.0888 394C86.0888 395.013 86.4088 395.873 87.0488 396.58C87.6888 397.273 88.5021 397.62 89.4888 397.62ZM99.3092 386.38C99.0826 386.607 98.7959 386.72 98.4492 386.72C98.1026 386.72 97.8092 386.607 97.5692 386.38C97.3292 386.14 97.2092 385.847 97.2092 385.5C97.2092 385.167 97.3292 384.88 97.5692 384.64C97.8092 384.4 98.1026 384.28 98.4492 384.28C98.7959 384.28 99.0826 384.4 99.3092 384.64C99.5492 384.88 99.6692 385.167 99.6692 385.5C99.6692 385.847 99.5492 386.14 99.3092 386.38ZM97.5692 399V389H99.2892V399H97.5692ZM106.83 399.1C105.936 399.1 105.19 398.84 104.59 398.32C104.003 397.787 103.71 397.027 103.71 396.04V390.58H101.19V389H103.71V386.16H105.43V389H108.53V390.58H105.43V395.82C105.43 396.98 105.963 397.56 107.03 397.56C107.563 397.56 108.043 397.433 108.47 397.18L108.99 398.64C108.403 398.947 107.683 399.1 106.83 399.1ZM119.447 399.1C118.554 399.1 117.807 398.84 117.207 398.32C116.62 397.787 116.327 397.027 116.327 396.04V390.58H113.807V389H116.327V386.16H118.047V389H121.147V390.58H118.047V395.82C118.047 396.98 118.58 397.56 119.647 397.56C120.18 397.56 120.66 397.433 121.087 397.18L121.607 398.64C121.02 398.947 120.3 399.1 119.447 399.1ZM123.468 399V389H125.188V390.48C125.388 390.053 125.741 389.687 126.248 389.38C126.768 389.06 127.314 388.9 127.888 388.9C128.181 388.9 128.474 388.933 128.768 389L128.548 390.72C128.308 390.64 128.021 390.6 127.688 390.6C127.154 390.6 126.648 390.773 126.168 391.12C125.701 391.453 125.374 391.92 125.188 392.52V399H123.468ZM134.564 399.2C133.097 399.2 131.89 398.7 130.944 397.7C129.997 396.687 129.524 395.453 129.524 394C129.524 392.547 129.997 391.32 130.944 390.32C131.89 389.307 133.097 388.8 134.564 388.8C135.937 388.8 137.024 389.233 137.824 390.1V389H139.544V399H137.824V397.9C137.024 398.767 135.937 399.2 134.564 399.2ZM134.704 397.62C136.104 397.62 137.144 397.067 137.824 395.96V392.02C137.144 390.927 136.104 390.38 134.704 390.38C133.717 390.38 132.904 390.733 132.264 391.44C131.624 392.133 131.304 392.987 131.304 394C131.304 395.013 131.624 395.873 132.264 396.58C132.904 397.273 133.717 397.62 134.704 397.62ZM144.524 386.38C144.297 386.607 144.011 386.72 143.664 386.72C143.317 386.72 143.024 386.607 142.784 386.38C142.544 386.14 142.424 385.847 142.424 385.5C142.424 385.167 142.544 384.88 142.784 384.64C143.024 384.4 143.317 384.28 143.664 384.28C144.011 384.28 144.297 384.4 144.524 384.64C144.764 384.88 144.884 385.167 144.884 385.5C144.884 385.847 144.764 386.14 144.524 386.38ZM142.784 399V389H144.504V399H142.784ZM147.765 399V384.4H149.485V399H147.765ZM155.765 399.2C154.845 399.2 154.038 399.007 153.345 398.62C152.652 398.22 152.152 397.64 151.845 396.88L153.245 396.1C153.432 396.593 153.758 396.98 154.225 397.26C154.692 397.54 155.212 397.68 155.785 397.68C156.278 397.68 156.692 397.56 157.025 397.32C157.358 397.08 157.525 396.753 157.525 396.34C157.525 395.98 157.392 395.68 157.125 395.44C156.872 395.2 156.425 394.98 155.785 394.78L154.785 394.46C153.118 393.98 152.285 393.007 152.285 391.54C152.285 390.713 152.612 390.053 153.265 389.56C153.932 389.053 154.752 388.8 155.725 388.8C157.245 388.8 158.345 389.38 159.025 390.54L157.745 391.42C157.198 390.66 156.505 390.28 155.665 390.28C155.212 390.28 154.818 390.393 154.485 390.62C154.165 390.833 154.005 391.12 154.005 391.48C154.005 391.813 154.105 392.1 154.305 392.34C154.518 392.567 154.892 392.76 155.425 392.92L156.525 393.26C158.338 393.82 159.245 394.8 159.245 396.2C159.245 397.133 158.918 397.867 158.265 398.4C157.625 398.933 156.792 399.2 155.765 399.2ZM174.702 399L172.222 391.82L169.762 399H168.242L164.842 389H166.642L169.062 396.3L171.562 389H172.882L175.382 396.3L177.802 389H179.622L176.222 399H174.702ZM183.215 386.38C182.989 386.607 182.702 386.72 182.355 386.72C182.009 386.72 181.715 386.607 181.475 386.38C181.235 386.14 181.115 385.847 181.115 385.5C181.115 385.167 181.235 384.88 181.475 384.64C181.715 384.4 182.009 384.28 182.355 384.28C182.702 384.28 182.989 384.4 183.215 384.64C183.455 384.88 183.575 385.167 183.575 385.5C183.575 385.847 183.455 386.14 183.215 386.38ZM181.475 399V389H183.195V399H181.475ZM190.736 399.1C189.843 399.1 189.096 398.84 188.496 398.32C187.909 397.787 187.616 397.027 187.616 396.04V390.58H185.096V389H187.616V386.16H189.336V389H192.436V390.58H189.336V395.82C189.336 396.98 189.869 397.56 190.936 397.56C191.469 397.56 191.949 397.433 192.376 397.18L192.896 398.64C192.309 398.947 191.589 399.1 190.736 399.1ZM196.477 399H194.757V384.4H196.477V390.26C197.143 389.287 198.197 388.8 199.637 388.8C200.77 388.8 201.683 389.167 202.377 389.9C203.083 390.633 203.437 391.62 203.437 392.86V399H201.737V393.12C201.737 392.253 201.51 391.58 201.057 391.1C200.617 390.62 200.01 390.38 199.237 390.38C197.85 390.38 196.93 391.04 196.477 392.36V399ZM13.9 427.1C13.0067 427.1 12.26 426.84 11.66 426.32C11.0733 425.787 10.78 425.027 10.78 424.04V418.58H8.26V417H10.78V414.16H12.5V417H15.6V418.58H12.5V423.82C12.5 424.98 13.0333 425.56 14.1 425.56C14.6333 425.56 15.1133 425.433 15.54 425.18L16.06 426.64C15.4733 426.947 14.7533 427.1 13.9 427.1ZM17.9208 427V417H19.6408V418.48C19.8408 418.053 20.1941 417.687 20.7008 417.38C21.2208 417.06 21.7674 416.9 22.3408 416.9C22.6341 416.9 22.9274 416.933 23.2208 417L23.0008 418.72C22.7608 418.64 22.4741 418.6 22.1408 418.6C21.6074 418.6 21.1008 418.773 20.6208 419.12C20.1541 419.453 19.8274 419.92 19.6408 420.52V427H17.9208ZM29.0167 427.2C27.5501 427.2 26.3434 426.7 25.3967 425.7C24.4501 424.687 23.9767 423.453 23.9767 422C23.9767 420.547 24.4501 419.32 25.3967 418.32C26.3434 417.307 27.5501 416.8 29.0167 416.8C30.3901 416.8 31.4767 417.233 32.2767 418.1V417H33.9967V427H32.2767V425.9C31.4767 426.767 30.3901 427.2 29.0167 427.2ZM29.1567 425.62C30.5567 425.62 31.5967 425.067 32.2767 423.96V420.02C31.5967 418.927 30.5567 418.38 29.1567 418.38C28.1701 418.38 27.3567 418.733 26.7167 419.44C26.0767 420.133 25.7567 420.987 25.7567 422C25.7567 423.013 26.0767 423.873 26.7167 424.58C27.3567 425.273 28.1701 425.62 29.1567 425.62ZM54.7372 414.38C54.5105 414.607 54.2239 414.72 53.8772 414.72C53.5305 414.72 53.2372 414.607 52.9972 414.38C52.7572 414.14 52.6372 413.847 52.6372 413.5C52.6372 413.167 52.7572 412.88 52.9972 412.64C53.2372 412.4 53.5305 412.28 53.8772 412.28C54.2239 412.28 54.5105 412.4 54.7372 412.64C54.9772 412.88 55.0972 413.167 55.0972 413.5C55.0972 413.847 54.9772 414.14 54.7372 414.38ZM52.9972 427V417H54.7172V427H52.9972ZM38.2972 427V418.58H35.9372V417H38.2972V415.54C38.2972 414.553 38.5839 413.767 39.1572 413.18C39.7439 412.58 40.5305 412.28 41.5172 412.28C42.2772 412.28 42.9772 412.447 43.6172 412.78L42.9572 414.22C42.4372 413.98 41.9839 413.86 41.5972 413.86C41.0905 413.86 40.6972 414.02 40.4172 414.34C40.1505 414.647 40.0172 415.08 40.0172 415.64V417H42.8972V418.58H40.0172V427H38.2972ZM46.0372 427V418.58H44.0172V417H46.0372V415.54C46.0372 414.54 46.3239 413.747 46.8972 413.16C47.4705 412.573 48.2572 412.28 49.2572 412.28C50.0039 412.28 50.6972 412.447 51.3372 412.78L50.6972 414.22C50.1772 413.98 49.7239 413.86 49.3372 413.86C48.8305 413.86 48.4372 414.02 48.1572 414.34C47.8905 414.647 47.7572 415.08 47.7572 415.64V417H51.1572V418.58H47.7572V427H46.0372ZM62.4394 427.2C60.9327 427.2 59.6794 426.7 58.6794 425.7C57.6927 424.7 57.1994 423.467 57.1994 422C57.1994 420.533 57.6927 419.3 58.6794 418.3C59.6794 417.3 60.9327 416.8 62.4394 416.8C63.4527 416.8 64.3594 417.04 65.1594 417.52C65.9727 418 66.606 418.653 67.0594 419.48L65.5594 420.32C65.266 419.733 64.846 419.267 64.2994 418.92C63.766 418.573 63.146 418.4 62.4394 418.4C61.4127 418.4 60.5727 418.747 59.9194 419.44C59.266 420.133 58.9394 420.987 58.9394 422C58.9394 423.013 59.266 423.867 59.9194 424.56C60.5727 425.253 61.4127 425.6 62.4394 425.6C63.146 425.6 63.766 425.427 64.2994 425.08C64.846 424.733 65.266 424.267 65.5594 423.68L67.0594 424.52C66.606 425.347 65.9727 426 65.1594 426.48C64.3594 426.96 63.4527 427.2 62.4394 427.2ZM78.3722 427.2C76.9055 427.2 75.6989 426.7 74.7522 425.7C73.8055 424.687 73.3322 423.453 73.3322 422C73.3322 420.547 73.8055 419.32 74.7522 418.32C75.6989 417.307 76.9055 416.8 78.3722 416.8C79.7455 416.8 80.8322 417.233 81.6322 418.1V417H83.3522V427H81.6322V425.9C80.8322 426.767 79.7455 427.2 78.3722 427.2ZM78.5122 425.62C79.9122 425.62 80.9522 425.067 81.6322 423.96V420.02C80.9522 418.927 79.9122 418.38 78.5122 418.38C77.5255 418.38 76.7122 418.733 76.0722 419.44C75.4322 420.133 75.1122 420.987 75.1122 422C75.1122 423.013 75.4322 423.873 76.0722 424.58C76.7122 425.273 77.5255 425.62 78.5122 425.62ZM86.5927 427V417H88.3127V418.26C88.9793 417.287 90.0327 416.8 91.4727 416.8C92.606 416.8 93.5193 417.167 94.2127 417.9C94.9193 418.633 95.2727 419.62 95.2727 420.86V427H93.5727V421.12C93.5727 420.253 93.346 419.58 92.8927 419.1C92.4527 418.62 91.846 418.38 91.0727 418.38C89.686 418.38 88.766 419.04 88.3127 420.36V427H86.5927ZM102.63 427.2C101.163 427.2 99.9567 426.7 99.01 425.7C98.0633 424.687 97.59 423.453 97.59 422C97.59 420.547 98.0633 419.32 99.01 418.32C99.9567 417.307 101.163 416.8 102.63 416.8C104.003 416.8 105.09 417.233 105.89 418.1V412.4H107.61V427H105.89V425.9C105.09 426.767 104.003 427.2 102.63 427.2ZM102.77 425.62C104.17 425.62 105.21 425.067 105.89 423.96V420.02C105.21 418.927 104.17 418.38 102.77 418.38C101.783 418.38 100.97 418.733 100.33 419.44C99.69 420.133 99.37 420.987 99.37 422C99.37 423.013 99.69 423.873 100.33 424.58C100.97 425.273 101.783 425.62 102.77 425.62ZM119.935 427.2C118.468 427.2 117.261 426.7 116.315 425.7C115.368 424.687 114.895 423.453 114.895 422C114.895 420.547 115.368 419.32 116.315 418.32C117.261 417.307 118.468 416.8 119.935 416.8C121.308 416.8 122.395 417.233 123.195 418.1V417H124.915V427H123.195V425.9C122.395 426.767 121.308 427.2 119.935 427.2ZM120.075 425.62C121.475 425.62 122.515 425.067 123.195 423.96V420.02C122.515 418.927 121.475 418.38 120.075 418.38C119.088 418.38 118.275 418.733 117.635 419.44C116.995 420.133 116.675 420.987 116.675 422C116.675 423.013 116.995 423.873 117.635 424.58C118.275 425.273 119.088 425.62 120.075 425.62ZM132.615 427.2C131.108 427.2 129.855 426.7 128.855 425.7C127.868 424.7 127.375 423.467 127.375 422C127.375 420.533 127.868 419.3 128.855 418.3C129.855 417.3 131.108 416.8 132.615 416.8C133.628 416.8 134.535 417.04 135.335 417.52C136.148 418 136.782 418.653 137.235 419.48L135.735 420.32C135.442 419.733 135.022 419.267 134.475 418.92C133.942 418.573 133.322 418.4 132.615 418.4C131.588 418.4 130.748 418.747 130.095 419.44C129.442 420.133 129.115 420.987 129.115 422C129.115 423.013 129.442 423.867 130.095 424.56C130.748 425.253 131.588 425.6 132.615 425.6C133.322 425.6 133.942 425.427 134.475 425.08C135.022 424.733 135.442 424.267 135.735 423.68L137.235 424.52C136.782 425.347 136.148 426 135.335 426.48C134.535 426.96 133.628 427.2 132.615 427.2ZM143.924 427.2C142.417 427.2 141.164 426.7 140.164 425.7C139.177 424.7 138.684 423.467 138.684 422C138.684 420.533 139.177 419.3 140.164 418.3C141.164 417.3 142.417 416.8 143.924 416.8C144.937 416.8 145.844 417.04 146.644 417.52C147.457 418 148.09 418.653 148.544 419.48L147.044 420.32C146.75 419.733 146.33 419.267 145.784 418.92C145.25 418.573 144.63 418.4 143.924 418.4C142.897 418.4 142.057 418.747 141.404 419.44C140.75 420.133 140.424 420.987 140.424 422C140.424 423.013 140.75 423.867 141.404 424.56C142.057 425.253 142.897 425.6 143.924 425.6C144.63 425.6 145.25 425.427 145.784 425.08C146.33 424.733 146.75 424.267 147.044 423.68L148.544 424.52C148.09 425.347 147.457 426 146.644 426.48C145.844 426.96 144.937 427.2 143.924 427.2ZM155.212 427.2C153.706 427.2 152.452 426.7 151.452 425.7C150.466 424.687 149.972 423.453 149.972 422C149.972 420.547 150.466 419.32 151.452 418.32C152.452 417.307 153.706 416.8 155.212 416.8C156.706 416.8 157.946 417.307 158.932 418.32C159.932 419.32 160.432 420.547 160.432 422C160.432 423.453 159.932 424.687 158.932 425.7C157.946 426.7 156.706 427.2 155.212 427.2ZM152.692 424.56C153.346 425.253 154.186 425.6 155.212 425.6C156.239 425.6 157.072 425.253 157.712 424.56C158.352 423.867 158.672 423.013 158.672 422C158.672 420.987 158.352 420.133 157.712 419.44C157.072 418.747 156.239 418.4 155.212 418.4C154.186 418.4 153.346 418.747 152.692 419.44C152.052 420.133 151.732 420.987 151.732 422C151.732 423.013 152.052 423.867 152.692 424.56ZM171.241 417V427H169.521V425.74C168.855 426.713 167.848 427.2 166.501 427.2C165.395 427.2 164.495 426.833 163.801 426.1C163.108 425.367 162.761 424.38 162.761 423.14V417H164.481V422.88C164.481 423.76 164.688 424.44 165.101 424.92C165.528 425.387 166.121 425.62 166.881 425.62C167.508 425.62 168.048 425.44 168.501 425.08C168.968 424.72 169.308 424.24 169.521 423.64V417H171.241ZM174.483 427V417H176.203V418.26C176.87 417.287 177.923 416.8 179.363 416.8C180.497 416.8 181.41 417.167 182.103 417.9C182.81 418.633 183.163 419.62 183.163 420.86V427H181.463V421.12C181.463 420.253 181.237 419.58 180.783 419.1C180.343 418.62 179.737 418.38 178.963 418.38C177.577 418.38 176.657 419.04 176.203 420.36V427H174.483ZM190.384 427.1C189.491 427.1 188.744 426.84 188.144 426.32C187.558 425.787 187.264 425.027 187.264 424.04V418.58H184.744V417H187.264V414.16H188.984V417H192.084V418.58H188.984V423.82C188.984 424.98 189.518 425.56 190.584 425.56C191.118 425.56 191.598 425.433 192.024 425.18L192.544 426.64C191.958 426.947 191.238 427.1 190.384 427.1ZM14.02 455.2C12.4867 455.2 11.24 454.707 10.28 453.72C9.32 452.733 8.84 451.493 8.84 450C8.84 448.52 9.32667 447.287 10.3 446.3C11.2733 445.3 12.52 444.8 14.04 444.8C15.3867 444.8 16.5133 445.253 17.42 446.16C18.34 447.053 18.8 448.273 18.8 449.82C18.8 450.02 18.7933 450.193 18.78 450.34H10.58C10.6067 451.273 10.94 452.053 11.58 452.68C12.2333 453.307 13.0533 453.62 14.04 453.62C15.44 453.62 16.48 453.04 17.16 451.88L18.52 452.82C17.5467 454.407 16.0467 455.2 14.02 455.2ZM10.7 448.94H17.04C16.9067 448.14 16.5533 447.507 15.98 447.04C15.42 446.56 14.7533 446.32 13.98 446.32C13.1933 446.32 12.4867 446.56 11.86 447.04C11.2467 447.507 10.86 448.14 10.7 448.94ZM24.2048 455L19.5848 445H21.5048L24.9248 452.58L28.3448 445H30.2648L25.6448 455H24.2048ZM36.188 455.2C34.6546 455.2 33.408 454.707 32.448 453.72C31.488 452.733 31.008 451.493 31.008 450C31.008 448.52 31.4946 447.287 32.468 446.3C33.4413 445.3 34.688 444.8 36.208 444.8C37.5546 444.8 38.6813 445.253 39.588 446.16C40.508 447.053 40.968 448.273 40.968 449.82C40.968 450.02 40.9613 450.193 40.948 450.34H32.748C32.7746 451.273 33.108 452.053 33.748 452.68C34.4013 453.307 35.2213 453.62 36.208 453.62C37.608 453.62 38.648 453.04 39.328 451.88L40.688 452.82C39.7146 454.407 38.2146 455.2 36.188 455.2ZM32.868 448.94H39.208C39.0746 448.14 38.7213 447.507 38.148 447.04C37.588 446.56 36.9213 446.32 36.148 446.32C35.3613 446.32 34.6546 446.56 34.028 447.04C33.4146 447.507 33.028 448.14 32.868 448.94ZM43.4091 455V445H45.1291V446.26C45.7957 445.287 46.8491 444.8 48.2891 444.8C49.4224 444.8 50.3357 445.167 51.0291 445.9C51.7357 446.633 52.0891 447.62 52.0891 448.86V455H50.3891V449.12C50.3891 448.253 50.1624 447.58 49.7091 447.1C49.2691 446.62 48.6624 446.38 47.8891 446.38C46.5024 446.38 45.5824 447.04 45.1291 448.36V455H43.4091ZM59.3102 455.1C58.4168 455.1 57.6702 454.84 57.0702 454.32C56.4835 453.787 56.1902 453.027 56.1902 452.04V446.58H53.6702V445H56.1902V442.16H57.9102V445H61.0102V446.58H57.9102V451.82C57.9102 452.98 58.4435 453.56 59.5102 453.56C60.0435 453.56 60.5235 453.433 60.9502 453.18L61.4702 454.64C60.8835 454.947 60.1635 455.1 59.3102 455.1ZM66.3509 455.2C65.4309 455.2 64.6243 455.007 63.9309 454.62C63.2376 454.22 62.7376 453.64 62.4309 452.88L63.8309 452.1C64.0176 452.593 64.3443 452.98 64.8109 453.26C65.2776 453.54 65.7976 453.68 66.3709 453.68C66.8643 453.68 67.2776 453.56 67.6109 453.32C67.9443 453.08 68.1109 452.753 68.1109 452.34C68.1109 451.98 67.9776 451.68 67.7109 451.44C67.4576 451.2 67.0109 450.98 66.3709 450.78L65.3709 450.46C63.7043 449.98 62.8709 449.007 62.8709 447.54C62.8709 446.713 63.1976 446.053 63.8509 445.56C64.5176 445.053 65.3376 444.8 66.3109 444.8C67.8309 444.8 68.9309 445.38 69.6109 446.54L68.3309 447.42C67.7843 446.66 67.0909 446.28 66.2509 446.28C65.7976 446.28 65.4043 446.393 65.0709 446.62C64.7509 446.833 64.5909 447.12 64.5909 447.48C64.5909 447.813 64.6909 448.1 64.8909 448.34C65.1043 448.567 65.4776 448.76 66.0109 448.92L67.1109 449.26C68.9243 449.82 69.8309 450.8 69.8309 452.2C69.8309 453.133 69.5043 453.867 68.8509 454.4C68.2109 454.933 67.3776 455.2 66.3509 455.2Z" fill="#8C8C8C"/>
<rect x="43.5" y="218" width="1" height="112" fill="#69C0FF"/>
<path d="M116 12C116 7.58172 119.582 4 124 4H172C176.418 4 180 7.58172 180 12V60C180 64.4183 176.418 68 172 68H124C119.582 68 116 64.4183 116 60V12Z" fill="url(#paint1_linear_1146_36381)"/>
<path fill-rule="evenodd" clip-rule="evenodd" d="M138.833 41.44C138.922 41.2376 139.158 41.1453 139.36 41.2338C141.698 42.2564 144.896 42.8405 148.251 42.8405C148.472 42.8405 148.651 43.0196 148.651 43.2405C148.651 43.4614 148.472 43.6405 148.251 43.6405C144.817 43.6405 141.503 43.0446 139.04 41.9668C138.837 41.8782 138.745 41.6424 138.833 41.44Z" fill="black"/>
<path fill-rule="evenodd" clip-rule="evenodd" d="M138.833 45.44C138.922 45.2376 139.158 45.1453 139.36 45.2338C141.698 46.2564 144.896 46.8405 148.251 46.8405C148.472 46.8405 148.651 47.0196 148.651 47.2405C148.651 47.4614 148.472 47.6405 148.251 47.6405C144.817 47.6405 141.503 47.0446 139.04 45.9668C138.837 45.8782 138.745 45.6424 138.833 45.44Z" fill="black"/>
<path fill-rule="evenodd" clip-rule="evenodd" d="M160.791 18.9881C160.797 19.0582 160.8 19.1285 160.8 19.1992V52.7992C160.8 53.5716 160.443 54.3082 159.794 54.979C159.147 55.649 158.209 56.2523 157.051 56.759C154.735 57.7724 151.535 58.3992 148 58.3992C144.466 58.3992 141.266 57.7724 138.949 56.759C137.791 56.2523 136.854 55.649 136.206 54.979C135.558 54.3082 135.2 53.5716 135.2 52.7992V19.1996C135.2 19.1289 135.203 19.0582 135.209 18.9881C135.463 15.9933 141.093 13.5996 148 13.5996C154.908 13.5996 160.537 15.9933 160.791 18.9881ZM160 19.1992C160 18.6908 159.768 18.1433 159.219 17.5757C158.666 17.0041 157.828 16.4529 156.73 15.9726C154.537 15.0131 151.451 14.3996 148 14.3996C144.549 14.3996 141.463 15.0131 139.27 15.9726C138.172 16.4529 137.334 17.0041 136.781 17.5757C136.233 18.1433 136 18.6908 136 19.1992M160 19.1992V19.918L159.391 20.6343C158.627 21.5328 157.168 22.3851 155.146 23.0106C153.146 23.6294 150.68 23.9996 148 23.9996C145.32 23.9996 142.854 23.6294 140.854 23.0106C138.832 22.3851 137.374 21.5328 136.61 20.6343L136 19.918V19.1992M136 52.7992C136 53.3077 136.232 53.8552 136.781 54.4229C137.334 54.9945 138.172 55.5458 139.27 56.0261C141.463 56.9857 144.549 57.5992 148 57.5992C151.451 57.5992 154.537 56.9857 156.731 56.0261C157.828 55.5458 158.667 54.9945 159.219 54.4229C159.768 53.8552 160 53.3077 160 52.7992V21.1527C159.776 21.416 159.508 21.6699 159.2 21.9128C157.017 23.6344 152.819 24.7996 148 24.7996C143.181 24.7996 138.984 23.6344 136.8 21.9128C136.492 21.6699 136.224 21.416 136 21.1527L136 52.7992Z" fill="black"/>
<path d="M152 43.2004C152 43.6422 151.642 44.0004 151.2 44.0004C150.758 44.0004 150.4 43.6422 150.4 43.2004C150.4 42.7586 150.758 42.4004 151.2 42.4004C151.642 42.4004 152 42.7586 152 43.2004Z" fill="black"/>
<path d="M152 47.2004C152 47.6422 151.642 48.0004 151.2 48.0004C150.758 48.0004 150.4 47.6422 150.4 47.2004C150.4 46.7586 150.758 46.4004 151.2 46.4004C151.642 46.4004 152 46.7586 152 47.2004Z" fill="black"/>
<path d="M124 8H172V0H124V8ZM176 12V60H184V12H176ZM172 64H124V72H172V64ZM120 60V12H112V60H120ZM124 64C121.791 64 120 62.2091 120 60H112C112 66.6274 117.373 72 124 72V64ZM176 60C176 62.2091 174.209 64 172 64V72C178.627 72 184 66.6274 184 60H176ZM172 8C174.209 8 176 9.79086 176 12H184C184 5.37258 178.627 0 172 0V8ZM124 0C117.373 0 112 5.37258 112 12H120C120 9.79086 121.791 8 124 8V0Z" fill="black"/>
<path d="M148.707 73.2929C148.317 72.9024 147.683 72.9024 147.293 73.2929L140.929 79.6569C140.538 80.0474 140.538 80.6805 140.929 81.0711C141.319 81.4616 141.953 81.4616 142.343 81.0711L148 75.4142L153.657 81.0711C154.047 81.4616 154.681 81.4616 155.071 81.0711C155.462 80.6805 155.462 80.0474 155.071 79.6569L148.707 73.2929ZM45 130V122H43V130H45ZM52 115H140V113H52V115ZM149 106V74H147V106H149ZM140 115C144.971 115 149 110.971 149 106H147C147 109.866 143.866 113 140 113V115ZM45 122C45 118.134 48.134 115 52 115V113C47.0294 113 43 117.029 43 122H45Z" fill="#69C0FF"/>
<defs>
<linearGradient id="paint0_linear_1146_36381" x1="44" y1="134" x2="44" y2="214" gradientUnits="userSpaceOnUse">
<stop stop-color="#BAE7FF"/>
<stop offset="1" stop-color="#69C0FF"/>
</linearGradient>
<linearGradient id="paint1_linear_1146_36381" x1="148" y1="4" x2="148" y2="68" gradientUnits="userSpaceOnUse">
<stop stop-color="#BAE7FF"/>
<stop offset="1" stop-color="#69C0FF"/>
</linearGradient>
</defs>
</svg>

