<svg width="250" height="302" viewBox="0 0 250 302" fill="none" xmlns="http://www.w3.org/2000/svg">
<path d="M119.351 91C118.798 91 118.351 90.5523 118.351 90C118.351 89.4477 118.798 89 119.351 89V91ZM114.052 89C114.604 89 115.052 89.4477 115.052 90C115.052 90.5523 114.604 91 114.052 91V89ZM108.753 91C108.201 91 107.753 90.5523 107.753 90C107.753 89.4477 108.201 89 108.753 89V91ZM103.455 89C104.007 89 104.455 89.4477 104.455 90C104.455 90.5523 104.007 91 103.455 91V89ZM98.1559 91C97.6037 91 97.1559 90.5523 97.1559 90C97.1559 89.4477 97.6037 89 98.1559 89V91ZM92.8573 89C93.4095 89 93.8573 89.4477 93.8573 90C93.8573 90.5523 93.4095 91 92.8573 91V89ZM87.5586 91C87.0063 91 86.5586 90.5523 86.5586 90C86.5586 89.4477 87.0063 89 87.5586 89V91ZM82.2599 89C82.8122 89 83.2599 89.4477 83.2599 90C83.2599 90.5523 82.8122 91 82.2599 91V89ZM77.0746 90.7526C76.5328 90.6454 76.1805 90.1193 76.2876 89.5775C76.3948 89.0357 76.9209 88.6834 77.4627 88.7906L77.0746 90.7526ZM73.4995 87.1478C73.9584 87.4551 74.0814 88.0762 73.7741 88.5351C73.4669 88.994 72.8458 89.117 72.3869 88.8098L73.4995 87.1478ZM68.8008 85.2237C68.4936 84.7648 68.6165 84.1437 69.0755 83.8364C69.5344 83.5292 70.1555 83.6521 70.4627 84.1111L68.8008 85.2237ZM68.82 80.1479C68.9271 80.6897 68.5748 81.2158 68.033 81.3229C67.4913 81.4301 66.9652 81.0778 66.858 80.536L68.82 80.1479ZM66.6106 75.2C66.6106 74.6477 67.0583 74.2 67.6106 74.2C68.1628 74.2 68.6106 74.6477 68.6106 75.2H66.6106ZM68.6106 69.6C68.6106 70.1523 68.1628 70.6 67.6106 70.6C67.0583 70.6 66.6106 70.1523 66.6106 69.6H68.6106ZM66.6106 64C66.6106 63.4477 67.0583 63 67.6106 63C68.1628 63 68.6106 63.4477 68.6106 64H66.6106ZM68.6106 58.4C68.6106 58.9523 68.1628 59.4 67.6106 59.4C67.0583 59.4 66.6106 58.9523 66.6106 58.4H68.6106ZM66.6106 52.8C66.6106 52.2477 67.0583 51.8 67.6106 51.8C68.1628 51.8 68.6106 52.2477 68.6106 52.8H66.6106ZM68.6106 47.2C68.6106 47.7523 68.1628 48.2 67.6106 48.2C67.0583 48.2 66.6106 47.7523 66.6106 47.2H68.6106ZM66.6106 41.6C66.6106 41.0477 67.0583 40.6 67.6106 40.6C68.1628 40.6 68.6106 41.0477 68.6106 41.6H66.6106ZM68.6106 36C68.6106 36.5523 68.1628 37 67.6106 37C67.0583 37 66.6106 36.5523 66.6106 36H68.6106ZM66.6106 30.4C66.6106 29.8477 67.0583 29.4 67.6106 29.4C68.1628 29.4 68.6106 29.8477 68.6106 30.4H66.6106ZM68.6106 24.8C68.6106 25.3523 68.1628 25.8 67.6106 25.8C67.0583 25.8 66.6106 25.3523 66.6106 24.8H68.6106ZM66.4012 19.8521C66.294 19.3103 66.6463 18.7842 67.1881 18.6771C67.7299 18.5699 68.256 18.9222 68.3631 19.464L66.4012 19.8521ZM66.4203 14.7763C66.7276 15.2352 66.6046 15.8563 66.1457 16.1636C65.6867 16.4708 65.0656 16.3479 64.7584 15.8889L66.4203 14.7763ZM61.7216 12.8522C61.2627 12.5449 61.1397 11.9238 61.447 11.4649C61.7542 11.006 62.3753 10.883 62.8343 11.1902L61.7216 12.8522ZM58.1466 9.24742C58.6884 9.3546 59.0407 9.88069 58.9335 10.4225C58.8263 10.9643 58.3002 11.3166 57.7584 11.2094L58.1466 9.24742ZM52.83 11C52.2777 11 51.83 10.5523 51.83 10C51.83 9.44772 52.2777 9 52.83 9V11ZM47.269 9C47.8213 9 48.269 9.44772 48.269 10C48.269 10.5523 47.8213 11 47.269 11V9ZM41.7079 11C41.1556 11 40.7079 10.5523 40.7079 10C40.7079 9.44772 41.1556 9 41.7079 9V11ZM36.1469 9C36.6992 9 37.1469 9.44772 37.1469 10C37.1469 10.5523 36.6992 11 36.1469 11V9ZM30.5858 11C30.0335 11 29.5858 10.5523 29.5858 10C29.5858 9.44772 30.0335 9 30.5858 9V11ZM25.0247 9C25.577 9 26.0247 9.44772 26.0247 10C26.0247 10.5523 25.577 11 25.0247 11V9ZM19.4637 11C18.9114 11 18.4637 10.5523 18.4637 10C18.4637 9.44772 18.9114 9 19.4637 9V11ZM13.9026 9C14.4549 9 14.9026 9.44772 14.9026 10C14.9026 10.5523 14.4549 11 13.9026 11V9ZM8.34158 11C7.78929 11 7.34158 10.5523 7.34158 10C7.34158 9.44772 7.78929 9 8.34158 9V11ZM2.78053 9C3.33281 9 3.78053 9.44772 3.78053 10C3.78053 10.5523 3.33281 11 2.78053 11V9ZM122 91H119.351V89H122V91ZM114.052 91H108.753V89H114.052V91ZM103.455 91H98.1559V89H103.455V91ZM92.8573 91H87.5586V89H92.8573V91ZM82.2599 91H79.6106V89H82.2599V91ZM79.6106 91C78.7436 91 77.8956 90.915 77.0746 90.7526L77.4627 88.7906C78.1566 88.9279 78.8746 89 79.6106 89V91ZM72.3869 88.8098C70.9696 87.8609 69.7496 86.6409 68.8008 85.2237L70.4627 84.1111C71.2661 85.3111 72.2995 86.3444 73.4995 87.1478L72.3869 88.8098ZM66.858 80.536C66.6956 79.715 66.6106 78.8669 66.6106 78H68.6106C68.6106 78.7359 68.6827 79.454 68.82 80.1479L66.858 80.536ZM66.6106 78V75.2H68.6106V78H66.6106ZM66.6106 69.6V64H68.6106V69.6H66.6106ZM66.6106 58.4V52.8H68.6106V58.4H66.6106ZM66.6106 47.2V41.6H68.6106V47.2H66.6106ZM66.6106 36V30.4H68.6106V36H66.6106ZM66.6106 24.8V22H68.6106V24.8H66.6106ZM66.6106 22C66.6106 21.2641 66.5384 20.546 66.4012 19.8521L68.3631 19.464C68.5256 20.285 68.6106 21.1331 68.6106 22H66.6106ZM64.7584 15.8889C63.955 14.6889 62.9216 13.6556 61.7216 12.8522L62.8343 11.1902C64.2515 12.1391 65.4715 13.3591 66.4203 14.7763L64.7584 15.8889ZM57.7584 11.2094C57.0646 11.0721 56.3465 11 55.6106 11V9C56.4775 9 57.3256 9.085 58.1466 9.24742L57.7584 11.2094ZM55.6106 11H52.83V9H55.6106V11ZM47.269 11H41.7079V9H47.269V11ZM36.1469 11H30.5858V9H36.1469V11ZM25.0247 11H19.4637V9H25.0247V11ZM13.9026 11H8.34158V9H13.9026V11ZM2.78053 11H0V9H2.78053V11Z" fill="#FAAD14"/>
<path d="M0 1H1.93845C3.30765 1 4.67168 1.16792 6 1.5V1.5C7.32832 1.83208 8.69235 2 10.0616 2H56C67.0457 2 76 10.9543 76 22V50" stroke="#FFD666" stroke-width="2"/>
<path d="M122 98L119.582 98C118.529 98 117.478 97.913 116.439 97.7399V97.7399C115.481 97.5802 114.512 97.4937 113.541 97.4813L76 97V97C67.1634 97 60 89.8365 60 81L60 42" stroke="#FFD666" stroke-width="2"/>
<path d="M0 19H2.76894C3.58656 19 4.40109 18.8997 5.1943 18.7014L6.8057 18.2986C7.59891 18.1003 8.41344 18 9.23106 18H50C55.5228 18 60 22.4772 60 28V48" stroke="#FFD666" stroke-width="2"/>
<path d="M122 81L119.231 81C118.413 81 117.599 81.1003 116.806 81.2986L115.194 81.7014C114.401 81.8997 113.587 82 112.769 82L86 82C80.4772 82 76 77.5228 76 72L76 35" stroke="#FFD666" stroke-width="2"/>
<path d="M27.48 235V225H29.68V226.06C30.36 225.22 31.34 224.8 32.62 224.8C33.8067 224.8 34.7533 225.187 35.46 225.96C36.18 226.72 36.54 227.74 36.54 229.02V235H34.34V229.38C34.34 228.567 34.1467 227.933 33.76 227.48C33.3867 227.027 32.8467 226.8 32.14 226.8C30.9667 226.8 30.1467 227.327 29.68 228.38V235H27.48ZM43.695 239.08C42.775 239.08 41.9217 238.933 41.135 238.64C40.3483 238.347 39.715 237.947 39.235 237.44L40.575 235.86C41.3883 236.7 42.4217 237.12 43.675 237.12C44.4617 237.12 45.1483 236.887 45.735 236.42C46.3217 235.953 46.615 235.28 46.615 234.4V233.7C45.8817 234.473 44.9017 234.86 43.675 234.86C42.235 234.86 41.035 234.373 40.075 233.4C39.1283 232.427 38.655 231.233 38.655 229.82C38.655 228.407 39.135 227.22 40.095 226.26C41.055 225.287 42.2483 224.8 43.675 224.8C44.915 224.8 45.895 225.173 46.615 225.92V225H48.815V234.42C48.815 235.98 48.3217 237.147 47.335 237.92C46.3483 238.693 45.135 239.08 43.695 239.08ZM43.935 232.84C45.095 232.84 45.9883 232.373 46.615 231.44V228.18C45.975 227.26 45.0817 226.8 43.935 226.8C43.0683 226.8 42.3483 227.093 41.775 227.68C41.2017 228.253 40.915 228.967 40.915 229.82C40.915 230.687 41.2017 231.407 41.775 231.98C42.3483 232.553 43.0683 232.84 43.935 232.84ZM51.7769 235V225H53.9769V226.34C54.1769 225.94 54.5102 225.6 54.9769 225.32C55.4435 225.04 55.9502 224.9 56.4969 224.9C56.8569 224.9 57.1969 224.94 57.5169 225.02L57.1969 227.16C56.9969 227.08 56.7102 227.04 56.3369 227.04C55.8702 227.04 55.4102 227.173 54.9569 227.44C54.5169 227.707 54.1902 228.087 53.9769 228.58V235H51.7769ZM67.1067 233.7C66.1067 234.7 64.8667 235.2 63.3867 235.2C61.9067 235.2 60.6601 234.7 59.6467 233.7C58.6467 232.687 58.1467 231.453 58.1467 230C58.1467 228.547 58.6467 227.32 59.6467 226.32C60.6601 225.307 61.9067 224.8 63.3867 224.8C64.8667 224.8 66.1067 225.307 67.1067 226.32C68.1201 227.32 68.6267 228.547 68.6267 230C68.6267 231.453 68.1201 232.687 67.1067 233.7ZM63.3867 233.16C64.2534 233.16 64.9667 232.86 65.5267 232.26C66.1001 231.647 66.3867 230.893 66.3867 230C66.3867 229.107 66.1001 228.36 65.5267 227.76C64.9667 227.147 64.2534 226.84 63.3867 226.84C62.5067 226.84 61.7801 227.147 61.2067 227.76C60.6467 228.36 60.3667 229.107 60.3667 230C60.3667 230.893 60.6467 231.647 61.2067 232.26C61.7801 232.86 62.5067 233.16 63.3867 233.16ZM77.8194 235L73.0394 230.18V235H70.8394V220.4H73.0394V228.8L76.8594 225H79.6394L75.1794 229.46L80.6394 235H77.8194ZM90.3133 235.24C89.1799 235.24 88.1533 235.007 87.2333 234.54C86.3266 234.073 85.6599 233.453 85.2333 232.68L87.0733 231.22C87.8599 232.433 88.9599 233.04 90.3733 233.04C91.0533 233.04 91.6066 232.88 92.0333 232.56C92.4599 232.24 92.6733 231.813 92.6733 231.28C92.6733 230.333 91.9999 229.613 90.6533 229.12L89.0933 228.56C87.9599 228.147 87.1199 227.62 86.5733 226.98C86.0266 226.327 85.7533 225.52 85.7533 224.56C85.7533 223.347 86.1799 222.38 87.0333 221.66C87.8999 220.927 89.0066 220.56 90.3533 220.56C92.1533 220.56 93.5866 221.207 94.6533 222.5L93.0333 224.08C92.3133 223.2 91.4199 222.76 90.3533 222.76C89.7266 222.76 89.1933 222.907 88.7533 223.2C88.3266 223.493 88.1133 223.893 88.1133 224.4C88.1133 224.893 88.2733 225.287 88.5933 225.58C88.9266 225.873 89.4866 226.16 90.2733 226.44L91.7133 226.98C93.9399 227.82 95.0533 229.207 95.0533 231.14C95.0533 232.367 94.6133 233.36 93.7333 234.12C92.8533 234.867 91.7133 235.24 90.3133 235.24ZM101.824 235.2C100.304 235.2 99.0509 234.713 98.0642 233.74C97.0909 232.767 96.6042 231.52 96.6042 230C96.6042 228.52 97.0976 227.287 98.0842 226.3C99.0709 225.3 100.318 224.8 101.824 224.8C103.211 224.8 104.358 225.24 105.264 226.12C106.184 227 106.644 228.213 106.644 229.76C106.644 230.027 106.638 230.267 106.624 230.48H98.7642C98.8176 231.293 99.1309 231.953 99.7042 232.46C100.278 232.953 100.991 233.2 101.844 233.2C103.124 233.2 104.078 232.693 104.704 231.68L106.384 232.88C105.424 234.427 103.904 235.2 101.824 235.2ZM98.8642 228.88H104.424C104.304 228.187 103.991 227.647 103.484 227.26C102.991 226.86 102.411 226.66 101.744 226.66C101.051 226.66 100.431 226.853 99.8842 227.24C99.3509 227.627 99.0109 228.173 98.8642 228.88ZM113.466 235.2C111.959 235.2 110.699 234.707 109.686 233.72C108.686 232.72 108.186 231.48 108.186 230C108.186 228.52 108.686 227.287 109.686 226.3C110.699 225.3 111.959 224.8 113.466 224.8C114.492 224.8 115.412 225.047 116.226 225.54C117.052 226.033 117.686 226.707 118.126 227.56L116.206 228.6C115.952 228.067 115.586 227.64 115.106 227.32C114.626 227 114.079 226.84 113.466 226.84C112.586 226.84 111.859 227.147 111.286 227.76C110.712 228.36 110.426 229.107 110.426 230C110.426 230.893 110.712 231.647 111.286 232.26C111.859 232.86 112.586 233.16 113.466 233.16C114.079 233.16 114.626 233 115.106 232.68C115.586 232.36 115.952 231.933 116.206 231.4L118.126 232.44C117.686 233.293 117.052 233.967 116.226 234.46C115.412 234.953 114.492 235.2 113.466 235.2ZM128.836 225V235H126.636V233.96C125.996 234.787 125.076 235.2 123.876 235.2C122.703 235.2 121.763 234.82 121.056 234.06C120.35 233.287 119.996 232.26 119.996 230.98V225H122.196V230.62C122.196 231.42 122.383 232.053 122.756 232.52C123.143 232.973 123.676 233.2 124.356 233.2C124.863 233.2 125.316 233.06 125.716 232.78C126.116 232.487 126.423 232.1 126.636 231.62V225H128.836ZM131.796 235V225H133.996V226.34C134.196 225.94 134.53 225.6 134.996 225.32C135.463 225.04 135.97 224.9 136.516 224.9C136.876 224.9 137.216 224.94 137.536 225.02L137.216 227.16C137.016 227.08 136.73 227.04 136.356 227.04C135.89 227.04 135.43 227.173 134.976 227.44C134.536 227.707 134.21 228.087 133.996 228.58V235H131.796ZM143.406 235.2C141.886 235.2 140.633 234.713 139.646 233.74C138.673 232.767 138.186 231.52 138.186 230C138.186 228.52 138.68 227.287 139.666 226.3C140.653 225.3 141.9 224.8 143.406 224.8C144.793 224.8 145.94 225.24 146.846 226.12C147.766 227 148.226 228.213 148.226 229.76C148.226 230.027 148.22 230.267 148.206 230.48H140.346C140.4 231.293 140.713 231.953 141.286 232.46C141.86 232.953 142.573 233.2 143.426 233.2C144.706 233.2 145.66 232.693 146.286 231.68L147.966 232.88C147.006 234.427 145.486 235.2 143.406 235.2ZM140.446 228.88H146.006C145.886 228.187 145.573 227.647 145.066 227.26C144.573 226.86 143.993 226.66 143.326 226.66C142.633 226.66 142.013 226.853 141.466 227.24C140.933 227.627 140.593 228.173 140.446 228.88ZM157.57 235V223.04H153.45V220.8H164.05V223.04H159.91V235H157.57ZM172.957 225V235H170.757V233.96C170.117 234.787 169.197 235.2 167.997 235.2C166.824 235.2 165.884 234.82 165.177 234.06C164.471 233.287 164.117 232.26 164.117 230.98V225H166.317V230.62C166.317 231.42 166.504 232.053 166.877 232.52C167.264 232.973 167.797 233.2 168.477 233.2C168.984 233.2 169.437 233.06 169.837 232.78C170.237 232.487 170.544 232.1 170.757 231.62V225H172.957ZM175.918 235V225H178.118V226.06C178.798 225.22 179.778 224.8 181.058 224.8C182.244 224.8 183.191 225.187 183.898 225.96C184.618 226.72 184.978 227.74 184.978 229.02V235H182.778V229.38C182.778 228.567 182.584 227.933 182.198 227.48C181.824 227.027 181.284 226.8 180.578 226.8C179.404 226.8 178.584 227.327 178.118 228.38V235H175.918ZM187.793 235V225H189.993V226.06C190.673 225.22 191.653 224.8 192.933 224.8C194.119 224.8 195.066 225.187 195.773 225.96C196.493 226.72 196.853 227.74 196.853 229.02V235H194.653V229.38C194.653 228.567 194.459 227.933 194.073 227.48C193.699 227.027 193.159 226.8 192.453 226.8C191.279 226.8 190.459 227.327 189.993 228.38V235H187.793ZM204.188 235.2C202.668 235.2 201.414 234.713 200.428 233.74C199.454 232.767 198.968 231.52 198.968 230C198.968 228.52 199.461 227.287 200.448 226.3C201.434 225.3 202.681 224.8 204.188 224.8C205.574 224.8 206.721 225.24 207.628 226.12C208.548 227 209.008 228.213 209.008 229.76C209.008 230.027 209.001 230.267 208.988 230.48H201.127C201.181 231.293 201.494 231.953 202.068 232.46C202.641 232.953 203.354 233.2 204.208 233.2C205.488 233.2 206.441 232.693 207.068 231.68L208.747 232.88C207.788 234.427 206.268 235.2 204.188 235.2ZM201.228 228.88H206.788C206.668 228.187 206.354 227.647 205.848 227.26C205.354 226.86 204.774 226.66 204.108 226.66C203.414 226.66 202.794 226.853 202.248 227.24C201.714 227.627 201.374 228.173 201.228 228.88ZM211.269 235V220.4H213.469V235H211.269Z" fill="white"/>
<path d="M27.88 267V252.8H36.16V254.56H29.74V258.86H34.96V260.62H29.74V265.24H36.16V267H27.88ZM41.7533 267.2C40.8333 267.2 40.0266 267.007 39.3333 266.62C38.6399 266.22 38.1399 265.64 37.8333 264.88L39.2333 264.1C39.4199 264.593 39.7466 264.98 40.2133 265.26C40.6799 265.54 41.1999 265.68 41.7733 265.68C42.2666 265.68 42.6799 265.56 43.0133 265.32C43.3466 265.08 43.5133 264.753 43.5133 264.34C43.5133 263.98 43.3799 263.68 43.1133 263.44C42.8599 263.2 42.4133 262.98 41.7733 262.78L40.7733 262.46C39.1066 261.98 38.2733 261.007 38.2733 259.54C38.2733 258.713 38.5999 258.053 39.2533 257.56C39.9199 257.053 40.7399 256.8 41.7133 256.8C43.2333 256.8 44.3333 257.38 45.0133 258.54L43.7333 259.42C43.1866 258.66 42.4933 258.28 41.6533 258.28C41.1999 258.28 40.8066 258.393 40.4733 258.62C40.1533 258.833 39.9933 259.12 39.9933 259.48C39.9933 259.813 40.0933 260.1 40.2933 260.34C40.5066 260.567 40.8799 260.76 41.4133 260.92L42.5133 261.26C44.3266 261.82 45.2333 262.8 45.2333 264.2C45.2333 265.133 44.9066 265.867 44.2533 266.4C43.6133 266.933 42.7799 267.2 41.7533 267.2ZM51.9 267.1C51.0067 267.1 50.26 266.84 49.66 266.32C49.0733 265.787 48.78 265.027 48.78 264.04V258.58H46.26V257H48.78V254.16H50.5V257H53.6V258.58H50.5V263.82C50.5 264.98 51.0333 265.56 52.1 265.56C52.6333 265.56 53.1133 265.433 53.54 265.18L54.06 266.64C53.4733 266.947 52.7533 267.1 51.9 267.1ZM60.0245 267.2C58.5579 267.2 57.3512 266.7 56.4045 265.7C55.4579 264.687 54.9845 263.453 54.9845 262C54.9845 260.547 55.4579 259.32 56.4045 258.32C57.3512 257.307 58.5579 256.8 60.0245 256.8C61.3979 256.8 62.4845 257.233 63.2845 258.1V257H65.0045V267H63.2845V265.9C62.4845 266.767 61.3979 267.2 60.0245 267.2ZM60.1645 265.62C61.5645 265.62 62.6045 265.067 63.2845 263.96V260.02C62.6045 258.927 61.5645 258.38 60.1645 258.38C59.1779 258.38 58.3645 258.733 57.7245 259.44C57.0845 260.133 56.7645 260.987 56.7645 262C56.7645 263.013 57.0845 263.873 57.7245 264.58C58.3645 265.273 59.1779 265.62 60.1645 265.62ZM73.225 267.2C71.8783 267.2 70.7917 266.767 69.965 265.9V267H68.245V252.4H69.965V258.1C70.7917 257.233 71.8783 256.8 73.225 256.8C74.6917 256.8 75.8983 257.307 76.845 258.32C77.7917 259.32 78.265 260.547 78.265 262C78.265 263.453 77.7917 264.687 76.845 265.7C75.8983 266.7 74.6917 267.2 73.225 267.2ZM73.085 265.62C74.0717 265.62 74.885 265.273 75.525 264.58C76.165 263.873 76.485 263.013 76.485 262C76.485 260.987 76.165 260.133 75.525 259.44C74.885 258.733 74.0717 258.38 73.085 258.38C71.685 258.38 70.645 258.927 69.965 260.02V263.96C70.645 265.067 71.685 265.62 73.085 265.62ZM80.7255 267V252.4H82.4455V267H80.7255ZM87.4459 254.38C87.2193 254.607 86.9326 254.72 86.5859 254.72C86.2393 254.72 85.9459 254.607 85.7059 254.38C85.4659 254.14 85.3459 253.847 85.3459 253.5C85.3459 253.167 85.4659 252.88 85.7059 252.64C85.9459 252.4 86.2393 252.28 86.5859 252.28C86.9326 252.28 87.2193 252.4 87.4459 252.64C87.6859 252.88 87.8059 253.167 87.8059 253.5C87.8059 253.847 87.6859 254.14 87.4459 254.38ZM85.7059 267V257H87.4259V267H85.7059ZM93.7064 267.2C92.7864 267.2 91.9797 267.007 91.2864 266.62C90.5931 266.22 90.0931 265.64 89.7864 264.88L91.1864 264.1C91.3731 264.593 91.6997 264.98 92.1664 265.26C92.6331 265.54 93.1531 265.68 93.7264 265.68C94.2197 265.68 94.6331 265.56 94.9664 265.32C95.2997 265.08 95.4664 264.753 95.4664 264.34C95.4664 263.98 95.3331 263.68 95.0664 263.44C94.8131 263.2 94.3664 262.98 93.7264 262.78L92.7264 262.46C91.0597 261.98 90.2264 261.007 90.2264 259.54C90.2264 258.713 90.5531 258.053 91.2064 257.56C91.8731 257.053 92.6931 256.8 93.6664 256.8C95.1864 256.8 96.2864 257.38 96.9664 258.54L95.6864 259.42C95.1397 258.66 94.4464 258.28 93.6064 258.28C93.1531 258.28 92.7597 258.393 92.4264 258.62C92.1064 258.833 91.9464 259.12 91.9464 259.48C91.9464 259.813 92.0464 260.1 92.2464 260.34C92.4597 260.567 92.8331 260.76 93.3664 260.92L94.4664 261.26C96.2797 261.82 97.1864 262.8 97.1864 264.2C97.1864 265.133 96.8597 265.867 96.2064 266.4C95.5664 266.933 94.7331 267.2 93.7064 267.2ZM101.41 267H99.6903V252.4H101.41V258.26C102.077 257.287 103.13 256.8 104.57 256.8C105.704 256.8 106.617 257.167 107.31 257.9C108.017 258.633 108.37 259.62 108.37 260.86V267H106.67V261.12C106.67 260.253 106.444 259.58 105.99 259.1C105.55 258.62 104.944 258.38 104.17 258.38C102.784 258.38 101.864 259.04 101.41 260.36V267ZM120.552 267.2C119.085 267.2 117.879 266.7 116.932 265.7C115.985 264.687 115.512 263.453 115.512 262C115.512 260.547 115.985 259.32 116.932 258.32C117.879 257.307 119.085 256.8 120.552 256.8C121.925 256.8 123.012 257.233 123.812 258.1V257H125.532V267H123.812V265.9C123.012 266.767 121.925 267.2 120.552 267.2ZM120.692 265.62C122.092 265.62 123.132 265.067 123.812 263.96V260.02C123.132 258.927 122.092 258.38 120.692 258.38C119.705 258.38 118.892 258.733 118.252 259.44C117.612 260.133 117.292 260.987 117.292 262C117.292 263.013 117.612 263.873 118.252 264.58C118.892 265.273 119.705 265.62 120.692 265.62ZM128.772 267V257H130.492V258.26C131.159 257.287 132.212 256.8 133.652 256.8C134.786 256.8 135.699 257.167 136.392 257.9C137.099 258.633 137.452 259.62 137.452 260.86V267H135.752V261.12C135.752 260.253 135.526 259.58 135.072 259.1C134.632 258.62 134.026 258.38 133.252 258.38C131.866 258.38 130.946 259.04 130.492 260.36V267H128.772ZM149.774 267.2C148.241 267.2 146.994 266.707 146.034 265.72C145.074 264.733 144.594 263.493 144.594 262C144.594 260.52 145.081 259.287 146.054 258.3C147.027 257.3 148.274 256.8 149.794 256.8C151.141 256.8 152.267 257.253 153.174 258.16C154.094 259.053 154.554 260.273 154.554 261.82C154.554 262.02 154.547 262.193 154.534 262.34H146.334C146.361 263.273 146.694 264.053 147.334 264.68C147.987 265.307 148.807 265.62 149.794 265.62C151.194 265.62 152.234 265.04 152.914 263.88L154.274 264.82C153.301 266.407 151.801 267.2 149.774 267.2ZM146.454 260.94H152.794C152.661 260.14 152.307 259.507 151.734 259.04C151.174 258.56 150.507 258.32 149.734 258.32C148.947 258.32 148.241 258.56 147.614 259.04C147.001 259.507 146.614 260.14 146.454 260.94ZM156.995 267V257H158.715V258.26C159.382 257.287 160.435 256.8 161.875 256.8C163.008 256.8 163.922 257.167 164.615 257.9C165.322 258.633 165.675 259.62 165.675 260.86V267H163.975V261.12C163.975 260.253 163.748 259.58 163.295 259.1C162.855 258.62 162.248 258.38 161.475 258.38C160.088 258.38 159.168 259.04 158.715 260.36V267H156.995ZM173.232 267.2C171.726 267.2 170.472 266.7 169.472 265.7C168.486 264.7 167.992 263.467 167.992 262C167.992 260.533 168.486 259.3 169.472 258.3C170.472 257.3 171.726 256.8 173.232 256.8C174.246 256.8 175.152 257.04 175.952 257.52C176.766 258 177.399 258.653 177.852 259.48L176.352 260.32C176.059 259.733 175.639 259.267 175.092 258.92C174.559 258.573 173.939 258.4 173.232 258.4C172.206 258.4 171.366 258.747 170.712 259.44C170.059 260.133 169.732 260.987 169.732 262C169.732 263.013 170.059 263.867 170.712 264.56C171.366 265.253 172.206 265.6 173.232 265.6C173.939 265.6 174.559 265.427 175.092 265.08C175.639 264.733 176.059 264.267 176.352 263.68L177.852 264.52C177.399 265.347 176.766 266 175.952 266.48C175.152 266.96 174.246 267.2 173.232 267.2ZM180.081 267V257H181.801V258.48C182.001 258.053 182.354 257.687 182.861 257.38C183.381 257.06 183.928 256.9 184.501 256.9C184.794 256.9 185.088 256.933 185.381 257L185.161 258.72C184.921 258.64 184.634 258.6 184.301 258.6C183.768 258.6 183.261 258.773 182.781 259.12C182.314 259.453 181.988 259.92 181.801 260.52V267H180.081ZM190.068 270.88H188.148L190.188 266.48L185.808 257H187.708L191.148 264.6L194.568 257H196.488L190.068 270.88ZM198.206 270.88V257H199.926V258.1C200.753 257.233 201.839 256.8 203.186 256.8C204.653 256.8 205.859 257.307 206.806 258.32C207.753 259.32 208.226 260.547 208.226 262C208.226 263.453 207.753 264.687 206.806 265.7C205.859 266.7 204.653 267.2 203.186 267.2C201.839 267.2 200.753 266.767 199.926 265.9V270.88H198.206ZM203.046 265.62C204.033 265.62 204.846 265.273 205.486 264.58C206.126 263.873 206.446 263.013 206.446 262C206.446 260.987 206.126 260.133 205.486 259.44C204.846 258.733 204.033 258.38 203.046 258.38C201.646 258.38 200.606 258.927 199.926 260.02V263.96C200.606 265.067 201.646 265.62 203.046 265.62ZM214.752 267.1C213.858 267.1 213.112 266.84 212.512 266.32C211.925 265.787 211.632 265.027 211.632 264.04V258.58H209.112V257H211.632V254.16H213.352V257H216.452V258.58H213.352V263.82C213.352 264.98 213.885 265.56 214.952 265.56C215.485 265.56 215.965 265.433 216.392 265.18L216.912 266.64C216.325 266.947 215.605 267.1 214.752 267.1ZM222.997 267.2C221.463 267.2 220.217 266.707 219.257 265.72C218.297 264.733 217.817 263.493 217.817 262C217.817 260.52 218.303 259.287 219.277 258.3C220.25 257.3 221.497 256.8 223.017 256.8C224.363 256.8 225.49 257.253 226.397 258.16C227.317 259.053 227.777 260.273 227.777 261.82C227.777 262.02 227.77 262.193 227.757 262.34H219.557C219.583 263.273 219.917 264.053 220.557 264.68C221.21 265.307 222.03 265.62 223.017 265.62C224.417 265.62 225.457 265.04 226.137 263.88L227.497 264.82C226.523 266.407 225.023 267.2 222.997 267.2ZM219.677 260.94H226.017C225.883 260.14 225.53 259.507 224.957 259.04C224.397 258.56 223.73 258.32 222.957 258.32C222.17 258.32 221.463 258.56 220.837 259.04C220.223 259.507 219.837 260.14 219.677 260.94ZM234.478 267.2C233.011 267.2 231.804 266.7 230.858 265.7C229.911 264.687 229.438 263.453 229.438 262C229.438 260.547 229.911 259.32 230.858 258.32C231.804 257.307 233.011 256.8 234.478 256.8C235.851 256.8 236.938 257.233 237.738 258.1V252.4H239.458V267H237.738V265.9C236.938 266.767 235.851 267.2 234.478 267.2ZM234.618 265.62C236.018 265.62 237.058 265.067 237.738 263.96V260.02C237.058 258.927 236.018 258.38 234.618 258.38C233.631 258.38 232.818 258.733 232.178 259.44C231.538 260.133 231.218 260.987 231.218 262C231.218 263.013 231.538 263.873 232.178 264.58C232.818 265.273 233.631 265.62 234.618 265.62ZM32.08 295.2C30.5733 295.2 29.32 294.7 28.32 293.7C27.3333 292.7 26.84 291.467 26.84 290C26.84 288.533 27.3333 287.3 28.32 286.3C29.32 285.3 30.5733 284.8 32.08 284.8C33.0933 284.8 34 285.04 34.8 285.52C35.6133 286 36.2467 286.653 36.7 287.48L35.2 288.32C34.9067 287.733 34.4867 287.267 33.94 286.92C33.4067 286.573 32.7867 286.4 32.08 286.4C31.0533 286.4 30.2133 286.747 29.56 287.44C28.9067 288.133 28.58 288.987 28.58 290C28.58 291.013 28.9067 291.867 29.56 292.56C30.2133 293.253 31.0533 293.6 32.08 293.6C32.7867 293.6 33.4067 293.427 33.94 293.08C34.4867 292.733 34.9067 292.267 35.2 291.68L36.7 292.52C36.2467 293.347 35.6133 294 34.8 294.48C34 294.96 33.0933 295.2 32.08 295.2ZM43.3686 295.2C41.8619 295.2 40.6086 294.7 39.6086 293.7C38.6219 292.687 38.1286 291.453 38.1286 290C38.1286 288.547 38.6219 287.32 39.6086 286.32C40.6086 285.307 41.8619 284.8 43.3686 284.8C44.8619 284.8 46.1019 285.307 47.0886 286.32C48.0886 287.32 48.5886 288.547 48.5886 290C48.5886 291.453 48.0886 292.687 47.0886 293.7C46.1019 294.7 44.8619 295.2 43.3686 295.2ZM40.8486 292.56C41.5019 293.253 42.3419 293.6 43.3686 293.6C44.3953 293.6 45.2286 293.253 45.8686 292.56C46.5086 291.867 46.8286 291.013 46.8286 290C46.8286 288.987 46.5086 288.133 45.8686 287.44C45.2286 286.747 44.3953 286.4 43.3686 286.4C42.3419 286.4 41.5019 286.747 40.8486 287.44C40.2086 288.133 39.8886 288.987 39.8886 290C39.8886 291.013 40.2086 291.867 40.8486 292.56ZM51.0575 295V285H52.7775V286.26C53.4442 285.287 54.4975 284.8 55.9375 284.8C57.0708 284.8 57.9842 285.167 58.6775 285.9C59.3842 286.633 59.7375 287.62 59.7375 288.86V295H58.0375V289.12C58.0375 288.253 57.8108 287.58 57.3575 287.1C56.9175 286.62 56.3108 286.38 55.5375 286.38C54.1508 286.38 53.2308 287.04 52.7775 288.36V295H51.0575ZM62.8348 295V285H64.5548V286.26C65.2215 285.287 66.2748 284.8 67.7148 284.8C68.8482 284.8 69.7615 285.167 70.4548 285.9C71.1615 286.633 71.5148 287.62 71.5148 288.86V295H69.8148V289.12C69.8148 288.253 69.5882 287.58 69.1348 287.1C68.6948 286.62 68.0882 286.38 67.3148 286.38C65.9282 286.38 65.0082 287.04 64.5548 288.36V295H62.8348ZM79.0122 295.2C77.4789 295.2 76.2322 294.707 75.2722 293.72C74.3122 292.733 73.8322 291.493 73.8322 290C73.8322 288.52 74.3189 287.287 75.2922 286.3C76.2655 285.3 77.5122 284.8 79.0322 284.8C80.3789 284.8 81.5055 285.253 82.4122 286.16C83.3322 287.053 83.7922 288.273 83.7922 289.82C83.7922 290.02 83.7855 290.193 83.7722 290.34H75.5722C75.5989 291.273 75.9322 292.053 76.5722 292.68C77.2255 293.307 78.0455 293.62 79.0322 293.62C80.4322 293.62 81.4722 293.04 82.1522 291.88L83.5122 292.82C82.5389 294.407 81.0389 295.2 79.0122 295.2ZM75.6922 288.94H82.0322C81.8989 288.14 81.5455 287.507 80.9722 287.04C80.4122 286.56 79.7455 286.32 78.9722 286.32C78.1855 286.32 77.4789 286.56 76.8522 287.04C76.2389 287.507 75.8522 288.14 75.6922 288.94ZM90.6933 295.2C89.1866 295.2 87.9333 294.7 86.9333 293.7C85.9466 292.7 85.4533 291.467 85.4533 290C85.4533 288.533 85.9466 287.3 86.9333 286.3C87.9333 285.3 89.1866 284.8 90.6933 284.8C91.7066 284.8 92.6133 285.04 93.4133 285.52C94.2266 286 94.8599 286.653 95.3133 287.48L93.8133 288.32C93.5199 287.733 93.0999 287.267 92.5533 286.92C92.0199 286.573 91.3999 286.4 90.6933 286.4C89.6666 286.4 88.8266 286.747 88.1733 287.44C87.5199 288.133 87.1933 288.987 87.1933 290C87.1933 291.013 87.5199 291.867 88.1733 292.56C88.8266 293.253 89.6666 293.6 90.6933 293.6C91.3999 293.6 92.0199 293.427 92.5533 293.08C93.0999 292.733 93.5199 292.267 93.8133 291.68L95.3133 292.52C94.8599 293.347 94.2266 294 93.4133 294.48C92.6133 294.96 91.7066 295.2 90.6933 295.2ZM101.822 295.1C100.929 295.1 100.182 294.84 99.5819 294.32C98.9952 293.787 98.7019 293.027 98.7019 292.04V286.58H96.1819V285H98.7019V282.16H100.422V285H103.522V286.58H100.422V291.82C100.422 292.98 100.955 293.56 102.022 293.56C102.555 293.56 103.035 293.433 103.462 293.18L103.982 294.64C103.395 294.947 102.675 295.1 101.822 295.1ZM107.583 282.38C107.356 282.607 107.069 282.72 106.723 282.72C106.376 282.72 106.083 282.607 105.843 282.38C105.603 282.14 105.483 281.847 105.483 281.5C105.483 281.167 105.603 280.88 105.843 280.64C106.083 280.4 106.376 280.28 106.723 280.28C107.069 280.28 107.356 280.4 107.583 280.64C107.823 280.88 107.943 281.167 107.943 281.5C107.943 281.847 107.823 282.14 107.583 282.38ZM105.843 295V285H107.563V295H105.843ZM115.263 295.2C113.756 295.2 112.503 294.7 111.503 293.7C110.516 292.687 110.023 291.453 110.023 290C110.023 288.547 110.516 287.32 111.503 286.32C112.503 285.307 113.756 284.8 115.263 284.8C116.756 284.8 117.996 285.307 118.983 286.32C119.983 287.32 120.483 288.547 120.483 290C120.483 291.453 119.983 292.687 118.983 293.7C117.996 294.7 116.756 295.2 115.263 295.2ZM112.743 292.56C113.396 293.253 114.236 293.6 115.263 293.6C116.29 293.6 117.123 293.253 117.763 292.56C118.403 291.867 118.723 291.013 118.723 290C118.723 288.987 118.403 288.133 117.763 287.44C117.123 286.747 116.29 286.4 115.263 286.4C114.236 286.4 113.396 286.747 112.743 287.44C112.103 288.133 111.783 288.987 111.783 290C111.783 291.013 112.103 291.867 112.743 292.56ZM122.952 295V285H124.672V286.26C125.339 285.287 126.392 284.8 127.832 284.8C128.965 284.8 129.879 285.167 130.572 285.9C131.279 286.633 131.632 287.62 131.632 288.86V295H129.932V289.12C129.932 288.253 129.705 287.58 129.252 287.1C128.812 286.62 128.205 286.38 127.432 286.38C126.045 286.38 125.125 287.04 124.672 288.36V295H122.952ZM141.294 282.38C141.067 282.607 140.78 282.72 140.434 282.72C140.087 282.72 139.794 282.607 139.554 282.38C139.314 282.14 139.194 281.847 139.194 281.5C139.194 281.167 139.314 280.88 139.554 280.64C139.794 280.4 140.087 280.28 140.434 280.28C140.78 280.28 141.067 280.4 141.294 280.64C141.534 280.88 141.654 281.167 141.654 281.5C141.654 281.847 141.534 282.14 141.294 282.38ZM139.554 295V285H141.274V295H139.554ZM144.534 295V285H146.254V286.26C146.921 285.287 147.974 284.8 149.414 284.8C150.547 284.8 151.461 285.167 152.154 285.9C152.861 286.633 153.214 287.62 153.214 288.86V295H151.514V289.12C151.514 288.253 151.287 287.58 150.834 287.1C150.394 286.62 149.787 286.38 149.014 286.38C147.627 286.38 146.707 287.04 146.254 288.36V295H144.534ZM164.156 295.2C163.236 295.2 162.429 295.007 161.736 294.62C161.042 294.22 160.542 293.64 160.236 292.88L161.636 292.1C161.822 292.593 162.149 292.98 162.616 293.26C163.082 293.54 163.602 293.68 164.176 293.68C164.669 293.68 165.082 293.56 165.416 293.32C165.749 293.08 165.916 292.753 165.916 292.34C165.916 291.98 165.782 291.68 165.516 291.44C165.262 291.2 164.816 290.98 164.176 290.78L163.176 290.46C161.509 289.98 160.676 289.007 160.676 287.54C160.676 286.713 161.002 286.053 161.656 285.56C162.322 285.053 163.142 284.8 164.116 284.8C165.636 284.8 166.736 285.38 167.416 286.54L166.136 287.42C165.589 286.66 164.896 286.28 164.056 286.28C163.602 286.28 163.209 286.393 162.876 286.62C162.556 286.833 162.396 287.12 162.396 287.48C162.396 287.813 162.496 288.1 162.696 288.34C162.909 288.567 163.282 288.76 163.816 288.92L164.916 289.26C166.729 289.82 167.636 290.8 167.636 292.2C167.636 293.133 167.309 293.867 166.656 294.4C166.016 294.933 165.182 295.2 164.156 295.2ZM174.54 295.2C173.006 295.2 171.76 294.707 170.8 293.72C169.84 292.733 169.36 291.493 169.36 290C169.36 288.52 169.846 287.287 170.82 286.3C171.793 285.3 173.04 284.8 174.56 284.8C175.906 284.8 177.033 285.253 177.94 286.16C178.86 287.053 179.32 288.273 179.32 289.82C179.32 290.02 179.313 290.193 179.3 290.34H171.1C171.126 291.273 171.46 292.053 172.1 292.68C172.753 293.307 173.573 293.62 174.56 293.62C175.96 293.62 177 293.04 177.68 291.88L179.04 292.82C178.066 294.407 176.566 295.2 174.54 295.2ZM171.22 288.94H177.56C177.426 288.14 177.073 287.507 176.5 287.04C175.94 286.56 175.273 286.32 174.5 286.32C173.713 286.32 173.006 286.56 172.38 287.04C171.766 287.507 171.38 288.14 171.22 288.94ZM186.221 295.2C184.714 295.2 183.461 294.7 182.461 293.7C181.474 292.7 180.981 291.467 180.981 290C180.981 288.533 181.474 287.3 182.461 286.3C183.461 285.3 184.714 284.8 186.221 284.8C187.234 284.8 188.141 285.04 188.941 285.52C189.754 286 190.387 286.653 190.841 287.48L189.341 288.32C189.047 287.733 188.627 287.267 188.081 286.92C187.547 286.573 186.927 286.4 186.221 286.4C185.194 286.4 184.354 286.747 183.701 287.44C183.047 288.133 182.721 288.987 182.721 290C182.721 291.013 183.047 291.867 183.701 292.56C184.354 293.253 185.194 293.6 186.221 293.6C186.927 293.6 187.547 293.427 188.081 293.08C188.627 292.733 189.047 292.267 189.341 291.68L190.841 292.52C190.387 293.347 189.754 294 188.941 294.48C188.141 294.96 187.234 295.2 186.221 295.2ZM197.509 295.2C196.003 295.2 194.749 294.7 193.749 293.7C192.763 292.687 192.269 291.453 192.269 290C192.269 288.547 192.763 287.32 193.749 286.32C194.749 285.307 196.003 284.8 197.509 284.8C199.003 284.8 200.243 285.307 201.229 286.32C202.229 287.32 202.729 288.547 202.729 290C202.729 291.453 202.229 292.687 201.229 293.7C200.243 294.7 199.003 295.2 197.509 295.2ZM194.989 292.56C195.643 293.253 196.483 293.6 197.509 293.6C198.536 293.6 199.369 293.253 200.009 292.56C200.649 291.867 200.969 291.013 200.969 290C200.969 288.987 200.649 288.133 200.009 287.44C199.369 286.747 198.536 286.4 197.509 286.4C196.483 286.4 195.643 286.747 194.989 287.44C194.349 288.133 194.029 288.987 194.029 290C194.029 291.013 194.349 291.867 194.989 292.56ZM205.198 295V285H206.918V286.26C207.585 285.287 208.638 284.8 210.078 284.8C211.211 284.8 212.125 285.167 212.818 285.9C213.525 286.633 213.878 287.62 213.878 288.86V295H212.178V289.12C212.178 288.253 211.951 287.58 211.498 287.1C211.058 286.62 210.451 286.38 209.678 286.38C208.291 286.38 207.371 287.04 206.918 288.36V295H205.198ZM221.235 295.2C219.769 295.2 218.562 294.7 217.615 293.7C216.669 292.687 216.195 291.453 216.195 290C216.195 288.547 216.669 287.32 217.615 286.32C218.562 285.307 219.769 284.8 221.235 284.8C222.609 284.8 223.695 285.233 224.495 286.1V280.4H226.215V295H224.495V293.9C223.695 294.767 222.609 295.2 221.235 295.2ZM221.375 293.62C222.775 293.62 223.815 293.067 224.495 291.96V288.02C223.815 286.927 222.775 286.38 221.375 286.38C220.389 286.38 219.575 286.733 218.935 287.44C218.295 288.133 217.975 288.987 217.975 290C217.975 291.013 218.295 291.873 218.935 292.58C219.575 293.273 220.389 293.62 221.375 293.62ZM232.476 295.2C231.556 295.2 230.749 295.007 230.056 294.62C229.363 294.22 228.863 293.64 228.556 292.88L229.956 292.1C230.143 292.593 230.469 292.98 230.936 293.26C231.403 293.54 231.923 293.68 232.496 293.68C232.989 293.68 233.403 293.56 233.736 293.32C234.069 293.08 234.236 292.753 234.236 292.34C234.236 291.98 234.103 291.68 233.836 291.44C233.583 291.2 233.136 290.98 232.496 290.78L231.496 290.46C229.829 289.98 228.996 289.007 228.996 287.54C228.996 286.713 229.323 286.053 229.976 285.56C230.643 285.053 231.463 284.8 232.436 284.8C233.956 284.8 235.056 285.38 235.736 286.54L234.456 287.42C233.909 286.66 233.216 286.28 232.376 286.28C231.923 286.28 231.529 286.393 231.196 286.62C230.876 286.833 230.716 287.12 230.716 287.48C230.716 287.813 230.816 288.1 231.016 288.34C231.229 288.567 231.603 288.76 232.136 288.92L233.236 289.26C235.049 289.82 235.956 290.8 235.956 292.2C235.956 293.133 235.629 293.867 234.976 294.4C234.336 294.933 233.503 295.2 232.476 295.2Z" fill="#8C8C8C"/>
<rect x="78" y="96" width="1" height="102" fill="#FFD666"/>
</svg>

